<mxfile host="app.diagrams.net" modified="2024-05-07T14:54:23.297Z" agent="Mozilla/5.0 (X11; Linux x86_64) AppleWebKit/537.36 (KHTML, like Gecko) Chrome/124.0.0.0 Safari/537.36 Edg/124.0.0.0" etag="Zg_jbfSuhhPa7vr-IRyp" version="24.3.1" type="github">
  <diagram id="hiXRqI_svrn2NF_ZC7qR" name="第 1 页">
    <mxGraphModel dx="2939" dy="1298" grid="1" gridSize="10" guides="1" tooltips="1" connect="1" arrows="1" fold="1" page="1" pageScale="1" pageWidth="827" pageHeight="1169" math="0" shadow="0">
      <root>
        <mxCell id="0" />
        <mxCell id="1" parent="0" />
        <mxCell id="9GA1_ZZ8TkLPx-6e-POV-17" value="优化器" style="swimlane;fillColor=#fff2cc;strokeColor=#d6b656;fontFamily=Times New Roman;" parent="1" vertex="1">
          <mxGeometry x="-475.51" y="884" width="1050" height="236" as="geometry" />
        </mxCell>
        <mxCell id="nyfXz0uPsz8sGl3F8VXS-156" value="" style="edgeStyle=orthogonalEdgeStyle;rounded=0;orthogonalLoop=1;jettySize=auto;html=1;fontFamily=Times New Roman;fontSize=12;endArrow=classic;endFill=1;entryX=0;entryY=0.5;entryDx=0;entryDy=0;strokeWidth=3;" parent="9GA1_ZZ8TkLPx-6e-POV-17" source="nyfXz0uPsz8sGl3F8VXS-99" target="nyfXz0uPsz8sGl3F8VXS-101" edge="1">
          <mxGeometry relative="1" as="geometry" />
        </mxCell>
        <mxCell id="nyfXz0uPsz8sGl3F8VXS-99" value="" style="swimlane;startSize=0;fontFamily=Times New Roman;fontSize=12;strokeWidth=2;fillColor=#FFFFFF;" parent="9GA1_ZZ8TkLPx-6e-POV-17" vertex="1">
          <mxGeometry x="194" y="66" width="139" height="139.87" as="geometry" />
        </mxCell>
        <mxCell id="nyfXz0uPsz8sGl3F8VXS-100" value="定义搜索空间" style="text;html=1;align=center;verticalAlign=middle;resizable=0;points=[];autosize=1;strokeColor=none;fillColor=none;fontSize=12;fontFamily=Times New Roman;fontStyle=1" parent="nyfXz0uPsz8sGl3F8VXS-99" vertex="1">
          <mxGeometry x="25" y="9.999999999999993" width="100" height="30" as="geometry" />
        </mxCell>
        <mxCell id="nyfXz0uPsz8sGl3F8VXS-101" value="" style="swimlane;startSize=0;fontFamily=Times New Roman;fontSize=12;strokeWidth=2;fillColor=#FFFFFF;" parent="9GA1_ZZ8TkLPx-6e-POV-17" vertex="1">
          <mxGeometry x="369" y="66" width="141" height="139.87" as="geometry" />
        </mxCell>
        <mxCell id="nyfXz0uPsz8sGl3F8VXS-102" value="初始采样" style="text;html=1;align=center;verticalAlign=middle;resizable=0;points=[];autosize=1;strokeColor=none;fillColor=none;fontSize=12;fontFamily=Times New Roman;fontStyle=1" parent="nyfXz0uPsz8sGl3F8VXS-101" vertex="1">
          <mxGeometry x="214" y="10" width="70" height="30" as="geometry" />
        </mxCell>
        <mxCell id="nyfXz0uPsz8sGl3F8VXS-158" value="" style="whiteSpace=wrap;html=1;aspect=fixed;fontFamily=Times New Roman;fontSize=12;strokeWidth=2;fillColor=#FFFFFF;" parent="nyfXz0uPsz8sGl3F8VXS-101" vertex="1">
          <mxGeometry x="210" y="54.25" width="79.38" height="79.38" as="geometry" />
        </mxCell>
        <mxCell id="mNow6uScxkL2q-1gWDm6-9" value="" style="shape=image;verticalLabelPosition=bottom;labelBackgroundColor=#ffffff;verticalAlign=top;aspect=fixed;imageAspect=0;image=data:image/png,iVBORw0KGgoAAAANSUhEUgAAAgAAAAIACAYAAAD0eNT6AAAgAElEQVR4Ae3dCbg8RXnv8R87sriggoiiJrK4xy0SRUFcYgJqiLgRiYlB1LhcBTRRo3LV5BpEE9yjRhRXgiLiggsKISKJewwgLpcgCCIBWUVQ4N7nBzNwOMw5p3umut+3ur/1PP/nnP+cme6qT1XXW9NLlURCAIExCKwr6WGSDpb0FUmnS7p08s+/+zX/ze/xe0kIIIAAAgggULHAxpIOlHSepP/X8J/f68/4syQEEEAAAQQQqExgT0k/aRj0Zw0O/Flvg4QAAggggAACFQisI+kgSdcuEPynAwJvw9vyNkkIIIAAAgggkFTAgfrwAoF/OgCY/vQ2GQQkrXSyhQACCCCAgL+tT4N26Z/eNgkBBBBAAAEEkgn4en2J0/4rDRy8be4JSFbpZAcBBBBAYNwCvmN/kRv+Vgr6y1/3Png6YNxtjdIjgAACCCQS8GN7y4N1V//3vkgIIIAAAgggECzgiXvaPOe/6MDA+2KyoOBKZ/cIIIAAAgh49r5Fg3rbz3ufJAQQQAABBBAIFPAUvm0D+KLv9z5JCCCAAAIIIBAo4Hn8Fw3obT/vfZIQQAABBBBAIFDAi/m0DeCLvt/7JCGAAAIIIIBAoIBX9Vs0oLf9vPdJQgABBBBAAIFAgbbBu9T7A4vMrhFAAAEEEECgVEBvux3kEUAAAQQQQCBQoG3gLvX+wCKzawQQQAABBBAoFdDbbgd5BBBAAAEEEAgUaBu4S70/sMjsGgEEEEAAAQRKBfS220EeAQQQQAABBAIF2gbuUu8PLDK7RgABBBBAAIFSAb3tdpBHAAEEEEAAgUCBtoG71PsDi8yuEUAAAQQQQKBUQG+7HeQRQAABBBBAIFCgbeAu9f7AIrNrBBBAAAEEECgV0NtuB3kEEEAAAQQQCBRoG7hLvT+wyOwaAQQQQAABBEoF9LbbQR4BBBBAAAEEAgXaBu5S7w8sMrtGAAEEEEAAgVIBve12kEcAAQQQQACBQIG2gbvU+wOLzK4RQAABBBBAoFRAb7sd5BFAAAEEEEAgUKBt4C71/sAis2sEEEAAAQQQKBXQ224HeQQQQAABBBAIFGgbuEu9P7DI7BoBBBBAAAEESgX0tttBHgEEEEAAAQQCBdoG7lLvDywyu0YAAQQQQACBUgG97XaQRwABBBBAAIFAgbaBu9T7A4vMrhFAAAEEEECgVEBvux3kEUAAAQQQQCBQoG3gLvX+wCKzawQQQAABBBAoFdDbbgd5BBBAAAEEEAgUaBu4S70/sMjsGgEEEEAAAQRKBfS220EeAQQQQAABBAIF2gbuUu8PLDK7RgABBBBAAIFSAb3tdpBHAAEEEEAAgUCBtoG71PsDi8yuEUAAAQQQQKBUQG+7HeQRQAABBBBAIFCgbeAu9f7AIrNrBBBAAAEEECgV0NtuB3kEEEAAAQQQCBRoG7hLvT+wyOwaAQQQQAABBEoF9LbbQR4BBBBAAAEEAgXaBu5S7w8sMrtGAAEEEEAAgVIBve12kEcAAQQQQACBQIG2gbvU+wOLzK4RQAABBBBAoFRAb7sd5BFAAAEEEEAgUKBt4C71/sAis2sEEEAAAQQQKBXQ224HeQQQQAABBBAIFGgbuEu9P7DI7BoBBBBAAAEESgX0tttBHgEEEEAAAQQCBdoG7lLvDywyu0YAAQQQQACBUgG97XaQRwABBBBAAIFAgbaBu9T7A4vMrhFAAAEEEECgVEBvux3kEUAAAQQQQCBQoG3gLvX+wCKzawQQQAABBBAoFdDbbgd5BBBAAAEEEAgUaBu4S70/sMjsGgEEEEAAAQRKBfS220EeAQQQQAABBAIF2gbuUu8PLDK7RgABBBBAAIFSAb3tdpBHAAEEEJC0g6QXSDpY0ockHS3pnyQdJGkvSZujhEBHAm0Dd6n3d1QcNjtyAfeV7jPdd7oPdV/qPtV9q/tY97UkBMIFbiXpNZJ+IGmtTvUqSV+QtEd4rsnA0ATWantd/X1ojpQnVmD3SR/pvnKtNus+132v+2ASAr0KbCDpZZIubNBQZzXkr0naudccs7MhC8xqY328NmRTytafwE6S/m3OvtR9sPti98kkBDoX2HKBxrq0U75G0oGd55YdjEFgabvq8/cx2FLGbgVeLOnqOYP/0rbuAYT7ZhICnQncR9JZBRrr0ob7QUkbdpZjNjwGgaXtqc/fx2BLGbsRcJ93eOG+1H2z+2gSAsUF7iDp7MINdtpZf4pBQPH6GtMGL+2oXU7b56yf3icJgXkEHPzd581qV4u+5j7afTUJgWICG0k6uaMGO23wDAKKVdfoNnR6x21z2kaX/vQ+SQi0Fegy+E/bp/tq99kkBIoIvKqnDtaDAG5mKVJlo9rIV3pqn9MO1j+9TxICbQTct3X1zX9p2/Tv7rNJCCwscGtJF/XYwTIIWLjKRrcBPx+9vAPs+v/eJwmBpgJ9Bn+3fffZ7rtJCCwk4Mkouu5Ml2+fQcBCVTa6Dz8soI16nyQEmgj0Hfyn/an7bhICCwk0meRn2uBK/mQQsFC1jerD60o6r8dBgPflfZIQWEsgKvi7L3bfTUJgbgFPOVkyqLfdlqfA9AFEQmAtAc8p0bZ9zft+5q9Yqzb4uwXcd7kPm7edlfgc0wbTFucW8LzTJRrhIttgEDB39Y3qgxtL+kkP7dX78L5ICKwmkCH4u991H05CYC6BiJurZg0WGATMVX2j+9Cekq7tcBDgbXsfJARWE8gS/N2XcrPqajXF31YV8ApUswJyxGsMAlatKv44EejyplVuqqKZrSWQKfi7n3YfTkJgLoHo61fLBxoMAuaqxlF9aJ0Oplh1O/S0rd42CYGVBLIFf7db95kkBOYS8FrUy4Nw9P8ZBMxVlaP6kAO1v62XuBzgbXhbBP9RNaHWhc0Y/N1Xuw8nITCXQJenUxcZSHySpwPmqs+xfcjX6xe5MdCf5Zr/2FpN+/I6+LtPWqRP6+qzXLZqX598YiKwV9JG7YOFQQDNtImA79j3Y3tt5gnwe/0Z7vZvIjzu92QO/u4n3YeTEJhLYHNJVzEImMuOD+US8MQ9nr3Pd0V7Hn8v5uMV/fzPv/s1/83vYZKfXHWXNTfZg7/7bvfhJATmFvhC4gEAZwLmrlY+iAACCwhkD/7uG913kxBYSOAJyQcADAIWql4+jAACLQVqCP7uF913kxBYWODrDAIWNmQDCCBQv0Atwd99NgmBIgK7FXqkyqPSLv9xY2CR6mYjCCAwQ6CW4O9HV91nkxAoJvDyjoN3qYHBUTwiWKzO2RACCFwv4ODvvqVUP9XldtxXkxAoLvDhSg4ABgHFq54NIjBagZqCv/toEgKdCGwo6VMMAjqxZaMIIJBPoKbg777ZfTQJgc4EGAR0RsuGEUAgkQDBP1FlkJU8AgwC8tQFOUEAgfICBP/ypmxxQAI+QLgcMKAKpSgIIHCdQG3B3/klIdC7AIOA3snZIQIIdChA8O8Ql00PT6CmQcAneERweA2QEiFQSMB9mfuILh/RK7Vtn311fkkIhAu4IR5dyYHDICC8uZABBNIJ1BT83dcS/NM1oXFnqLZBwPrjri5KjwACEwH3BbV88yf402zTCjAISFs1ZAwBBGYIEPxnoPASAvMKMAiYV47PIYBAnwIE/z612ddoBBgEjKaqKSgCVQoQ/KusNjJdi0BNg4CPS3KHQEIAgeEL+Fj3MV/qjvwut8M1/+G3x8GW0IMAL9Hb5QFSatsMAgbbDCkYAjcI1BT8Wd78hmrjl1oFGATUWnPkG4FhCRD8h1WflKYSAQYBlVQU2URgoAIE/4FWLMWqQ4BBQB31RC4RGJoAwX9oNUp5qhRgEFBltZFpBKoVIPhXW3VkfIgCDAKGWKuUCYF8AgT/fHVCjhC4bh7rWp4OOJJHBGmxCFQn4ODvY7fUU0Jdboe7/atrXmR4UQGfCTiqkgOUQcCitc3nEehPoKbg7z7QfSEJgdEJMAgYXZVTYAQ6FSD4d8rLxhEoK1DTIOB9ZYvO1hBAoLCAj9EuT9eX2jbf/AtXPJurV6CmQcD+9TKTcwQGLeBjs1SA7nI7BP9BN0MKN49ALYOAayQ9Yp4C8hkEEOhMwMekj80uA3eJbRP8O2sCbLh2gVoGAd+oHXog+V9X0laStpf0YEmPlvQkSc+S9BJJB0n6B0k+LfwJScdJct39UNLPJV0p6SpJ50v6kaRvSvry5ObUwyQdKum1kg6QtK+kJ0t6rKSdJN1D0h0G4jiEYrheSwToLrdB8B9CS6MMnQrUMghwoCH1J7CNpMdJOlDS+yfB+ooEnf4lkk6S9C5Jz5+cHbpNfyzsaTLo6zJwl9g2wZ+mikBDAQ8C/I2txIHX1TZOaFgW3tZO4LaSdpkE03dK+jdJFyVvC7Pa2E8lHSvpYEn7SPodSRu1o+DdDQV8LM6qgyyvuS9zn0ZCAIGGAtkHAb+RdKuGZeFtNxdYR9L9Jqfr3yzpi5LOTd6RLxpQrpZ0mqQjJL1S0kMl+TIGaX4BH4M+Fhetm64+T/Cfv2755MgFsg8CfE2Y1FzgTpL+XNJHJtfdu+p0a9ruBZI+KOlpkrh00LwtTd/pYzBrfRP8p7XETwTmFPDEHlkvB/gmM9LKAptJ2mNyM933E3fUWQKIzxCcKOmvJN17ZVb+skTAx2CW+luaD/dZ7rtICCCwoEDWQcA/LViuIX7cp2T9Lf9Lkn6dtHNe2lFn/v0nkt4haXdJtxhiYylQJh+D2eqQ4F+gYtkEAksFMg4Cjl6awRH/vrGkvSZnavxoXbYOeQj58RMPn5X0l5L8RATpegEfg5nql+BPy0SgIwEPAj6e6ID/UEflrGGz602eifcjeX4ULlMnPPS8+KY3Hwe71tBQOs6jj8Es9e064bR/xxXO5sctkGkQ8MYRVoW/fb5e0nmJOt4sASAiH6dIep4k328xxuRjMMJ9+T4J/mNsfZQ5RCDLIOBFIaWP2akfWftY8keulnfKY/q/z8K8RdIOMc0jbK8+BqPrmeAfVv3seKwCGQYBQ79T2xPXPFPStxJ0stGdfC37v3Yyp8ITRjLHgI/ByLoh+I81AlHucIHIQYDv0B5q8hz3r5vMlx/ZubLvxYLbmZNHCj274pCTj8WItkLwH3KromxVCEQNAjzF69DS7ST5mmqGOfYjOvSh7vNXkry4kRcwGmLysdh33RH8h9iSKFOVAn0PAi6V5GA5lHTryY19lwV0pH133GPenyca8voKWw6l4U7K4WPRx2RfdUvwH1gDojj1C3gQcGRPncBr6ue6rgSbS3qVpIt7cuurg2Y/qwdDB8uXS/L8DUNJPib7qHf3Me5rSAggkEygj0HAyQNY1W0TSS+T5Hno++g02UdO57MkPUOSF2aqPfmGVR+bXbY1gn/trYT8D16gy0HA2ZJ8g1zN6UmS3PF32VGy7bp8vyHpETU36knefWz6GO2i/RH8B9BAKMI4BDwIeF/hjsAdy30q5ru7pM8XNumio2Wb3QSwJq6flLR9xW3cWfcxWnoQ4L6E0/6VNwyyPz6B/SVdUyDo+dRird/8vYjMayUxR39cYG0SfLO8xws4eUKhmh8d9LFa4nKA+w73ISQEEKhUwKc2fYpzng7WN0v55iJfX6wxPV7SGXOWfR4vPjNfO8vodpGkAyVtWGPDnxyzPnbnfTpgKJdFKq0+so1AWQFf+z6h4VS2nljEzxbX+qjfnSQdQ+Cfa9CXMRhH5uk7ku5Z9lDsdWs+hn0sN5ksyIssuY9wX0FCAIEBCni9+idLOkiS1xL3cqJeUcwT4Hhe8dqn991bkr+9RQYN9j0sf08M9fwB9AU+tn2M+1j3Me9j332A+wL3Ce4bSAgggEB1AreR9FECPwOfDtvAZyVtVd2RQYYRQACBAQs8WtJPO+z4+UY/rG/0i9Tn+ZL2GPCxRNEQQACBKgQ8k9uhkrwC3CKdOp/Fr20beIckTyhFQgABBBDoWeD+kk4j8DPwCWwD35f0gJ7bPbtDAAEERi3g6Vu9wlvbb228H7PSbcDzBvyVpHVHfURSeAQQQKBjgfUkHULgZ+CTsA0cL+nOHbd/No8AAgiMUsB3+X8xYcdf+hsl26v3LIUfP919lEcnhUYAAQQ6EvDzyz8m+K/6zd9PQXxF0lGSDpvcHOkpkA+Q9GxJT5H0+5J+bzKxzTaSvByyB1Z3kXRfSTtPAtjTJT1nsmLi6yW9VdIHJHmufM8Q90vqYsW6uFrSvh0dB2wWAQQQGJXAnpIuI+DcEHB+IelESW+X9LxJ0L51zy3C17u9uJLr5tWSvFKcb4hz8OMMxvUGnoaXhAACCCAwp8CrRvyIn2ef+6ak90/mpPe3d39rz5z8WKafzthnMv3ssZIuGfGg4N2SfN8KCQEEEECgoYC/Yfo56zF9m/TKaz69/reSdq14EZrlVbyBpEdObt4c42Obn2a+gOVNgv8jgAACswW8+toRIwn+50j6Z0lPrXz52dk1OfvVu0l6gSSfHRjLo5z/XvHCWrNrkVcRQACBwgKbSfrSwIP/hZMFWHaRtE5hv9o255n0PK3uOxuuVlfzGaEfSPLgh4QAAgggsEzAy5Z+faDB/3JJH5kEO58SJ80WeMjkaYMrB9oOzmPmwNkVz6sIIDBegW0lnT7ATv//SnqupE3HW7Vzlfz2kl4+0LMCl0p67FwqfAgBBBAYmMD2ks4eWPD/rqSncQf4wi3Vd9D/0QAvC3n6YD8pQUIAAQRGK+AJaM4aUPD/V0mPG21tdlvwHScTEg3lsUKvYOl5HEgIIIDA6ATuIOlHAwj+7sg/NZlhb3SVGFBg3yj6l5L+ewBtx49+7hVgyC4RQACBMIEtJH2v8g78N5Mb1u4ZpjjuHW8k6aWSPP9+zU8H+IZHz/tAQgABBAYv4G9w/1Fxp+158A+V5BsXSfECt53Uh6+r1zoQ8GWN+8VTkgMEEECgOwFPFetlU2vtqD8kyXeok/IJbDdZCKnWtnWupLvmYyVHCCCAwOICfv7d06LW2EH7RsU/XJyALfQg4BUNaz3D5MmCGGD20EjYBQII9CvgJWprC/6+wc9rEnjZXFI9Ap5h0Y9h1nijoCfDYt6IetoaOUUAgTUEfLNWbcH/h5IesUa5+HNuAd8o+HpJvtu+pvb3eUnMGJm7bZE7BBBoIPD4yjpgr2n/95J8vwJpGAIPl3RmZYOAD7JWxDAaH6VAYKwC95HkqU9r+fblGfweONbKGni5bzVZj6GWtuh8HjLwOqF4CCAwUAHfzFTLNVg/i/1KSesPtC4o1o0Cz5BU02yCB9yYdX5DAAEE8gtsKOnfKvnm77Xa75GflBwWFPDjdl+tpH36RtQnFiw7m0IAAQQ6Fajljn8/1+/BCml8Al5o6NWSPKNj9ssCF0raZnxVRIkRQKA2AS9/m71Ddf5eWxss+e1EYCdJXrY5e5v1BFrrdiLARhFAAIECAveSdEXyztRTxj6zQFnZxHAEvDZFDZcEXjEcckqCAAJDEvBjc9kX+PHCMbsNCZ2yFBNw+z0q+eDVlyt8xoKEAAIIpBJ4a/LO008ksHJfqiaTLjM+xf625O34DEm3TCdHhhBAYLQCnuwn8zVUT6+61Whrh4K3FXh58vb84bYF4v0IIIBAFwJbS/qfxB2mT+tu0kXB2eagBf5UUuYlhp0/EgIIIBAm4EVXjksc/N/MndNhbWMIO36spMuStm/n6+5DQKYMCCBQp8D+STtHL/7y/DpJyXUygQdIOi9pO/elLRYNStZgyA4CYxDYVtLlSTtGz0Uw1uQ57x8maT9JfzOZT/49kv5F0hcl/YckrzvvoOYpkL1Ww+mSviLp4Mlned78pq3nbpJ8813G+1zecNOs8j8EEECge4FjknaIXv51DMlL3f6OJM9t79ULPyvprEJ14sHBgayIeJNmtJ2k8wv5lhxIeKrgR90kp/wHAQQQ6FBgz4QdoTtVT0E81ORv5TtPvtGfIsnLFpcMJLO29RNJrmvS9QIPTnrW66eSNqOSEEAAga4FNpd0dg/BZ1ZAWu21zw1wNT9/y99dkk/h/zzI3N8wD2Jt+hsOq8clXT/gdTfkkF8QQACBjgT+ISgQrRb8vyFp047K2/dmfQ1/78k1+0x3oB/OIOCGpuCppFdrjxF/8xTcd7ohh/yCAAIIFBbwHdF9nHpu04H+WNKWhcsZsbn7T4J+5mfPfSaAdL3AXyccBHyQykEAAQS6EPA1aH/TbhOcu36vb8qq/VnoR0g6NpnrSvXmywHcE3Dj0fWWZPXm+nnQjdnjNwQQQKCMwF8k6+z8CKJvyqo1+dr+SclMVwr8S1/3jYFeOId0/fK8frxyqU/07ydSMQgggEBJAXf4mW7886pof1iygD1taz1JT5f0n8mCRtug5UcESdcL+EbN45PV55OoHAQQQKCUwAHJOrhnlSpYj9txp+z7FdoG24zv9zwBTBZ0Y+O5taQzE9Wt29mGN2aP3xBAAIH5BLz06AWJOjfPVldT8iqEH0/kV2pA4dkGSTcK2CPTDbIetJMQQACBhQT8fHGpoLHodjwBjk+51pL2kXRhIr9F/Zd+vraBWB9t5jWJ6voiSbfto9DsAwEEhingb69Z5vv3df9a7nD289iemndpwBza7147gHRTAd/j8dVE9f7Wm2aP/yGAAALNBdyBZAlcNczx7+WRnyPpkkRuXdWfFxAi3VzgLpIuTlL/HjTvcPMs8goCCCCwuoBXQLsqSUf2vQpuarKXvxV3FXCzbderCJJmCzw1UTv49Ows8ioCCCCwssC7k3Ri/hbjWfIyJy/SM9Rr/SsNPBgArN4i35fk+HH9PXT1rPJXBBBA4EaB20v6VZIOLPv0s0+TdGUSq5WCdRevcwngxuNl1m9ene+HSdrFEbMyyGsIIIDALIEsdzN/R9IGszKY5LWXS/L0q10E2Ozb5CbAtRvhAyVlWNvBZ9G2WTu7vAMBBMYu4Fn/opaeXRr03HHeL2llrD9Zondpfsf2O48BNmucr0gyQGS54Gb1xbsQGLXAvkk6rFclrQVPjPSFJEaRgw4mAmrWQD0jX4YZID2oZ3bAZnXGuxAYpYAfYzs1QXD7liR/y86W/Hx/7fP4lxg0MBVwu5b5xwmOKde7J6YiIYAAAjMF/iBBR+VHD+89M3exL/6WpHMS+JQI4Itug8WA2rfFf03Qdr7ePtt8AgEExiLwpQSd1NsTYvupiB8lsFk0cJf4PMsBz9dAHyDpmgRt6CHzZZ9PIYDAkAXumaBz8o1/2yZD3lSSvzmVCJ61b8NPPOyZrH5qys5hCdrRh2oCI68IINCPwBsSdE7v7aeojffi+xA+l8Aly8Ah+5wMjSs26I1bJ1hbw5fYvMYHCQEEELhOwGu7nx0c6LyU6m8nq49Ms7lFDwIOl+SbREmLCfjplui6fPViReDTCCAwJIHdEnRKDjCZkhcfiu6oM+zfp/39zZ/gX6Z13kLSWcFtyzezZp5gq4w0W0EAgUYC7w/ukHxz1I6NctrPm54X7JEh8DsPvuGPa/7l29yfJGhfnsKahAACIxfYRJIXdokMOh9LVAdPSHK3dmR9+Dl/P+rnWSFJ5QV8NuUbwcfcSeWLxRYRQKA2gb2DOyKfYr5PEjTfpDXGVf28sI/n9vf0vp7hz/eEkLoVeHrwcecB5g7dFpGtI4BAdoFjgzuiTyYC+kywRclv/b7b+7uSfG+Fv817NrpHSXqQpO0kbSlpo0T2Y8uKr8H/LLi9HTA2dMqLAAI3CtxBku++Lxl42m7LE6RkSH8e7NDWbfn7/0eSnzP3GZ17JZ1KOUM9Z8qDb65cXo99/v/4TBjkBQEE+hV4TnAH9Nl+i7vi3u4s6ZJgi3k6/jMkvVnSIyStt2Lp+ENWAV9yilwu2MsE3zorDvlCAIFuBY4ODno7dVu8Rlv3DVkZpkBuOgDwPRPHSPq9RqXjTdkFPhp8DD41OxD5QwCB8gJeGvSywM4ny+nHWh7586OSR0i6X/mmwBYDBXzTZdPBXxfv+2Bg2dk1AggECfiGsC46lKbbzLA0qVf4uzzYoYmX52/nju2gA6WH3X4nsA1ewOWjHmqYXSCQTOBNgZ2Og+5mwR4+9X9ioEGTwH+mpMcEO7H77gWeFdwOd+6+iOwBAQQyCZwW2OlkOO3oa59NgnDEe3yd/60JBkmZ2uuQ8+LpgSPnn/BCYCQEEBiJwF2Dg99jg5090c2pwQYrDSx+KIlvZMENJGD3noRppTbR9eunBJSXXSKAQJBA5I1v5ya45viUwM52tc7cN0byWFbQQRG8W6+EuVrb6Ppv/lJAQgCBEQj4MbKuO5SVtu97DyKTr/37G89K+Yt63ZdF/GQGabwCke3yBeNlp+QIjEvgF4EB8HeDqZ8cWPaVBhevCzZh9zkEfC1+pTbS9eufz0FALhBAoEsBzwPfdWey0vbPD15oxt/+/yuw/Mtd/Gz/vl1WNtuuSuDhgW3zSkmbVqVFZhFAoLVA5Frk0Xf/Z/v2/8LWtccHhizg6ZwjnwZ44pBxKRsCCEiHBn7L8BKoUcnf/r8XWPbl3/7/LgqC/aYW+HBgG6VNpm4aZA6BxQVODupgfLr7totnf+4tPCmo3MsDv//vVftICMwS8CB5Vpvp47VPz8oQryGAwDAEvAa5r/X10Zks38fXggnduS3PU8T/vQLi+sEW7D6vwG0keZW+iLbpmSdJCCAwUIEHBXUs7sz+JtD0loEDn6Ud+X9L2jzQgV3XIfCvgcepjxUSAggMUOAvAzuWXQM99w4s93QA4Ol9dwk0YNf1CLw0sL0+tB4mcooAAm0E3h/YsWzRJqOF3/uJwHJPBwBvLlwmNjdcgXsEttfnDJeVkiEwboFvBHUsZwey+9nmK4LKPQ3+Xnhp40ADdl2fwBlBbfZt9VGRYwQQaCJwSVCn8pkmmevoPXsFlXka/K+W9MCOysZmhyvwsaB26/sPSAggMDCBOwR1KA6Ekc8XR3Wk0wEAj/wN7EDqqTivDDpePU04CQEEBibwiCRDCCoAACAASURBVKAOxYHwqUGWPu1+WWC5/TiXV3kjIdBWwLPyTQeRff/cpm1meT8CCOQW8JzzfXck0/3tGETzhMAyu+z/HFRudlu/QOTywI+rn48SIIDAUoE3BgVD34DnOc4j0luCyuzg72//d4soNPschICnrr48qP36MUQSAggMSOBTQZ2JnzyISl8IKrMHAO+NKjT7HYzA14Pa7+GDEaQgCCBwncDpQZ1JZCCMepTKAwDu/OfAW1TgfUHH7LcXzTifRwCBPAI+Bf/roM7kRYEMlwaV2VP+khBYVOAlQe3X64VEXbZb1IzPI4DAMoHIRwAjp789N6gD9f0WJAQWFXhMUPv1Gaw7L5p5Pj8cgXUlPUzSwZK+Ismnk6O+XblxRv5zuV1+O9jDLvbJnO4TaObVzaJS1GWPh0QVmP0OSmDrwOP23skliUk3xsHOYpKfoz5Q0nmBDTEy2Dfdt33slHW6192C6u+s4E7ES+82rcNS73OZfQc3CYESAhcEtGEfC1kXBSImNevTFo5Je0r6SVDjK9UZ970de9ktW3paUD2eGAyxf0C5WfQnuNIHtvuopYH/IKEjMalZ8F8a91rHJH97OUiSly9duiF+b+ZhN/tl+hb4wqC69DfwyBRx6eMBkQVm34MTODLo2I2avXNWBRKTmsWelWJ045hkaD8DutKGeL25jR2zDAJeF1SnH511NPf8Wp/PUp/ac9nY3fAF/BhtRL+7XxJaYlK5+l8zJvmba0RjG+o+7ZkhvSuoXt+doPB9zqnOWuoJKnxgWXhT0LGbZTZAYlLZmLxiTPL1FU77l8W2Z4Z7Aj4R1Im484pO/gbh2Qi7HmR6H9mfBomuC/bfXuA1PbTdWceGzxpGJ2JS+X5rZkzynZXc8Fce2weWXaOfDvDNeLMO8q5fW3G02XPPsn3H86p73v8H91wmdjcOgRcHHbteRyMyEZO667NvFpP8CFvXwWDM27dvZPpmUP0eEFnoZft+ZkcGHlH/6bJ98V8ESgn8eUftdq3++AOlCjDndohJ3cbkG2KST1vynH+32PaNPD38n0GdSJYbiaZ90HMlXV3Ywt/QSAh0JfDHhdvrWoF/+vdPdlWgBtslJnUbj1zHN8Qkz2Q3rXR+dmdh56h0WlAde/6BbOmPCl0OuFjSk7IVjvwMTuBRQceuZzqNSsSk7uLQ0hh/XUzydLZLX+T3bjzsHJV+HFTHu0cVeI393knSIs9XHyfpbmvsgz8jUELgQUHHri8bRiViUjcxaHlsvy4meaS3/A/8v7xJ5Ig66gbPR0T1IA33u6skz1VwRYNjwJcOPpN4itSGReZtlQls16BtdtFf/yjQiZhUPv7MaiPXxaSoBVNmZWjIr9k5Kv0sqBO5f1SBW+53c0lPmczg+BFJfmric5L8+yGSHi/pli23ydsRKCGwZdCxe36JzM+5DWJSPwOA62LSWFf163uwYeeoFLWgyN2jCsx+ERiIwEZBA4ArA/2ISf0MAK6LSWD3iB10UF0S1In42wsJAQTmF9gw6Ni9av4sL/xJYlKPMYnTLf1gR14CaHKNu4szIl7PnIQAAvMLbBE0ALhw/iwv/EliUo8xiRsu+sGOvAnQB3MXAX6tbd574a6ADSAwboFtg47dMwPZiUn99NfXxSQeuegHO/IxwKinAHYJ7ETYNQJDELhX0ADglEA8YlKPMYlJF/rBHuNEQJ7FjIQAAvMLPCRoAHDy/Fle+JPEpB5jEtMudo99w7SLCx8a823g60GdyLPnyy6fQgCBiUDUTIBfDKwBYlLPMYmFF7oFv2HhhaCDKuqa2l8HlZfdIjAUgScGDd6PCgYkJvUYk1h6sTvsmy29GHBgHRPUiXgSHRICCMwv8IygYzd6NUBiUs8xaU9JXtp0rTu7+XtzI3vaNTp5utuIejssuuDsH4HKBbyCZcSx+/YEbsSk8nW/akw6KKixRTTwPvZpzwzpPUH16jMPJAQQmF8g6lT4G+bPctFPEpPKDgJWjUnrSDo8KFj0EZD73Icd7ZkhvSmoTk/KUHjygEDFAn8bdOz+TRIzYlK5AUCjmGRwjxK4HDAfvN3slyX4+zg+IKgTiZz9MEn/RTYQWEjgiKBj938tlOuyHyYmzReLpl9454pJvv4SNYHMNOO1/bRXhmv+yw+/pwV1Il6EiIQAAvMLfDvo2H3W/Fnu7JPEpPYDgYViku/E9DUoP8deWzDuM7/2sZO9Mqadg+rvGkl+ppeEAALzCVwWdOxm/CJjQWJSs1hcNCa5E/fsTJ6i0c+U+9TuWFdscrldfjvYwy7Zg9zdgjoRD8JuO1+/x6cQGL2AF9Pq84vM0n3dJ7k+MenGtlFjTErevIaVPa8pHnVPx8OHRUlpEOhNwGtpLA3Kff3uvuIWvZWSHSGAQOcC5wd1Jvt3XjJ2gMAwBfYNOmZ93ZiEAAIDEvhOUGfiSYhICCDQXiBqVbzj2meVTyCAQGaBTwcNAH6UGYW8IZBY4OigY/YdiU3IGgIIzCHwlqDOxNctbzNHfvkIAmMXODXomH3x2OEpPwJDE/DSvH3dRLR8P48ZGiblQaBjgfUlXRl0zP5hx2Vj8wgg0LPATkGdiQcDL++5rOwOgdoFIo/Xu9eOR/4RQOCmApsFPgoYvbb4TSX4HwL5BTxoXn4mrY///1qSzz6QEEBgYAJnBHUqZw3MkeIg0LXAF4KO1R90XTC2jwACMQJRdxX7m8tWMUVmrwhUJ7CBpMuDBgB+WoiEAAIDFHhdUKfiAcAeA/SkSAh0IfDQwOPUS4eTEEBggAJPCexYvEQyCQEE1hZ4ZeBx6tkHSQggMECBHQM7ls8O0JMiIdCFgGfi6+OGv1n7cB9BQgCBAQp4Ba1fBHUuF0vacICmFAmBkgI+Rq4IOkZ/VrIgbAsBBPIJHBPUufjbxhPzcZAjBFIJePXMWd/M+3jtY6kkyAwCCBQXOJAOprgpG0SglIDvlekj2M/ax3NLFYLtIIBAToEHB3Ywv5TkCYlICCAwW+D7gccn1/9n1wmvIjAYAc/ydVlgJ7P3YCQpCAJlBR4QeFyeV7YobA0BBLIKRM0y5tOOTDSStVWQr2iBQwIHAEdEF579I4BAPwKvCOxoPNf4Fv0Uk70gUI2An9A5J/C4fF41UmQUAQQWEtg5sKPxWYD9Fso9H0ZgeAK7BR+T9xgeKSVCAIFZAn7WOPI+gONnZYrXEBixwHsDBwBc/x9xw6Po4xQ4MrDDuUbSHcfJTqkRuJnARpIuCjweuf5/syrhBQSGLfCMwA7HlwFeMmxeSodAY4E9g49Frv83rireiMAwBG4j6TeBHc/Xh8FIKRBYWODjgcehB+O/vXAJ2AACCFQn8GU6nurqjAwPS2BrSVcGHof/PixOSoMAAk0FXhjY8fibxz82zSjvQ2CgAm8MPgbdB5AQQGCEAtsGdz6/kuRvQCQExijgy3CRT+P4EuCWY4SnzAggcL3At4MHAYdSEQiMVODVwcfe50bqTrERQGAi8KrgTshnAXgkkOY4NoFNJV0QfOz9ydjQKS8CCNxU4K6Srg3uiN5y0yzxPwQGL+DHYH0fTNS/yyV5EEJCAIGRC3wpsCNyB+i7oLcZeR1Q/PEIeCbOnwYfcx8aDzclRQCB1QSeFtwZeRDwttUyyN8QGJDAvgmOt8cNyJOiIIDAAgKeivTC4E7JZwHutEAZ+CgCNQh41b8fBh9rP5e0fg1Y5BEBBPoR8N34Udcjp/t9ez9FZS8IhAnsk+A4456bsOpnxwjkFLhvgo7pKkl3zslDrhBYWGBzSecmOM5+d+GSsAEEEBicgOfnn34bj/r5jsGpUiAErhd4U4Lj63QqAwEEEJglsF+CDspnATxDIQmBIQncK3jxremA3sc4CQEEELiZwCYJJidxR/XRm+WMFxCoW+ArCQbXvvzgG35JCCCAwEyB/52go/IgYK+ZueNFBOoTyPCYrY+pA+ujI8cIINCnwO0kXZFgEPA/krbqs+DsC4EOBDZLMOmPg/8vJDkvJAQQQGBVAT+O504j+t+nVs0lf0Qgv8DBCY4jH8evzU9FDhFAIIPAb0m6OknH9WcZQMgDAnMI3EPSrxMcR7+U5DN7JAQQQKCRwBEJOi5/c7mYuQEa1RdvyiXgmfZOSnIM/WMuGnKDAALZBR6YpPPyIMCLFa2THYz8IbBE4P8kOX58BoLJtZZUDL8igEAzgeOSdGIeBDy/WZZ5FwLhAr+fYIltHzP+975wDTKAAAJVCuyUaADg65h3r1KRTI9J4I6Szk9y3Fwjaccx4VNWBBAoK3Bkks7M32Z8TdWrqZEQyCiwnqTjEx0vn8iIRJ4QQKAege2STGE6PaX5snroyOnIBA5KFPz97f/+I/OnuAgg0IFAlnkBPAi4ko6tgxpmk4sKPFKSg+50oBr9892LFojPI4AAAhbYUtJliTo3z2l+V6oGgSQCPj4yLPM7HXRcKOm2SWzIBgIIDEDg1YkGAO7ovKwpndwAGlblRdhA0peTHRvPrdyU7COAQDKBTSX9LFlHd7KkWyRzIjvjEfDcFB9Odkx8ixtlx9MAKSkCfQr8RbLOzmcCjpHku69JCPQt8OZkx8O1kvzoLgkBBBAoLuBvPCcm6/Q8COCGp+JVzQbXEPDTKNNr7ll+MunPGpXGnxFAYDEBTyziO/GzdHrTfPgRLBICfQh4gappu8vy86LJzbp9lJ99IIDAiAWy3RA47YSfPeI6oej9COyebF6Madt/YT/FZy8IIDB2gQ0lnZrwW5CXMH782CuH8ncm8HuSPCX1NOhm+fld7oPprM7ZMAIIzBB4WKIFT5Z2xFdIckdNQqCkwD0l+fn6pW0ty+87lywo20IAAQSaCLwzaYd4gaQdmhSA9yDQQGAbSWclbeuHN8g/b0EAAQSKC9xK0jlJO8YzJXllNhICiwjcWtJ/JW3jZ0hy/kgIIIBAiMCjk14K8OlZd9x0kCHNYhA73UjSCUmD/68l/e4glCkEAghULfB3STtJDwI8b8HGVeuS+QgBLzudaSns5fcb7B+Bwj4RQACB5QLrS/pa4kHA0dwlvbzK+P8aAm9J3J49+yUJAQQQSCNwF0mejGT5N5Us/39PGikykl3grxK3Y9+MuEV2QPKHAALjE3hS4o7TA5HXj69KKHFLgX0S39PyG0kPbVke3o4AAgj0JpD10cDpmYgX9CbBjmoTeKQk31w3bSvZfv51baDkFwEExiXgG+6+l7gTvUaSO3oSAksFbi/p3MTt9lhJXoyLhAACCKQW2E7SLxJ3pp674HapBclc3wKfSd5ePUAhIYAAAlUI7JZ00ZTpad1PV6FIJvsQeFHi4O/1LXbpA4F9IIAAAiUFnpO4Y/VAwB0/adwC90u6vPV0oPqycVcPpUcAgZoFDk08CLhS0u/UjEveFxLYRNL3E7dPz0VAQgABBKoVWE/S5xN3sqdL2rRaXTK+iIDnhph+087282OSPBshCQEEEKhawIsGnZa4s/3nqnXJ/DwCT07cHo+TtOE8heIzCCCAQEaB35bkZXqzfdOa5uepGdHIUycCd0o8a+W3JG3eSanZKAIIIBAo8GBJlyYdBPxc0i0Dbdh1fwIfSdoGfyxpy/4Y2BMCCCDQr8DDJf0yaQd8SL8U7C1AYOekbe88Sb8V4MEuEUAAgV4FHivpqoQdsfPkSYxIwxTwTXXfTtjuLpF0/2GSUyoEEEDg5gJ/lHSiIJZavXldDeWVZycM/h50etIsEgIIIDAqgb0leW7+6Y14WX76DAVpWAJ+EuX8ZG3Nbd9PI5AQQACBUQpk/FZ2qqT1R1kbwy30m5MFfw92WZlyuO2NkiGAQEOBA+icG0rxtnkEdky4zO8b5ikIn0EAAQSGKPD3yQYBF0raYojQIyxTtpkoP8jSviNshRQZAQRWFTgs2SCAxwJXra4q/vjoZG3qi5I2qEKOTCKAAAI9Cvi6u5fpzXIzoB/PYnKgHhtAB7v6QqL25EcQmeWvg0pmkwggMAyBW0g6KVGn7fsTSHUK3DdROzpH0h3qZCTXCCCAQH8CvvZ+dpLO+yyeCOiv4gvv6QNJ2tC1kh5VuGxsDgEEEBiswK6J5gjwfAWkugS2SXTn/8F10ZFbBBBAIF7Aj0pluB/AK7SR6hJw0M3Sdljat662Q24RQCCBgO+WdvDN0JH7jASpDgHfaHdxgnbjRa92qIOMXCKAAAL5BNyBZlg90E8nkOoQ2D9B8Peg1bNckhBAAAEEFhB4XoIO3TdyeUY5Um4BP0rqGzejzxr5eX8SAggggMCCAl7G9bsJOvW3LlgOPt69gBfXiQ7+V0u6d/dFZQ8IIIDAOAT8GFV0x36eJA9GSHkFjk7QTt6Zl4ecIYAAAnUKZJgl8JF10o0i117y98rgAYBvPrz9KLQpJAIIINCjgK/B/ya4g+fbXY8V3nJXfxbcNnyG6sCWeebtCCCAAAINBd4W3MmfL2m9hnnlbf0KRK/692NJPPPfb52zNwQQGJHA7SRdFjwI8ApzpFwCbhfRZ4eemouE3CCAAALDE/Dd+JE3BL57eKTVl+i5wW3iDM4MVd+GKAACCFQgsJ0kP5cfNQi4gAWC0rWSEwLbg9vhi9KJkCEEEEBgoAKfCe7wHztQ1xqL5YV/rglsD7+QtGmNcOQZAQQQqFHgMYEdvr/xvbdGtIHm+SXBbeHvBupKsRBAAIG0AqcGdvxnp1UZX8aOC2wHV0naenzklBgBBBCIFXhOYMfvswB3iS0+e5fkFSMjF4s6jFpAAAEEEOhfwMu+Rs789oz+i8welwnsFDwIfPiy/PBfBBBAAIGeBI4JDADv6qmM7GZlgZcF1v85ktZZOWv8BQEEEECgS4FnBgaAU7osGNtuJBD5NMihjXLImxBAAAEEOhG4jaRfBw0CPBfBFp2Uio02EfDKjBcF1b3vAXlYk0zyHgQQQACB7gQi54Dfo7tiseU1BO4XGPx/yun/NWqHPyOAAAI9CDw7MBD8fQ/lYxezBV4YWO//ODtLvIoAAggg0KeA11+PmgnupD4Lyr5uInBk4ACA0/83qQr+gwACCMQJfCcoGHgimI3jij3qPZ8XVOeXsvDPqNsdhUcAgWQCbw8KBr4Z7L7JLMaQnTsG1rfvOSEhgAACCCQR2DswIOyZxGBM2dglsL5fMSZoyooAAghkF/C0vP42HvHvpdlxBpi/vwiqa7cvZv8bYIOiSAggULeAZ2aLGAD8U91sVeb+DUF17amnN6pSjEwjgAACAxb4l6Cg8OUBm2Yt2ieC6vrErCDkCwEEEBizwP8KCgpnjhk9qOz/GVTXrw8qL7tFAAEEEFhF4FFBQcFzEGy4Sr74U1kBL8ATtQTwXmWLwtYQQAABBEoI3DVoAOD7DnYsUQC20Uhgm8B69vTDJAQQQACBZALrBS4MtHsyiyFnJ+oRQC/+tMmQYSkbAgggULPAD4O+Hfr+A1I/AvsG1bEXACIhgAACCCQVODYoOLwxqccQs/XaoDo+foiYlAkBBBAYikDUlMDvGApgBeX4h6ABwLsrsCGLCCCAwGgF9g8KDoePVrz/gr8nqI6Z8bH/umaPCCCAQGOBJwcFB09MQ+pH4KNBdfyUforHXhBAAAEE5hH4g6DgwApx89TWfJ/5dFAdu22REEAAAQSSCnihloj1AL6a1GOI2TohqI5ZBGiIrYkyIYDAYAQeEBQcvjMYwfwF+WZQHd8/Pw05RAABBMYrsH1QcPD8A6R+BE4PqmO3LRICCCCAQFKBOwYFh3OTegwxW56QJ+Iyj9sWCQEEEEAgqcAtg4LDJUk9hpgtW0cMANy2SAgggAACSQW8HkBEcLg6qccQs2XriDp22yIhgAACCCQWiAgO3iepHwHqtx9n9oIAAghUJ0CAqK7KWmWY+m3FxZsRQACB8QgQIIZd19TvsOuX0iGAAAJzC1wZdI1487lzzAebCtg4YgDgNkVCAAEEEEgu8POgILFDcpchZM/GEQMAtykSAggggEBygR8FBYlHJncZQvZsHDEAcJsiIYAAAggkF4iaKpblYrtvGDaOGAC4TZEQQAABBJILfDkoSLAgUPcNw8YRAwC3KRICCCCAQHKBw4KCxDWStkpuU3P2bGvjiAGA2xQJAQQQQCC5QNRpYgemNya3qTl7to0I/t4nl3dqbjnkHQEERiOwe2Cg+JWkbUcj3V9BbWrbqAGA2xQJAQQQQCC5wN0CA4UD1FGS1kluVFP2bGnTqODv/bpNkRBAAAEEkgs4YFweHDBek9yopuzZMjL4uy0xoKupxZBXBBAYtcCxwUHjWkn7jLoGyhTehraMHAC4LZEQQAABBCoReElw0HDAcuDyt1e+PbZvNDazXXTwdz26LZEQQAABBCoRuHeCAcD0W6uvX3NjYPOGY6voa/7TuvNPtyUSAggggEBFAuckGgT4DnY/xsY8ASs3INvYKPJu/6WB37+7DZEQQAABBCoTeFeiAcA0sHgiG89m5+fKPa+9F7cZ4yqCLrPLbgNb2CRqkp9p3cz66TZEQgABBBCoTOCBCQcAs4IMr8Xe5Leav9sQCQEEEECgQoGohYFWCyr8LW/AX1o3LABU4QFPlhFAAIGpwH6cBQh9hG5pQK3td7cdEgIIIIBApQKbSbqYQQCDgJZtwG3GbYeEAAIIIFCxwItbdv61fVMlv+UvKbjNkBBAAAEEKhdYX9KpDAI4C9CwDbituM2QEEAAAQQGILBbw86fb9Plv03XZuq2QkIAAQQQGJDAkQwCOAuwRhtwGyEhgAACCAxMwFPMXrFGAKjt2yr5LXfGwm2DKZsHdtBTHAQQQGAq8CoGAJwFWKENuG2QEEAAAQQGKrCxpDNWCAB8my73bbo2S7cJtw0SAggggMCABfZIssxsbUFyqPn1ksNuEyQEEEAAgREIHMBZAC4FTNqA2wIJAQQQQGBEAl56dqjfailXs7p1GyAhgAACCIxMYB1JH2AQMNpBkOvebYCEAAIIIDBCAc/49lkGAaMbBLjOme1vhAc8RUYAAQSWCmwi6WsMAkYzCHBdu85JCCCAAAIIaAtJpzEIGPwgwHXsuiYhgAACCCBwg8CdGQAMfgDgOiYhgAACCCBwMwHunm9293ytTjercF5AAAEEEEDAArUGNvLdrO5o5QgggAACCMwUIJA2C6S1Os2sdF5EAAEEEECg1sBGvpsNXGjhCCCAAAIIzBQgkDYLpLU6zax0XkQAAQQQQKDWwEa+mw1caOEIIIAAAgjMFCCQNguktTrNrHReRAABBBBAoNbARr6bDVxo4QgggAACCMwUIJA2C6S1Os2sdF5EAAEEEECg1sBGvpsNXGjhCCCAAAIIzBQgkDYLpLU6zax0XkQAAQQQQCAqsI1NHuex1TjlRQABBJILEJj6qSCc+3FmLwgggAACDQUITA2hFnwbzgsC8nEEEEAAgbICBKaynittDeeVZHgdAQQQQCBEgMDUDzvO/TizFwQQQACBhgIEpoZQC74N5wUB+TgCCCCAQFkBAlNZz5W2hvNKMryOAAIIIBAiQGDqhx3nfpzZCwIIIIBAQwECU0OoBd+G84KAfBwBBBBAoKwAgams50pbw3klGV5HAAEEEAgRIDD1w45zP87sBQEEEECgoQCBqSHUgm/DeUFAPo4AAgggUFaAwFTWc6Wt4bySDK8jgAACCIQIEJj6Yce5H2f2ggACCCDQUIDA1BBqwbfhvCAgH0cAAQQQKCtwmaSI4LR52WKk3prLGmHsuiUhgAACCCAwU+AHQcFph5m5GeaLLmvEAMB1S0IAAQQQQGCmwAlBwemRM3MzzBdd1ogBgOuWhAACCCCAwEyBjwQFp5fOzM0wX3RZIwYArlsSAggggAACMwUOCQpOX52Zm2G+6LJGDABctyQEEEAAAQRmChwQFJyukbTVzBwN60WX0WWNGAC4bkkIIIAAAgjMFHh6UHByQHzjzBwN60WXMSL4e5+uWxICCCCAAAIzBXYNDFC/krTtzFwN40WXzWWMGgC4bkkIIIAAAgjMFNg+MEA5MB4laZ2ZOav7RZfJZYsK/t6v65aEAAIIIIDATIENJF0UHKheMzNndb/oMkUGf9ep65aEAAIIIIDAigIfDg5W10raZ8Xc1fcHl8VlihwAuE5JCCCAAAIIrCrw5OBg5UDpgOlvzTVfDnDeXYbo4G9P1ykJAQQQQACBVQU8V/2VCQYBDly+bl7jjYHOc/Q1/+kZB9flmNZaWLVx80cEEEAAgdUFPpdkAOAg5jvn/fhcDfMEOI/Oa+Td/tPAP/3puiQhgAACCCDQSGC/RAOAaSDzBDqeRc9T6Xo+fS+qE/nN1vt2HpwX58l5i5rkZ2o066frkoQAAggggEAjga2TXLueFdB4rfkNhb7/wHVJQgABBBBAoLHAyQnPAhD8mwd/W7kOSQgggAACCLQSeDEDgNBH90oMdlyHJAQQQAABBFoJ3ELS2QwCqh0EuO5chyQEEEAAAQRaCzyLAUC1AwDXHQkBBBBAAIG5BNaVdAqDgOoGAa4z1x0JAQQQQACBuQX2YABQ3QDAdUZCAAEEEEBgYYETGARUMwhwXZEQQAABBBAoIvAQBgDVDABcVyQEEEAAAQSKCRzJICD9IMB1REIAAQQQQKCowJ0l/ZxBQNpBgOvGdURCAAEEEECguMBDJV3FICDdIMB14rohIYAAAggg0JnAnzEASDcAcJ2QEEAAAQQQ6FzgEAYBaQYBrgsSAggggAACvQh4khmvM19ivnq2Mb+j64AJf3pp8uwEAQQQQGAqcEtJpzEICBsE2d51QEIAAQQQQKB3gbtLuoBBQO+DAJvbnoQAAggggECYgAMRZwLmP43f9hKIrQn+Yc2dHSOAAAIILBXwqWjuCeh+EGBjTvsvbXn8jgACCCAQLuCb0Xg6oLtBgG254S+8mZMBBBBAAIGVBPxMOpMFlRsI2JLn/FdqbbyOAAIIIJBKwLPSMW3w4oMAGzLDX6qmTWYQQAABBNYS8Lz0LCA0sUg9WQAAAO1JREFU/yDAdsztv1Yr4+8IIIAAAmkFvDyt16hve7f7WN9vK5b0TducyRgCCCCAQFuBPSSdwkBgxYGQbWxEQgABBBBAYHACvov9WZLOZiBww0DAFjbhDv/BNXcKhAACCCCwXOAWkl4s6WRJ145wMOAyu+w2sAUJAQQQQACB0QlsLWm/yURCVw54MOCyeSIfl9VlJiGAAAIIIIDARGBzSU+W9GFJFw1gMOAyuCwuk8tGQgABBBBAAIE1BDaQtL2kXSQ9XdIBk5kGPyLpeEk/kHRZ4CDB+3YefNe+8+SZ+pxH53XXSd5dBhICCCQU+P/XKa87nnQgpwAAAABJRU5ErkJggg==;" parent="nyfXz0uPsz8sGl3F8VXS-101" vertex="1">
          <mxGeometry x="29.499999999999993" y="53.63000000000005" width="80" height="80" as="geometry" />
        </mxCell>
        <mxCell id="mNow6uScxkL2q-1gWDm6-11" value="配置设置" style="text;html=1;align=center;verticalAlign=middle;resizable=0;points=[];autosize=1;strokeColor=none;fillColor=none;fontSize=12;fontFamily=Times New Roman;fontStyle=1" parent="nyfXz0uPsz8sGl3F8VXS-101" vertex="1">
          <mxGeometry x="34.5" y="10" width="70" height="30" as="geometry" />
        </mxCell>
        <mxCell id="nyfXz0uPsz8sGl3F8VXS-105" value="" style="swimlane;startSize=0;fontFamily=Times New Roman;fontSize=12;strokeWidth=2;fillColor=#FFFFFF;" parent="9GA1_ZZ8TkLPx-6e-POV-17" vertex="1">
          <mxGeometry x="548" y="66" width="139" height="139.87" as="geometry" />
        </mxCell>
        <mxCell id="nyfXz0uPsz8sGl3F8VXS-107" value="" style="swimlane;startSize=0;fontFamily=Times New Roman;fontSize=12;strokeWidth=2;fillColor=#FFFFFF;" parent="9GA1_ZZ8TkLPx-6e-POV-17" vertex="1">
          <mxGeometry x="903" y="66" width="139" height="139.87" as="geometry" />
        </mxCell>
        <mxCell id="nyfXz0uPsz8sGl3F8VXS-108" value="构建获取函数" style="text;html=1;align=center;verticalAlign=middle;resizable=0;points=[];autosize=1;strokeColor=none;fillColor=none;fontSize=12;fontFamily=Times New Roman;fontStyle=1" parent="nyfXz0uPsz8sGl3F8VXS-107" vertex="1">
          <mxGeometry x="30" y="10" width="100" height="30" as="geometry" />
        </mxCell>
        <mxCell id="nyfXz0uPsz8sGl3F8VXS-172" value="" style="shape=image;verticalLabelPosition=bottom;labelBackgroundColor=#ffffff;verticalAlign=top;aspect=fixed;imageAspect=0;image=data:image/png,iVBORw0KGgoAAAANSUhEUgAAAGQAAABkCAYAAABw4pVUAAAMmUlEQVR4Ae2dWchGRRnH/7ZZVhcZ5tICUWQmppVmRTdtF9EuBWlkGmRamZKWFwV11QIVRftGtFtpWVlZtlxYBJaGKGV24ZKCFS7Zvscv5g/PdzzvOTNn/97vPPBy3vecOTPPMjPPMs/MK62wcmDlwMqBlQMrB1YOrBxYObByYOXAQjnwQknntHwos8IEHLiPpD9I+m/L54+S7jsBPnu+iVNaBBEF9Yo9z60JGPCzJJDfSLprTXt3kXRdKvPTmufrrQE5cFQYHW9uqJdnHimPbSi3PurJgY8kRv9L0kMa6nqQJMoglA81lFsf9eBAVOZfy6jn60kgq3LPYFZJEfTE0ZI+HKahZ2dU8KxQnlFCHXU6J6Oqtci9Jb1E0gWSbg+MZQq6IZOxMP/6yru3SfqqpBMk7bfX2LyPpEcUEv14SZ+RxDRjpRyvN0k6raBOyvJOrMPfaePTaeQUVPl/mqBtVwEIfzQx4geSXtDSq58h6fs1jLtF0iclvUzSw3pwgHdPSnVRp4Xi68WSntZQP6MNGqCFdzAudo1QojBMMNdrJb1e0v6B8EdK+m6FQX+X9EVJz5V0j1B2qK/U+TxJX5JEWxHH70g6NDQErm8Ifk0suyuEUhUGDhrzdiTkz2n0vEvSP8Iz7r9HEibrVPBgSe+VRNvGESG9M+EY7/McWux08nvRQkEY9hNA9heSDpKEgn6lpKsC0SaeK/7C+yQdMJUUatqh7fcH3yXix3dwhwZogSZoc5lFCgVhfCAgebWkQ2oIf3KaKv6Zyl4u6diacnPdeoyknyTc/i0J3fKcGn3xgEoH+7gkQjaLgE0jowm5hybTczFEBGTBCbMYHJtgsSMF09bDl/kVRPcKQGvUKaVm/mh8sjmI0mOe3SuAc2kzGrN9MYCN7lGC8tsrcGqg+/lLIhrHyUMXiwS9MhXcTdIHk1HB96kAGm05Qvvi4mQ4fR4lTV5vH4Z9I8WyovP2uNBuXPs4TBKLWDmR4S44QaPphfbFAV6tHSmCgkPDvpL+lphwfKicUYEPwSeOEIKTMOyvI3n80Ej90ByjDwG1+b86foWz12Y2NmH7wBQ+Yf08wlMlvarC+Pg8fr97KvuUeFMS8/65G/ykStGNP6HNC2DQvFggHOJhjC3fFc5O9ZBdMjQ4kvy6HhVDm+kkzLJIIFDoYN2lPT1XYkznS3r1CJS+NtXdJ2aG8wiNCAWaoX1x4KgtQxlFWwL4LvcreWHgsuiAUv+JFUhPW0SJFwWsZ3gIEygsARjBItJfKqHvkjr6lMUao+0bO6wiYkiY7rEsy060fS8hhsVRGrWld8IQCGPFcGp4QsC9dJRCqy1LApGLgGNCL2E9owswB88Z9aXt6NuU0MB6ikcJ09jswLo0CKHc+ijK2QnpiAAGiI2ZT3WsY7DXmP9tRrLsmgv4GZidELM0IAHvrEI/heVgOuUdHfTQoPTbGwYZ1sBzAceMd76S+8KE5eyBf6GgTQKL0MMnRhEKqhimqJEnBF2SkEBEmJH1mmHQGLSW01NPL8mcJ6xzaxIIeV+zANFNJzCQqjMlEBZ5kaTPS2K5+E/pw/fPpWeUmRLQH4wQBDNL5BeLwsOUnKepgLWXX4e2jUP1Spkp1yheHnCa3Noi8Zl8WTOhJImN4d0FCFe8I7RJ2/TGL0sihsaH7546jNvbeoRxSnB9eMAN3sCj0YH1BpKesSZMMF52LlyYQuhEbUshCuNmSczxddMS93j224AjQimFpydztmQ9JaatwiN4FddoSnGoLY+kIZDdSBaCryQ+E87OBcrzLiH0EohLxFdmmsuY1JQ1rmQrlgAGB++yGpgL5BKbRrfLFd7Bw96jBhMujgYqJ6BGryHdv1R54Q1TZ1xIaiMW6806g15f4rvgU3ikXLNhRG1qn5EGrqWZJPCE7RLsT3Hw0cKBl73M4reEHobk2So2tTeONWWC6GWlEDeJTr1VGl7Bszhq4GlniAIpHQ2dG628iGmLQFDWdTqjUvxOP3nH5vln7/R0mhvwzp1qMIH0RZ1pCnOwZLqizV8lYrCgugKLXTAEP6UEuuJc18biBEKqDkixhlAC1mF9lkq9tExdJdAV57o2FicQJ2PvJoF0xXlXCIThj03edco6r47KzHt9pqwuONehNfgImUupE5uCGBRzF6WO2eyNo+xfnANGUeq71ewlsuzeuevN3k2OIU4Pzk/pqGGpttQxZFREx7DpBIdq76fs75JASh3Dal25v+EJTjPO8+COIUjg7uNc+dAX9zaujJqSbcrk2vJeaegkLgDlhk4QhkMn/ylcQMtlfrUcYaToBJpXg4VOqg2Sb8WeOpuiNFgSXCRZmvzcLsFFAoQmkHAInaROp3CPacojg3feWiVkpN/ucLQJj0YJLtbhzsFg8aiLqcLvUSgQjaLHgnp3+vDdCpznjAyEUbJ1jm0GR6ZtbWS1c3IdV6Za7jdttXhpSu6GN70DiXWMb7o31wIVUVv0AQxv+lCmZJ3/iWmPSezldfXzHF+KfK46YBY5ou7B2PdQXo4RzbGEi8VEbOqXaX2eNXq2K2Pa8qxuOqvjyaOSAq5jfts91s8XldfbNckB5cc6OAkFc8IZkrxFG+aj376V9BMO4cEpeYMrPR+9xXPvU+Ed3l9MskZMAypZAHIaEHP+HMDo+ViY8mAq8z6MzwH24LMvJAoTYyd3VOa00alMTJQjWSwXIPzMGdZWjF8UBkc4cWBAF2AURTMXoc4OMZW0ZDVvLsSZpqwb2ONxYE9E2Ksel7dnn75isjWJx12ALQFTJFujwD3NMDL6CsO0IhSPFA7UmV3Rk4pPr+uyHeH+YTvC2EIhnGFF3HWashCqV5S+hT17iiwpM54GStc7vGEHYXbdElBlTt1v/AzjONZc702vtDN256qjccc9tnWBCAG10sw9hFK6WWZH4xk/vNiEyZprTWVUu6MI1pe3JpTuJNtR0RA/mDeNDEquJFxRbR/jgGE/lIIk3GEP/JvVxgb+/e3UMdEpTWGWgZutr451b08LS9oWTQzKeOHcjQk4vW5rlhBKJM5zKNNWn4MDGPo4j1XmoavYKl3qgMV95SjfMSHG+F48ZkNtdc95tEbb4TPsiHKvHUt/mD90JrfV53AC19f5OtXhM/gP0Rqjx5sBeM518KZQpmRjUV1dbffImDc+b2wrPNZzIr8cAwsicxzPhKnNZ1NGy1wjpCQRfVDZHBd6RXXeH7ShjpVNqUNi5GLKDUM7WOMj/si/xadYGjw6dJixT7wjx8BTFqGayWE3HIIZ/RDWM8aEi5JA8HtmAYi1uUvP8AHKTchgEjON9HEem+qve4aOAT88dSyhMYD993aOCfHPBjlCoQwHtLDs6XwlPPrSMEtXIn2mCUKhA40BHKhM/SRX8PdMs8ImoaBTmLd9YCQIxw/CofeWHlrThVg6A20TlR3aQaRjuaOxl3IRgFDi+e/sz3MihIVAVJceSpjFw5tn3Gc9ZcxFLuJtDpETaxrq0GfqcayMk41mUeabekBVKBYEwuGvH+KBkTh4VoIuh5BYDsZkLNmWvAmf6n1v5qQ9psy+QuH9mNU5xil4VRqKf0eh5PyhC5mMXuSyYLhiRrNEfLIk9oEPBXEUM1I2efht7TFNeWSAL7qDvN5FAkIp3cEKgRxR4ROGonD4TtpqSS4xnjIMO7HCIYKTLFK5fqYxptFc6wtrCgVunWFhcMWKW6xQKnzI/smZ6pjFKOGqDiKWlZN1TxnKwiTO7q2z5pi+rFMox3TJFIog8bgRELEvrvzmPs+j7kNnME0hBOdrbaVQLD0YCzPjUR45PZAyMJkPU9SmtQkUPYthLpt7ZXrCmooKvCoUdOZlkn6fcNiqf4YjedlZ9+xPaQP/sSTv5PxrNGvgLLs6e2STYJgCcfo2+RlRKNU60KdbJRTP+8zdTQcY8MzzO6OjBNB9jCYWl4gSk/2O3sLqOzyzIkaGhYE5/6Pwe6uEgjVkQnP/nHhoBzBHJlckPNE1z0zmO9Obcd8qoeA7QBhTS51y556nHfyDOcB7VMD1ngkBfCpPo+C/NULhvBP3tLbrXGszjmmBH1koFgoWm8M3WyMUlDuH9LcJA18mR5mPMYJQ3D5cGjzJWbtXaogR7K3ePLtkjt1WQxONo/f2lk/VGRwah7b6EArTkjtOHCksNXOsrp/9cNusrzbmzPW8baR458DWjJS5GF3SbtNIYfpiC55HCrpnhQk40CYU/1M2YaIVJuLAJqHgpzg2xl/RrjAhBxAKCtxT1I/D313g0T9pQlzWphIHEIqnKAsGYSzqD2H2mrQQyifSqRM/jyPjfxf+ggTrfaTyAAAAAElFTkSuQmCC;fontFamily=Times New Roman;" parent="nyfXz0uPsz8sGl3F8VXS-107" vertex="1">
          <mxGeometry x="30" y="39" width="90" height="90" as="geometry" />
        </mxCell>
        <mxCell id="nyfXz0uPsz8sGl3F8VXS-121" value="" style="whiteSpace=wrap;html=1;aspect=fixed;fontFamily=Times New Roman;fontSize=12;strokeWidth=2;fillColor=#FFFFFF;" parent="9GA1_ZZ8TkLPx-6e-POV-17" vertex="1">
          <mxGeometry x="223.87" y="115.32" width="80" height="80" as="geometry" />
        </mxCell>
        <mxCell id="nyfXz0uPsz8sGl3F8VXS-122" value="" style="endArrow=none;html=1;rounded=0;fontFamily=Times New Roman;fontSize=12;entryX=1;entryY=0.75;entryDx=0;entryDy=0;fillColor=#e51400;strokeColor=#B20000;" parent="9GA1_ZZ8TkLPx-6e-POV-17" target="nyfXz0uPsz8sGl3F8VXS-121" edge="1">
          <mxGeometry width="50" height="50" relative="1" as="geometry">
            <mxPoint x="222.87" y="168.18999999999988" as="sourcePoint" />
            <mxPoint x="382.87" y="121.94" as="targetPoint" />
          </mxGeometry>
        </mxCell>
        <mxCell id="nyfXz0uPsz8sGl3F8VXS-124" value="" style="endArrow=none;html=1;rounded=0;fontFamily=Times New Roman;fontSize=12;exitX=0.75;exitY=1;exitDx=0;exitDy=0;entryX=0.75;entryY=0;entryDx=0;entryDy=0;fillColor=#e51400;strokeColor=#B20000;" parent="9GA1_ZZ8TkLPx-6e-POV-17" source="nyfXz0uPsz8sGl3F8VXS-121" target="nyfXz0uPsz8sGl3F8VXS-121" edge="1">
          <mxGeometry width="50" height="50" relative="1" as="geometry">
            <mxPoint x="233.87" y="170.945" as="sourcePoint" />
            <mxPoint x="325.12" y="170.945" as="targetPoint" />
          </mxGeometry>
        </mxCell>
        <mxCell id="nyfXz0uPsz8sGl3F8VXS-125" value="" style="ellipse;whiteSpace=wrap;html=1;aspect=fixed;fontFamily=Times New Roman;fontSize=12;strokeWidth=2;fillColor=#000000;" parent="9GA1_ZZ8TkLPx-6e-POV-17" vertex="1">
          <mxGeometry x="231.87" y="147.43999999999988" width="5" height="5" as="geometry" />
        </mxCell>
        <mxCell id="nyfXz0uPsz8sGl3F8VXS-126" value="" style="ellipse;whiteSpace=wrap;html=1;aspect=fixed;fontFamily=Times New Roman;fontSize=12;strokeWidth=2;fillColor=#000000;" parent="9GA1_ZZ8TkLPx-6e-POV-17" vertex="1">
          <mxGeometry x="241.87" y="157.43999999999988" width="5" height="5" as="geometry" />
        </mxCell>
        <mxCell id="nyfXz0uPsz8sGl3F8VXS-127" value="" style="ellipse;whiteSpace=wrap;html=1;aspect=fixed;fontFamily=Times New Roman;fontSize=12;strokeWidth=2;fillColor=#000000;" parent="9GA1_ZZ8TkLPx-6e-POV-17" vertex="1">
          <mxGeometry x="243.87" y="132.44" width="5" height="5" as="geometry" />
        </mxCell>
        <mxCell id="nyfXz0uPsz8sGl3F8VXS-128" value="" style="ellipse;whiteSpace=wrap;html=1;aspect=fixed;fontFamily=Times New Roman;fontSize=12;strokeWidth=2;fillColor=#000000;" parent="9GA1_ZZ8TkLPx-6e-POV-17" vertex="1">
          <mxGeometry x="251.87" y="146.43999999999988" width="5" height="5" as="geometry" />
        </mxCell>
        <mxCell id="nyfXz0uPsz8sGl3F8VXS-129" value="" style="ellipse;whiteSpace=wrap;html=1;aspect=fixed;fontFamily=Times New Roman;fontSize=12;strokeWidth=2;fillColor=#000000;" parent="9GA1_ZZ8TkLPx-6e-POV-17" vertex="1">
          <mxGeometry x="256.87" y="132.44" width="5" height="5" as="geometry" />
        </mxCell>
        <mxCell id="nyfXz0uPsz8sGl3F8VXS-130" value="" style="ellipse;whiteSpace=wrap;html=1;aspect=fixed;fontFamily=Times New Roman;fontSize=12;strokeWidth=2;fillColor=#000000;" parent="9GA1_ZZ8TkLPx-6e-POV-17" vertex="1">
          <mxGeometry x="240.87" y="142.43999999999988" width="5" height="5" as="geometry" />
        </mxCell>
        <mxCell id="nyfXz0uPsz8sGl3F8VXS-131" value="" style="ellipse;whiteSpace=wrap;html=1;aspect=fixed;fontFamily=Times New Roman;fontSize=12;strokeWidth=2;fillColor=#000000;" parent="9GA1_ZZ8TkLPx-6e-POV-17" vertex="1">
          <mxGeometry x="228.87" y="160.43999999999988" width="5" height="5" as="geometry" />
        </mxCell>
        <mxCell id="nyfXz0uPsz8sGl3F8VXS-132" value="" style="ellipse;whiteSpace=wrap;html=1;aspect=fixed;fontFamily=Times New Roman;fontSize=12;strokeWidth=2;fillColor=#000000;" parent="9GA1_ZZ8TkLPx-6e-POV-17" vertex="1">
          <mxGeometry x="266.87" y="159.43999999999988" width="5" height="5" as="geometry" />
        </mxCell>
        <mxCell id="nyfXz0uPsz8sGl3F8VXS-133" value="" style="ellipse;whiteSpace=wrap;html=1;aspect=fixed;fontFamily=Times New Roman;fontSize=12;strokeWidth=2;fillColor=#000000;" parent="9GA1_ZZ8TkLPx-6e-POV-17" vertex="1">
          <mxGeometry x="263.87" y="143.43999999999988" width="5" height="5" as="geometry" />
        </mxCell>
        <mxCell id="nyfXz0uPsz8sGl3F8VXS-134" value="" style="ellipse;whiteSpace=wrap;html=1;aspect=fixed;fontFamily=Times New Roman;fontSize=12;strokeWidth=2;fillColor=#000000;" parent="9GA1_ZZ8TkLPx-6e-POV-17" vertex="1">
          <mxGeometry x="252.87" y="170.43999999999988" width="5" height="5" as="geometry" />
        </mxCell>
        <mxCell id="nyfXz0uPsz8sGl3F8VXS-137" value="" style="shape=cross;whiteSpace=wrap;html=1;fontFamily=Times New Roman;fontSize=12;strokeWidth=2;fillColor=#000000;rotation=60;" parent="9GA1_ZZ8TkLPx-6e-POV-17" vertex="1">
          <mxGeometry x="232" y="179.51000000000005" width="10" height="10" as="geometry" />
        </mxCell>
        <mxCell id="nyfXz0uPsz8sGl3F8VXS-138" value="" style="shape=cross;whiteSpace=wrap;html=1;fontFamily=Times New Roman;fontSize=12;strokeWidth=2;fillColor=#000000;rotation=60;" parent="9GA1_ZZ8TkLPx-6e-POV-17" vertex="1">
          <mxGeometry x="253" y="180.51000000000005" width="10" height="10" as="geometry" />
        </mxCell>
        <mxCell id="nyfXz0uPsz8sGl3F8VXS-139" value="" style="shape=cross;whiteSpace=wrap;html=1;fontFamily=Times New Roman;fontSize=12;strokeWidth=2;fillColor=#000000;rotation=60;" parent="9GA1_ZZ8TkLPx-6e-POV-17" vertex="1">
          <mxGeometry x="287" y="180.51000000000005" width="10" height="10" as="geometry" />
        </mxCell>
        <mxCell id="nyfXz0uPsz8sGl3F8VXS-140" value="" style="shape=cross;whiteSpace=wrap;html=1;fontFamily=Times New Roman;fontSize=12;strokeWidth=2;fillColor=#000000;rotation=60;" parent="9GA1_ZZ8TkLPx-6e-POV-17" vertex="1">
          <mxGeometry x="283.5" y="125.64000000000004" width="8" height="10" as="geometry" />
        </mxCell>
        <mxCell id="nyfXz0uPsz8sGl3F8VXS-141" value="" style="shape=cross;whiteSpace=wrap;html=1;fontFamily=Times New Roman;fontSize=12;strokeWidth=2;fillColor=#000000;rotation=60;" parent="9GA1_ZZ8TkLPx-6e-POV-17" vertex="1">
          <mxGeometry x="286" y="159.51000000000005" width="10" height="10" as="geometry" />
        </mxCell>
        <mxCell id="nyfXz0uPsz8sGl3F8VXS-168" value="" style="edgeStyle=orthogonalEdgeStyle;rounded=0;orthogonalLoop=1;jettySize=auto;html=1;fontFamily=Times New Roman;fontSize=12;endArrow=classic;endFill=1;entryX=0;entryY=0.5;entryDx=0;entryDy=0;exitX=1;exitY=0.5;exitDx=0;exitDy=0;strokeWidth=3;" parent="9GA1_ZZ8TkLPx-6e-POV-17" source="nyfXz0uPsz8sGl3F8VXS-101" target="nyfXz0uPsz8sGl3F8VXS-105" edge="1">
          <mxGeometry relative="1" as="geometry">
            <mxPoint x="355" y="146" as="sourcePoint" />
            <mxPoint x="400" y="145.93499999999995" as="targetPoint" />
          </mxGeometry>
        </mxCell>
        <mxCell id="nyfXz0uPsz8sGl3F8VXS-169" value="" style="edgeStyle=orthogonalEdgeStyle;rounded=0;orthogonalLoop=1;jettySize=auto;html=1;fontFamily=Times New Roman;fontSize=12;endArrow=classic;endFill=1;entryX=0;entryY=0.5;entryDx=0;entryDy=0;exitX=1;exitY=0.5;exitDx=0;exitDy=0;strokeWidth=3;" parent="9GA1_ZZ8TkLPx-6e-POV-17" source="nyfXz0uPsz8sGl3F8VXS-105" target="mNow6uScxkL2q-1gWDm6-4" edge="1">
          <mxGeometry relative="1" as="geometry">
            <mxPoint x="643" y="145.93499999999995" as="sourcePoint" />
            <mxPoint x="694" y="145.93499999999995" as="targetPoint" />
          </mxGeometry>
        </mxCell>
        <mxCell id="nyfXz0uPsz8sGl3F8VXS-190" value="" style="edgeStyle=orthogonalEdgeStyle;rounded=0;orthogonalLoop=1;jettySize=auto;html=1;fontFamily=Times New Roman;fontSize=12;endArrow=classic;endFill=1;exitX=1;exitY=0.5;exitDx=0;exitDy=0;entryX=0;entryY=0.5;entryDx=0;entryDy=0;strokeWidth=3;" parent="9GA1_ZZ8TkLPx-6e-POV-17" target="nyfXz0uPsz8sGl3F8VXS-99" edge="1">
          <mxGeometry relative="1" as="geometry">
            <mxPoint x="152.49999999999977" y="136" as="sourcePoint" />
            <mxPoint x="210.8699999999999" y="-13.000000000000227" as="targetPoint" />
          </mxGeometry>
        </mxCell>
        <mxCell id="mNow6uScxkL2q-1gWDm6-4" value="" style="swimlane;startSize=0;fontFamily=Times New Roman;fontSize=12;strokeWidth=2;fillColor=#FFFFFF;" parent="9GA1_ZZ8TkLPx-6e-POV-17" vertex="1">
          <mxGeometry x="726.51" y="66" width="139" height="139.87" as="geometry" />
        </mxCell>
        <mxCell id="mNow6uScxkL2q-1gWDm6-5" value="训练代理模型" style="text;html=1;align=center;verticalAlign=middle;resizable=0;points=[];autosize=1;strokeColor=none;fillColor=none;fontSize=12;fontFamily=Times New Roman;fontStyle=1" parent="mNow6uScxkL2q-1gWDm6-4" vertex="1">
          <mxGeometry x="20" y="10" width="100" height="30" as="geometry" />
        </mxCell>
        <mxCell id="mNow6uScxkL2q-1gWDm6-6" value="" style="shape=image;verticalLabelPosition=bottom;labelBackgroundColor=#ffffff;verticalAlign=top;aspect=fixed;imageAspect=0;image=data:image/png,iVBORw0KGgoAAAANSUhEUgAAAGQAAABkCAYAAABw4pVUAAANdklEQVR4Ae2dBcw1OxGGX9zdHS5uwQmBENydBHd3EiR4cAkQIAQI7pDg7u4uQYNzcXd38tycvZn73rbbbXv2fP/9v0lOtt1tZ6bTs5WZ6ay0D/sS2JfAvgT2JbAvgaOGBM4v6eaSnijpXZK+KOl7kn4r6T+S/iDpu5JeI+nOko6faDb37iLptZuy1Pm3pF9L+o6kz0l6naQHSbqypBMncBy0t44m6bKSnibpUEn/W/j7qaRbBundVNLPFuL4u6Q3SLq+pGMHXAdV8uiSbrx5A5Z2Qqr8fTdvBW9R6nntve9Luokk/igHDVxK0lc7BecCZkji5/db8x+TdOajeo8cazM3lAT3N0kf3Qxht5B0CUnnkHRKScfczBnnlMQb8edCB/xpU4ayzCnHkHRySYdIuthmnnrqhlaOn19KusJRtVOOJ+ltGQH+V9IHJN1e0kkXCODaGXy8FddagOf0mwn+Bwl8zC9XXIDrgCh6XEkfTjQWwb1n8xa0NuQzCbyfbETGm/RYSf8wnH+UdOFGnHuy2vOsgXQES9AbDOD2YQncD+nEe3lJvzO8zHnH6cS7J6qzYvGJlX3AGQZxlxq2lgxXOTYuKukvxvsjc4UPlPtM4mzEYod8VtLJBjbgPIYfWucahP+2hvv3B+omko5gInyRNehXA9+MSeanMhp0CCuyEcBe5BOGnx3+VQ6U4Yt//qMLO2VWUaOBiTi+gaRZ0Y2C6ybwQ4Nl9aslMbTtOeCfhF7JJ8IoqN9s6V8F7UiH9MhdNm87CxCnMeVZsr95L63CTiLpLQWGYZwN3DO2+DeahDNdR5OC99ImFLr/kvRgSaiEdganLahAmLzvIOmsK3A3dcR03RZJFhC322iR6YCJXryyrzrNthgo4WVH/fUEU6jK11bORYGQXgPOslHv/DMhg29KOt0aTEw0GKNfn2AEhdyoFc5Eq+a6iw6Z+LpgRmP9DUmMIKvAIxKd8QpJTIC7gF12CO1lB//ShEwwrp1g2wJBp+M2h4/MGHYw+txT0qc2k+NfJaGDuvVGC9vL87Y6BA3xbSQxH8IzEzt6snsk2stk/txEp9BRW4X3G1E0pKcuUEST+gWrEwX4cUms1Hog4iM9ApgjEb7jnvKfT8wTDOUvSdS53giGUjiukyDGvRzwZpQ6Y2oc9o+e5eKEZ7rm+Km9Dy/8USZ8uSs6OR+m2aj6YueHgzerh7fDVd04IZSAYSrXGL+PY0MrOK5WPFM9DGOOM5e/21QpXC8kCUNbrHP/8HxIEm+QSIAdKvdKwJwR67CBZAhD0/t2exbL5dI5Wrnyo+5jWINnfm81vtF1peApVu7nozUVTzICH0xxYffQ90ShRJU7G8b4rCZt6A/P1tTtKcOeY4IzGt8Yr1LAkpeFQKTLmzcEmKx+0oAcZiNDB1OHIPinW/vfOaQ3Nk4GUbAs/zDLzoEPWbzudAr/MpiLOGvSOXo1dXvKMLzCMz/3C8gNWfB6PmsjpuHeFeVhMsARLTYIh4QaYL0e65XSqUndy+do1pbL1ff7Syb1u3ply/uK65r2vCn7TBPsYyqxsOxlve4C8zwby5TK3MvlyNaWy9X3+yx7UQM5Xs+z6vRlr+Ny2T3OC7TkmcAjM0ts1ijZWK/H+jFNw3OvcSxHOge15XL1U/fZGLq1MNJh916jQLyVtf2NKWJL733ZkF5kIQL+RazX2Wyx8sJ5gF0wzKKeyEEUwNodAk/whnqHuRCe4Z02MEzNvRlTmy5psvvK9KDn+mNDeqYeZAvq7rpDFrCaLcryN7bjF9mSCx74ehr1wBoQG7KLN2REG1mNxnbgCdkN3iFrOYzFhixJdzd4IAJ3wmDL0A0+ZK1lolzSCbFsd4MHInCNBIrGbmAiig2+QDfGOgSR5pJ0HfZ1SuG9H3lH+90N7zCk2MzXgNiQJek1eKulgVNE5B2XoW7A+S0ird0YdhOuRBB5Iz0HbsEsWQLncM09d+9NXIW6wb332FnvJVjSIXMWzJQlsKet37I/8+V6kE11WUtHOzo+Sbnd9VQnXpfYpmO92nRth9RaMFOWwFpeYjlOfkXeUC4O2zK4fbl2HmmxTcdG1aRjo0nnYIkFM2UJzOHN3X+4dQgGumHwAEOOSnoOemzTc7jj89oOcXNAtGDWWgIj3bk0vlmRt5RGew5H9jmHJyNyhq05R7Alauyef2Tki3QOShbMWktgDrffdx0WurATeqHePJO5N35JvsU2XcOz85Cr4yeiogXTO6R3R43jYOTrZTmmeu4TJSESWZpusU3X8Ot85Op82vhn2IUndtO+12LObAU62n1+2SAOB1YpeE+4AGrzu+4QVOm1vGIaaIXHG52ezi3yQIf0RGBotU0XmbLGI/AcsPyucYDDaFay0+Twc595gsNJsePvXarQ84wAMZEQaaLu5GDJpD5nm87R4L7zVCrL/glPSa8z5Zknl+yxnBaTuZ8dwWNnuA2JcBQ4x02Mc32Cc2P5kbZpQ32EbOSJ9Bxgv2cJ6vVulrHtz+Hz58y1Hq4Dky+hQYbBe60BuJEi8DkYZZsu0XHBlsrGZ631Io5cmjkoajegxV5uCJzbOgOD1dkWYB5hmy6RaxVsa70SL/HZo0xuOA4OOS9CqIrIPGvsvQSRN9K10FqvFj8jyJdMdpw36QY/E4L2dy9Bq2Bb6y1p+52sQ1DRdIPrZFCjbANcQK35Wt4cf229JeWwrkY6Q0y47jQ9XCezaWFkvCddKzCnUVtvSTmW0JEO50a6wXVAw3T6xllkvCdtaLPZHhqlupEgDnWxLCqVbvBIaxhetgGR8Z50LW89NEp1I33iv8SyRBTqBnfBH7JSSHAVGSddC6PqOZ7WfOSbc+wRDybdbrifISV8xDYgMk66FkbVczyt+cg3u/+I593xYWsadXLUz6BCQWczGiLjpGuhtV4t/rlyJfovtA5BEzwEXmWIcZ4bGZcKJksNKzWitV4J55JnOfqssHyFOizCKUGFsaJF4mxyRirMIm7StdBarxb/XLkc/eeYvHDJrT3GMEfzsOf3MgIwwph4iqra84VyDZur2VpvDm/t8xR9Arr5fYL/DwcfEyHK7pM47qljaUsY8AbU1m2tV4t/rpzT99O3PEfbsZX9G68cBntngjxuNhilWo8rOM45QUzPW+tN9XuvTt/z7D2WnjpbxBNvAhGgXd8/MUKMQoInX6kSK1rRlHURI1KNzWWiO10ryR5mpq2N9lPCOdFNXYnEuo0VaZIfIkDzeYcUI9x7cbLWEW/OGbCwb1OmBE6/VHZ6NtKj0ulPebTk0dVoor3VK8PTfRKRO3lN5w72YLhyF9WpMfHKadiS00EsS3oOeOtqnB1qfXz5ikLkARv62mEOj9Rmd9N84JFKHPmGR46OjfI0Ljw58LK5ctP91PDoOKZ8jUcln2eaynPFM2en4G6mnDSt2TR6uCd0Zux38N9yxzU6PAdRGC3pXo9KeI6aDHi4TI7ZNe7jwhMFQWiiGvDDpHG8dddOTAA5iLRb0iMc+PhIWaTNpnBn8AJjpnZ15WqFUodQNgdREC3pER3ih5q+lmN2jftof6Mg5ibziSefd2K0IFf5l6LuRNot6REelXxOKdLuddaeZNR09a/nnKgSy5JoQSXPxigI0nOwZFIv0Y10+BZi5GOIqTYSWJL22Fdzof8m3PgK10QLmou6EwVR0yEse0dF+5nacl7rEBSJOwOC1UehLAn4OBctqCbqTqRd0yEIam5DWkM3CtxdU+cChMa6w9M3sg5B2bjEMwX9WIwWtDTqTkuHIISRHpUEdYt8DDn+3NpTCN+/HYJBq7S7bqWVqhcFUfuGpPC03nNnOBytl7jattIt1vPgAgjmlZWxGYuIKx7uqkNQsnKy109L7QlXW3bmHl8QQfFl562F2t501todwqKAqHq+uoQPNN0EJ9gTcPbCkTc65smSriqJFcmSOWaucdvqEMzT+FUx/LDZ5XDSyyXxhWqnSZ7AAHwOfE8BneK+wCnmp3tvGsD9hGu69qKEpwlX7RXt9tV6CW+rPqZKjr/5J0xTjePD9b2Gf8fb0y54gSfHWcqjCN35JF7TaI4b83VMPgFUahBf62wFJlbH3WPbZ75zfKk8q0q+DbJV02yrUGrq8SEYPhJGDHmfDHvOTODx4gJDr9QKbOgivh9tPrmBvg4NLp8Nv/SKS/rWdiyqh8rEHbhxuWyBq5sAESYLhxbgDxM749sDhtMWPnZSxxWL2Dtu2MCJa4URaEvUHQ5pEjE0dkhP8ICGpuy2Cm+Jh7rAi4VPBkX7RIlLdGZRgDFdq0/jQ8Z8QjXWJU0077U0DaU2rvqMST+1oqFjPiQJTz/W9exbsLGwL2B+YEhi3nEhep635xobz0rq8q0sPg5J/YduQon72Xtw4KRQa9NZVWBrELt4YTPpAi7l0RJgpSuVqXl2aMWXg9aQy05pHDIT+H5OkNOXNYnftWRT6njfVxlgf6fCWos4ewdWWvhppYYRFx55yj3bPjqPtfJZC3AwPLIM32tHvdeSexUddr13l0SIVSZ+rG/TUQj0SNji0S4zIeeAc5BEUsAWP+me8HIBF/WfL+mOu/AszDG8f39fAvsS2JfAvgT2JdArgf8D01XD4TaJDSsAAAAASUVORK5CYII=;fontFamily=Times New Roman;" parent="mNow6uScxkL2q-1gWDm6-4" vertex="1">
          <mxGeometry x="20" y="39.319999999999936" width="100" height="100" as="geometry" />
        </mxCell>
        <mxCell id="mNow6uScxkL2q-1gWDm6-8" value="" style="edgeStyle=orthogonalEdgeStyle;rounded=0;orthogonalLoop=1;jettySize=auto;html=1;fontFamily=Times New Roman;fontSize=12;endArrow=classic;endFill=1;entryX=0;entryY=0.5;entryDx=0;entryDy=0;exitX=1;exitY=0.5;exitDx=0;exitDy=0;strokeWidth=3;" parent="9GA1_ZZ8TkLPx-6e-POV-17" source="mNow6uScxkL2q-1gWDm6-4" target="nyfXz0uPsz8sGl3F8VXS-107" edge="1">
          <mxGeometry relative="1" as="geometry">
            <mxPoint x="697" y="145.93499999999995" as="sourcePoint" />
            <mxPoint x="736.51" y="145.93499999999995" as="targetPoint" />
          </mxGeometry>
        </mxCell>
        <mxCell id="0AaZA0Przd9OFLfUyhfr-5" value="" style="swimlane;startSize=0;fontFamily=Times New Roman;fontSize=12;strokeWidth=2;fillColor=#FFFFFF;" vertex="1" parent="9GA1_ZZ8TkLPx-6e-POV-17">
          <mxGeometry x="20" y="66" width="146.51" height="144" as="geometry" />
        </mxCell>
        <mxCell id="0AaZA0Przd9OFLfUyhfr-6" value="" style="shape=image;verticalLabelPosition=bottom;labelBackgroundColor=#ffffff;verticalAlign=top;aspect=fixed;imageAspect=0;image=data:image/png,iVBORw0KGgoAAAANSUhEUgAAAGQAAABkCAYAAABw4pVUAAANi0lEQVR4Ae2dZeg9TRXHv3agLxS7Gzuxu3hMMLDBQgzMN+oLO8DATrBRBLs7QX1jt6KPivHCFlTs5KN7Hr9+n929G/f+9v7+dw9cZvbsxJlzdmbOnDkzV1ph5cDKgZUDKwdWDqwcWDmwcqCVA7eW9DZJJ0v6iaQPS7q/pNO3pl6RO+PAGSW9UdK/On6flXS+ndU+ouDTSHq5pJ9LequkMzd5zyrp7Q3+xZJIB5xf0icl/VTSYxocwRUkfUnSjyXdw/A3lfRdSd+RdBPD37NJSx7yFlAmZX/CGETdL2logSZoA87S0AztLzMam9f/F7yyQxAuoM9LOsP/5Vrg4VZB6IMaGh4W+Js3+BcY/p+SLt7g32v4P0jiiwS+bXjiAO9IU8wgL0BZlFn45zf4WxiOdw9t8A8O/EkNPoNrRLlVfltImYvCA6JRT2uoeUbg79vg6UXekBs0+C8Hvrr/7w1PHOCdl0FegLIcT10AdTse2gBodTxtaYPnRDqGp0tIOqekN8S7T7UVcJS4QxDI+4LpPnSeXdLf7f0vj5L5bXUdgkDebQynR93GGHHuGM5+Zu8WiR6CQJ4aAkHJYE5kbvlovPvQIlKwSg9BIJeR9LdgvM89Hr+b8WaRKFqVE4R6yYSHKuz4Rzf4DwT+rg3+W4G/doN3bYo4ZfPOyyYveMpyPHWBp27HQxt4aHV8aYhtjHxypPV8FX//BtW5rdyt4K4iibUFjPjHAEKL4H0Pacs3Jb1I0pWDU6xl0Mp8Avf2vEXS2SLPzh8v0iz2nJATOY7afOHg6uUlPbuZO1Bx6W2udUXy3T1eXxIq3YksgLa2/XophveJki/gLx3C+IUkTAZoG8f5RxtoS5tQ/izpRn0MOsp3F5XEV+KEYp6gO19zqUlsRwxgnrhWMyy7CYa2/0rShXZU76hi3xHC+JOkxVW7US2YlhgDJ231D5GJe1G4ahDEV3MIwiimIxQXCPEr1cslQlRbJ6iMddCC9nEX+yE84HKG4/2lGvw+BNDiNEMrAO2Od80qRwis1YtBLtaYMwruHsIqU/fjA48Zfl8gtwSgFYB2//BoW0EuQr9RL3YRMomxn/HAlt9DYtGHBkL6gkMRCG12dZ/FI7xp4xm8dB4VrwaHad7wryTjqIUOhyIQ2vyF6EHJG39m53EydOndXkHF2XZ1wHzyTPvdvnl5M8Px/rqeaeE4tDjN0ApAu+NpmwNtLz5sCuHpZGCS3lRBvU+BTK50YMarSfq4pO/HD1wpEAOLmp1sjEBmqcY4JGDh9K+j4rmpnwJBQ3ms/WrPfHbrmwK+3vOxfG1blTTlQLu3pbSvqiYFAm+KTx7Cy3LyqLxbCy8bDEmBdM0h2yDgvFF39VIPa899G/X1aVmUnwKBNzsB3GFQBV3KFd/UQ3YpkDsOEMgdtsiRsQLp6iHwslyMJpGXix7/AjO+rR6CPWiT79KzQiBPkPTEwJGmD6hjqO1prECSN/6M39dkmKNlXTJ08U3aFN4Ztf+MC+adeqhmn8EbeUNJ/BzX525D2dRB+o9Iou4+gHZfV9A2hxyynI6Mz9Ky0jSShftz9hAneFMchnwmGErZ75R0Qct8JkkMV3+0tH9tPAwZCogXTaQhLXkKKOtdlqbSUvcmoVQZbeEYgbDbOBlYVaJh+NdR8RwipgqkSxjFrN9KerikJzUm7sJX+DlrHYvTwleIWZy8j5BEWYXPcI5QUiDwpvjkIbyctVK3tp4quknLOlWGDkQNU8mgoc94DRY8t4fhQ8pj+JoCKZCdaVk4PmO9ZDGTvw9G46f0kAtEGTDtPU1dQxhIj3D1lvKGmjFoD3VlPV7eUOGkQOBN8otneDml/FPoyIqSeH+eIhA0nZpcqywIBzBX4Ole+ApZmaNVXbFJ1xawJ0GaH7Tkp8wy41BXlUvIuynnOMbwCa/7yYDboxPcF58iEAi7c0sdt2soZn55oST2rGEWVtRNKrE3Fi948pCXMiirJm/qyPZAyxQYIxCOQkwGzlLk3nE2op6nCgTi0jf2R+HDdLrJLfhfRi8D/yjqKNoJoWEqDBUIvMQpbxZcTBLnJ/J3v2jQHIGwQPtdlMdirA/wm326JHxlsV1h2yIOjnd9kAs96h66SGwrNwUCb5JfPMPLncG2tKwi8FEhEBwI/KuudGXl9a+7Lf6xDqsvZTJ8eR7qngMpkJ1pWRwF4/QRmkv+2Kr0Rs3pITDjKVHeD1s4dJ8WZjoNGYfx5EnI4Qq/3DmQAoE3yS+e4aUfrxtdJ+fzspFdz3MEgkk6fbvSsRnGdtW9CX/vaHkeVWPx6Cv6SL7xMQXSR88XN5bWkyBV0r6K5ggkNa3vhTbFMJXDDO7/r27cODHH88OD8lUtRwPI67t8aGqoz96ePttZD4v+82qMQODpZOAkq7v7ewMyPkYgLI4wj+OU/OmwTVFueXsU4cwHXh+nYvuMlbxLw2iuwtP7BdsXtEATtI1ZwA0VCLz0E8TVvlEhX9M5Wn64VDqThgjk6pJy7vEyKu7jLBpT4QnpGdcZ0ILrtRwNoKcVUIeX2xZHcxuyHZwCgTdtPBuzhio6B4dTtKwkvI0J6b2SJ2EZkobCa4PpKA4OjOdtNDiOPfpNkO3amZbFoXzOfv+m5ZeW0yE9hMP93tiKYzbnKDGGQuxnDqwtKh3hmLMWWFc9LyemHLB9USd1u+ne80DzJkiBwJs2nsHLMfSfql4OLzpxffEpAmEcZ2OJGxO64KtBw3m6Erbgc+/9Ky1pCgUN0JJzyxSB9PEJnk6GfRAIq3BvIMeMh8I+CmSIgDvbR/fCf7et++1qyGIYceA2HRfIjf3lhjiObp63bchiD+Wohix4OWvI6mvvlEkd07MzqC3OitYhJ3U8OobCa6K+Yz+p0/Btqr2okH0ObiWgfVF7GS59Qdn1IeSkvjO1d6mF4eOi5WMXhqxBWDyWgAlPiIXhvphO6FltphOGJFRzVtVM4MQxp+RZcSzHfq782JpOhiyc6iscovbGh3/K41EbFzFcFt2Ex8a4yFi+T+Z3rLbZU5yxGadnpKWXryDN77gJzYGcQ/rM71wssBOYomX1EfLI+Gox9rVtUDHJMh8k8/OZND5MVd2UmadnqXsOpEB2ZjqBSK7Fa9uOXHoLF0Mh1yKxtkAb4kccnBsR2xidW7isqY7FFi5nIo7CySHdO9PJ4bRtXB2Jc4/BNicHaJgK2UOyt9YzvPSLPUfXt7QbEIx7XjNvICQm4zEmbNKSh7zMPZRVN/Is5QY060a5oZLnCyDtWIBhqVqXoxwMy8mXetjpwwDoi8esl3ekyV1B8lNm+X0dO0c59HvGWwjP3z64kmJmcXM9drChqjrtOWpXUng5ZicyP7Te521pWUM0phqD28JtOltjyJwCOZLsTMtiIkTDcpf6ih/VcQSc2FBLcdVJzxQEtOk4AnnISxnpjOcCPorjCPDSlYvRws87B70BGZ8yhxRBXWdEcO90dZQVPd4hbQd22GDyXT/SkNZPvVJWanS0Y44waEP2kOSNP3MIajKk54YXnPEUyJQjbTV8MdH3OT7jHeL1jz3SRtmlTFBnOWB3MWpvjrRxQNEb3hdPgUw9hctXvOlIAK46TsuUQ5/U4cfluoQBPheStM1hTA/hrywmA8PAeix6vEC6jkVzyX+f/8BkQZFxk5Y1tYcMISr3yr23VHyb6uXYHrIzLQtp4gdblwV4uOnigF1frdHncIenyjZhW1drwEtXMkbTeFwvnxmy7TqaGT0ZxswhLEgnwxwtC6Z4j6pzfev1TJPF8d+/+akxeVOYLqBdc0g6oqE07AtAi7cTWoFNcwgmHM/XF39pU+akgFXlesVfv0DYGjiyK/42STEvwcT9peBQegie+N4jUDYWg7wLxW+6OZRrYrmPxQWy6DWxTNxODDtisw+kLPZ5ja/4XtF+eLHoRco0AVOACwUHgkMQCsJIZ4k3j5fp9nMwNOHX5EIhzuVnXDI8y9y8fXJnlcgEzpyRwxTtZWIfahubRcSQzHikd/lLQSgq8XH+qwpoR7V1bco/QNqOxXmvAH/aMQtJb9BxjjM67OyIQZ+Esee8QhJX5+H8jAk8vfAwnWMaOM4MHkP7m5YYpti8aRszIRynZs5v5DyBpsHNO+jkJ9qfgtEmVNu+66H6PuxZ75jE8gRT2xfUdzVFOjafqH+bN4vRQzO36dltAmEv+9IdhR7CH0t2NH376LwPkd7C4X/mk5NjrsjjYkXNKpDixBZCP4XEXHAuK/O2IZAu39hVIMa0uVFf8DGBl18s5XJayYev+hP5rHMVSHJkxnO627y++dN2/qsJBzUXSNfV3qtAZgggs+a9Ui4Aj2NU7Lqkhf0UT4vWBeRmEPMSgEpZ6Sm3rsWjBxaeW3W44BLguorCEwd457cYVe/lrAtlVno2ngA8CgtHiHcIkO0/qcEvFuCdjtnDiW2L9/2ND2sU3jMfsWisTX6uBsdcD57rt2stg7cI59m5vdMvjMSjHUdqvNfdeMkqmdsR+PmKmRPE3EZKHl/Acj6DsrlUpjxTqJutBGjBWFquOtAKzeDZ6SsaFxMIFUM0Nx20CQLc6+xrXZTQQ6ocLz+OsHEzD18dd6Bgar7lITFhbevKgZUDKwdWDqwcWDmwcmAwB/4NpBaWHniti0kAAAAASUVORK5CYII=;fontFamily=Times New Roman;" vertex="1" parent="0AaZA0Przd9OFLfUyhfr-5">
          <mxGeometry x="31" y="37" width="80" height="80" as="geometry" />
        </mxCell>
        <mxCell id="0AaZA0Przd9OFLfUyhfr-7" value="算法" style="text;html=1;align=center;verticalAlign=middle;resizable=0;points=[];autosize=1;strokeColor=none;fillColor=none;fontSize=12;fontFamily=Times New Roman;fontStyle=1" vertex="1" parent="0AaZA0Przd9OFLfUyhfr-5">
          <mxGeometry x="45" y="5" width="50" height="30" as="geometry" />
        </mxCell>
        <mxCell id="9GA1_ZZ8TkLPx-6e-POV-2" value="用户交互" style="swimlane;fillColor=#f8cecc;strokeColor=#b85450;fontFamily=Times New Roman;" parent="1" vertex="1">
          <mxGeometry x="-628" y="570" width="530" height="265" as="geometry" />
        </mxCell>
        <mxCell id="9GA1_ZZ8TkLPx-6e-POV-4" value="用户" style="text;html=1;align=center;verticalAlign=middle;resizable=0;points=[];autosize=1;strokeColor=none;fillColor=none;fontStyle=1;fontFamily=Times New Roman;" parent="9GA1_ZZ8TkLPx-6e-POV-2" vertex="1">
          <mxGeometry x="25" y="25" width="50" height="30" as="geometry" />
        </mxCell>
        <mxCell id="9GA1_ZZ8TkLPx-6e-POV-6" value="网页" style="text;html=1;align=center;verticalAlign=middle;resizable=0;points=[];autosize=1;strokeColor=none;fillColor=none;fontStyle=1;fontFamily=Times New Roman;" parent="9GA1_ZZ8TkLPx-6e-POV-2" vertex="1">
          <mxGeometry x="175" y="25" width="50" height="30" as="geometry" />
        </mxCell>
        <mxCell id="nyfXz0uPsz8sGl3F8VXS-78" value="" style="shape=image;verticalLabelPosition=bottom;labelBackgroundColor=#ffffff;verticalAlign=top;aspect=fixed;imageAspect=0;image=data:image/png,iVBORw0KGgoAAAANSUhEUgAAAGQAAABkCAYAAABw4pVUAAAGFUlEQVR4Ae2c324bRRTGewNvgdcOJWl2LMV2pJIglUArFS4hDUpspxLtK9DL/OkdoNYhpOIleAAqQeGqSED/IJpUcEFvaAl3jdpECESaQWfds9msZ93Yc3bHjr9K1tizO9+c8/v2zK6tdI4dwz8QAAEQAAEQAAEQAAEQAAEQAAEQAAEQAAEQAAEQAAEQAAEQAAEQAAEQECfwyqujxfyQWvXyasMr+DteQen+fvk7lAvlRLmJA0tL0Pf9l72C+sIrqGf9bUDbC2jX89Q1yjUtjiK6gRl59S0Z8dpISV++vKzv3rmpd7b/0nvPtvr6RTlQLktLS/r48BhX+42eNuV5ZejXJ6f0/Y1bfW1AuwtoY/2nIMfmClBcE7mapUVoXfUKapcqI27Gwz9+1dXpmh49Uda1c3X96OFvoVnBseqsHvVLulabazk2PVvTw35ZT88dHNcOWBbH1u/9yJWymzvuK2me1nrBDbyggmUqDoTMaJy6oDffu6qvnrqg6zP10JBqdVavfXpWbz2o6c8/eUfX63PhMTLj9KWL+vz1FX3m0kU9U90fF5/DxefFxcXm0pVXK9YApQW8IXWfSvjnu9+HQBmSP1LRf75/RW+dWw1a/8R4eI7vl/XjBzX97+a8fvx7VfuqEh4b8St6/npDf/jdmj7/VUMP+/vjWNtle+f2zaYhXnFdmqe1nuepbTJke3szBMqwaJmiyiBTrsQqhJYpqgwyZfXjswcrZK4eVAaZcvqj3qsQypVyzuXVU2uA0gLNG5xqMYNMofsELVNUKfUP5lvuE7RMUaXU56stx2iZokqZqR0cx2a7bjlvaZ7WehyYa0BZz895WwOUFuDAsgbiej7OW5qntR4H1qvt1NvvhsspvTfFGT2HjU46Nz7eGqC0AAfIiQxKy3lL87TW48AGxQjOk/O2BigtwIFxoIPSct7SPK31OLBBMYLz5LytAUoLcGAcqHRruuFKz9GNHuctzdNajwPrJqnDjCH9+Hlj5Unj0xLHIt2WKm+0xMBzWAOUFuDA4tCkPpN+XCvo+/tLvZfRKykG6pfmaa1HQZkCPuxzPI/nNr5EmbSDvozMINOTYqB+a4DSAhSUKeD4Vd3tZ5N20AdDzFbCEDMXZ70wxBl688QwxMzFWS8McYbePDEMMXNx1ptkCB57HVmSZEi3j7nxcaRv7MNjr9lxGGLm4qzXhSFTb72Z2c8m+KYe+1tg05KV1W9YPI8pBr4QnVVC0sQcWHydl/psgrH3z9dhhVC1cAxcOdE+PmbTlsonjfcx0kzi4qyfE5UyIK5D+vG+XvjMeTsDnzQxBxaHlOZjb3wuF5857yQuzvo5sLSgkH5a2ja6nLcz8EkTc2A2ybUbK2nIWHkivN9w3IdpS5XJlouCxyVxcdbPgbWDanOM9G3GR8cGWl18oTTFwHk7A580MQcWTVzyvQlGt/qBFgyx+z+GMCSpFBL6USEJYFx1JxmS5mNvJ9p0Li9xWLJiP4MwmE5aLFkdllpShXQCvd25MASGhL+T4cdFwxKHCkGFoEJwD+mwCtqdnnRT7+TRlDWojT6mklGmJasT7aheoIVv6vim3u6CFj/GV3e7ZcfmmKlCutUrVbr9tXci/HLJc3Pe4kBtBTkwDlS6lTREMjbO25af+HgOTDLZqFb0HhDtd/2e8xYHaivIgbkGlPX8nLctP/HxHFjWQFzPx3mLA7UV5MBcA8p6fs7blp/4eA7sRW30XtDJ94gX6bo+Lg7UVpA28SIopg3Msr5qs5rv6ZNHwRfWXF49seUnPp63+KOtVLMC4nqe27d6eIu/3JD6jCpkeXl5YAxZWFjgPydqiF/htoK0VSpvE0v72rq+etOe/94vP+xvE5tTvi2/VMbT9ttUJbSR8lE2hcw4OTEVVAdtj5sKTAnR5/u+3yBTaDtu2pab1tmjcKOnHCgXWqbCrca94jfj4+MvSbBLTaNpSnGNli8y5ki+PP8/qoyeNyPqcnBPyasVzyuu856+fW0O7UtMuRRUI9er94yoAXgPAiAAAiAAAiAAAiAAAiAAAiAAAiAAAiAAAiAAAiAAAiAAAiAAAiDQhwT+B9LJbK632tYUAAAAAElFTkSuQmCC;fontFamily=Times New Roman;" parent="9GA1_ZZ8TkLPx-6e-POV-2" vertex="1">
          <mxGeometry x="159.99999999999997" y="40" width="80" height="80" as="geometry" />
        </mxCell>
        <mxCell id="nyfXz0uPsz8sGl3F8VXS-62" value="数据报告" style="swimlane;fontFamily=Times New Roman;fontSize=12;" parent="9GA1_ZZ8TkLPx-6e-POV-2" vertex="1">
          <mxGeometry x="287" y="100" width="220" height="150" as="geometry">
            <mxRectangle x="380" y="40" width="140" height="23" as="alternateBounds" />
          </mxGeometry>
        </mxCell>
        <mxCell id="nyfXz0uPsz8sGl3F8VXS-72" value="" style="shape=image;verticalLabelPosition=bottom;labelBackgroundColor=#ffffff;verticalAlign=top;aspect=fixed;imageAspect=0;image=data:image/png,iVBORw0KGgoAAAANSUhEUgAAAGQAAABkCAYAAABw4pVUAAAHYElEQVR4Ae2daeg9UxjHP7ZkX8qaJWQLr6yhUCJbJOpv5w2F7LIvZc2alF22vMELe8qSF2SPSCgi2clesuv7a6ZOxzn3zr1ztnvnnPo1M+fOzHme73fmLM88z/ODWioCFYGKQEWgIlARqAhUBIaHwHLA9sAxwLnA9cB9wI7DgyKPxmsCRwH3Ax8AfwP/Ov6OyCPeMFpdu3n63wD+cYDvIuTYYUCTTsvFgH2AR4A/O5JgEnOKR9TdgIuBE4CDgJ2BVTzn1mpARBwAvDkFCSYhGk9c5TzPfT8GHgYuALYDFnddPLS6XQMQ0ZJyqQe8yzyEtNe126+Be4D9gSU995rbanUZt04wPrSgjdpe60FLs7BR17l++wK4EtjAc8+5qj4Y+G4KkFzAmXU3e1AS8eZ5k+z/BdwLbOS590xXLw3c2AOccUCqu3EVATru2nG//wHcDqzjamAW69YFXgsAzCjgHvQA81DAdn9uZmszPQHYHPg0ICg+Up7wEPJkhLZfBKTXzJVtgG8iAOIi5TkPOs9Hav+3xnzjaba8as3tf4kEhouQlz0QvBpZhhuApTxtF1Ot1/nbyEDYpLzt0f6dBHLo7VzB0372ag3gKcYMm5APPZp/lIAQyfIKsKpHhmzVmtrGnk3ZRLTHWsy5ypeJCJEcekvXcAmRqy7mOqMF3rf9waP0TwkJkWyyUC/vkSVptVbgPrBS1P/u0VaLuhTtm21oqp3VHrZaJHOIqWSXfRsEzX66XBfjHJlsshWZLWIoNek97ZnOypnlOjwHI7sEttpOSoJ5vj2grpWZEK3DNklJij4u9f2wZALad982l8tK2/eefa/XwtTuSqNxdGABCpuAbWFpulUh8p1kyRXlUG/HW4Uo3JKyraWp3IXa33JuNfWW90zUsm8hyppAazwziz4Rm7/n3L/TFCzG/qMFKdsCvZel6N4FySh/ss0s+YId6vWbxlWnBS7WVmOaWeT2E6utae4b7S2Ry800AsW+xp73y5sxdpuT3F/WBBlfgxfZayYRJNW5tvficQXKeXVoNtRddXXvTEVE247tvXhagYTI/yvouuToApVsCTnHevrOL1TWPSw5ex3KC70FoLTtJZZmXb0WU+vhc1myxO92+H7BhNjei9cVKuuPwBLd4B59loJlfPEZqZ8yV3s3WeLfUighkl0eOb3LDgUrKCXvtjQM4bXoIj5E3RmWrFMdKowshDCx7mF7L4b0Wgwts8+xbyJiSl0QtmA9bmkTw2uxbavvVs4Xvcs0rv19BZ/k+mctDWN5LU4i06hzV7Lknfiw5CmvFH/J0ii21+IosLv81ntg3wmQvUgmilOBs4ArAJkD9FFf8+sHAHUVTwOvN99M5Kwmv6nvIxslbe/FFF6LXYD3nXOY9QBlO9THLUVRrQ5sCGwJbA0oQFOrWLkUSViT+MsN4jWbMomXc54+ltkO16m8Fn2Aj6s/PRsDmRpO6bU4DnzX7xdlwiVbs6m9Fl2gj6q7JhsymRou8SOaSVBWZzqbk2WacURZGzSOyGNEQf27A/s148iRzThychP8r8hYxWNIEa3CNY48BrzQTCDeBdoJhAJqTOVL3JdpJ1gRcGc34cMy4gkkJYERSE8BWhNolqWZj0D6qplllWwLS01a0C5L6SpSKzBv7V0Y7PVoolHnDaDU+mgtF6yU5tGRGswQ7QVdGGoADiHUkO/R23Rivl5y9S/V2WFWSF7RBDTE/if1LZm6l/DFRPbiRfmmZuVpLE1OGWCDFyX/Kk3RWZHnzOBsNNlBZwWA0uSUdTt4UVYcrcBLU7Z0eRTCHcQNyMVoKQGfpZNgyicTU7SiHIVmY3V/PB5BXUltZuU4/FklpfND+XnM7qolRz619c3ohsFVLWgxt+sDShhZSRmNgdJ8rBeTCPPeJbttlvKg3GECFntfQfo5Er2UAvY4OdSDJM3qIMKVSnWcYEP93XYEj/2CLNxfeW2VSnWooPv01kLQzsOShBA1cmIl5H8P5PHJ0Hc0JHOK8tr6npah1curMpqZxIG/s0pZSX+tpCx03xs7EcpQuagSsuCfnAF6f5NyahtaF9Xq6/tvDX60EvyinIdymGuFHMpWjoLFZrtetnH1HAoZChIqIk3sqBdOGZ/lUjrvpLwHKEPrTBQtjEpNWhPiQdGbMTNktE+MEg8oUjYEACXd45mSk/G34Pu2+qB12xyRotlUsQO4jwRXveIIZeMp6UmfRBbZ7A5xKTbLdTLZlx667CJJ5pBiVuChHwB1YYq2jfGv9Fxg9qnTG61oruy2qdAkuO6nEGkliSwxwkofl+7KaUJ3AZaqTt2YTC4lxAjqC6g+TW+aSvmS29HHLmWIyBFrLlcdeYckc0gomQhbNvXXezZpO5SJrc8YMOpapf2QR6Gc2AYxRthAT3MsoJTfXZ7jWmD28StWfIZCAnQvOT5XEqZhxHGNUhyJpEMBZWlTdHCbDEeh2up6FO2qlLE6R2FkwSOXHHLVqopARaAiUBGoCFQEKgIVgYpARaAiUBGoCIRB4D94eqd7nhR+MAAAAABJRU5ErkJggg==;fontFamily=Times New Roman;" parent="nyfXz0uPsz8sGl3F8VXS-62" vertex="1">
          <mxGeometry x="10" y="35.25" width="50" height="50" as="geometry" />
        </mxCell>
        <mxCell id="nyfXz0uPsz8sGl3F8VXS-73" value="" style="shape=image;verticalLabelPosition=bottom;labelBackgroundColor=#ffffff;verticalAlign=top;aspect=fixed;imageAspect=0;image=data:image/png,iVBORw0KGgoAAAANSUhEUgAAAGQAAABkCAYAAABw4pVUAAAEt0lEQVR4Ae2dS45UMQxF7wTYC599wARWBgKBYDF8NgFMYQIDmPEZgkCWyurS66rXsX39krx2SaXUJ3Gce1KOHaEGqEcpUAqUAqVAKVAKlAKlQClQCpQC4ynwCMB3AN8APBzPvevn0VcA/w7PL9dv+eOtWGFoO56HfT26B+AZgA8Afh+e8vopgLsZrikIbTPmmNHmLQAvAfw9iiCqkbZ/ALwAcJO5QDWuLdP2rLYExrsVEKqVtm+ZUNSotrOKyPT7lQGG6vac5YAa1JZld1Y7cmashSnVadlK+LrDWPTSMMPmzDbkAF9q0vr+CWPhy8kYNkew4c2OPgaAvGcsfG9AotnRzwAQGRt+7AkIIzsqIOEtdWGAkR1VyLrQM/SKlR1JBb6MGq3v61A/QsgSUq5DJIVthaD9ZMztI3/cL9Wgtm5DnQcyQ41ch6gera2ky5THckKK0Q5GmIex3E29MUB5DeAGa80FBDiVrgoUuQ5ZC1/ynfwyaDAE6l6AMEPW8WaX6xA5rKXo+3V4yuvHrDPjeLI9AYkc6iLuMI+9/EK6Z0csonsBInp0zY4KyGUFumZHl93xfbKnX4goEM2OvLfEPvVPjNobEF2iNTuK3hLrvOF2ViDMncy4JQ6DUAOzAcnYyYxbYtUz3M4EJGMns26JwyDUwExAMnZypKCkXLcrCG1nAZK1k7OuXFRfczsLkKx/DSL3U0sNWt+fupQ0A1gOWE6+/H6U91k7mXltT9FqFiBZwmWBdsPZCki0bsgCcu0OdVbdkLWTh7slzvyFMOuGzJ081C1xJhBm3ZC5k4e6Jc4CklE3ZO7k6C2x+xBfDswCkhFittjJ1lvipZ7h91lAsg7h6E6OZnthwa8ykAUkK03V9Vh3Mivb0/nT2lmBWARhZnuWeV19s4BkhSzPIpnZnmd+05gsIOxD3Rv7M7I9k8DWzllAWHVDNPazN4ZVX3P/LCDiSLRuYMT+kUJnE5xMING6gRH7s7O9JpEtnTKBiB/euoEV+wvImd1grRtYsb9C1hkg1o9ZQrLAWv13988OWV7HWKGGle1512Ee5wXirQtaHWQBkfmi2V6rz5R+ViDRuqDVaVbIkvmi2V6rz5R+FiCMuqDVaXbs92Z7rf7S+lmAMOqCVsezYr8122v1l9avFQirLrA4PlXstyxsrW8rEHYIWfNJv5sq9qvT0bYVCPOQtfg8Tey3LGqtbysQZhq65s+574aP/ecct37eG0h2PWPVo3v/ViDskLVVPdNdYKsDrUCYh/qW9YxVj+79W4Ew64It65nuAlsdaAUidhl1QY96xqpJ1/4WIIy6gBn6ugqXNbkFiPgQrQvYyUGWLt3sWoGoo966oHc9o/4P23qBeBcUAfLDO+lM47YGUiHrit2xNZDIoT7UX367Qlf311sDYdYz7kWPPHBrIKIFo54ZWdOQbz2AMOqZ0KJHHtwDiOgRrWdG1jTkWy8g6rS3ntHxu2t7A9mdoNEFFZCoguTxBYQsaNRcAYkqSB5fQMiCRs0VkKiC5PFLIPXe9yf/PgN4wGBTAHwATulG+f/oTxmuz3yQCkjgL4qyN90nAPcZIatslAKlQClQCpQCpUApUAqUAqVAKcBU4D9HqomAqQzSQQAAAABJRU5ErkJggg==;fontFamily=Times New Roman;" parent="nyfXz0uPsz8sGl3F8VXS-62" vertex="1">
          <mxGeometry x="14" y="94" width="50" height="50" as="geometry" />
        </mxCell>
        <mxCell id="nyfXz0uPsz8sGl3F8VXS-70" value="" style="shape=image;verticalLabelPosition=bottom;labelBackgroundColor=#ffffff;verticalAlign=top;aspect=fixed;imageAspect=0;image=data:image/png,iVBORw0KGgoAAAANSUhEUgAAAGQAAABkCAYAAABw4pVUAAAGt0lEQVR4Ae1bOasuRRA94oqIuIEGLiCuiKCJoYJL4g9QBA3E9R+YKhiIS+BL1EhQEDfUxERUEBMN1MDAREVccN/3wIXzmIG65/VMT81M98zcrxou39RMVfWpU9PLdPcFogQDwUAwEAwEA8HAGhk4A8DzAH5p/l4EcP4age4CJibjewD/yd8PAPgsSmUG2DI0Ga38bGUsUV3TRbUJ0N+fg6H6DPzY00J+qg8nany9JyHPBD11GbgSwD8dCfkOwOl14ex2bScD+DyRDI4bbBmRjMrvB0m3g/i/AK6tjCGqaxi4TZLBxDwY7CzDwDmJqe77AI5ZBs5u13okgLeldfwJ4OLdpmW56B+QZLCrumM5OLtd8xWJKe7LAA7bbVqWif5EAJ9K6/gKwKnLwIlauUhop7j8GLw6aFmGAY4RNhm85lgSZQEGOMX9VRLyLoCjFsCyqip1R+45AGcWRkjSSb5tHb8DuKBwvat337Ujx8W7kklJTXFvXz1bFQD27cg9Xah+Dti6ist98iiJZQrbhbCVnDAzS6cA+EK6Kq7qcnV35wvn/38LOTYhvOaO3d0AqDtHeUnqY0u5ag7HW/fBwfMDIUeTYWUewbkPwEkTAr8zUd/9E/ztG9PrAfyWIMcmoOua09QxibkQAGdR1u87uz7FPbz56OJmjyWG1x8B+Lo5A/VCs/+g3wjWhjt39w5sMUcDeE/q5Aux04fdOGi+IqS0BD/W8abShuMHT3e0uvrLpD2cWXd6KGF/a0d/o/69cofbdd2+BMDHCVL+AtBFjI2gTUzfkZw2MadZQwDXJKa4bIFdxZsA1e/yu5r7NwH4I5GMzwBc5kTJAZ3dFLsrJaKVmRhut5L01BHQ3BS39TP21xlSPfUjmsE3FdibAPRN9iA7HsBdzZQ45b/r3pApbpft0PueOKrpch/hjY63mP09t0rnKPw2uSczxlgieegtV6z+mOuc/+rP2Q2xO9Jg2G2x+ypRmBgO/n1jDPHwxHquKG6vnPNf9fktADhQaxCfALi0AhIus/R93ww5i6vYvXKFMPNVcCn70UQiGMyrALh+VKtwkbCLxCFncbtsh96vFeeees4GwJVYfsjxjx91Cpgff1zi5sdgzcIl+9TsauhZXI3DK9eM9WBdZwH4JpEAC5zdBpdHlipMCvfJOT32nsW1cYy5rh7zk5lkfLjxg2VjkmBtqiXkOAA889q3vsSl9LmWyasFJhVZcsdci7v5RS57PJL5Om6BD5nFzI9wXo9tLGN/50XTeDsWwM0A3sp0Twp6yCymCOAZnWpMXnlGKMBFAA4M+MBKgRw6i5kVcAFnqdg89yZD4jH7GwFwfSlX8bfNwt3lADi487ildxYzGXBhBzkOcs8HwbPnnkjiEwBIKvcJ+Gb3VcLvCa4B3QCAGz37vfRxMeRZlp+uc0855/zW4Ifdedka9pdCjpfc8ywbfeee1Dlbw2vNR12p1qB1euVswBMVvHhUP1s9T2uokcpc/uDpi3Oz3qYraN1eeTqCfg9ePKrf7z1zEI3L1dd17GdnHY9U0AC88shqB5t58ah+tqK+1c/Hs9bzK2gAXnl+RHs9evGo/l5vCYlHXbgxo4bsppb453fF4ZUTIc56y4tH9QeB4UyrXf38EsBTALhqu0TRALxyacxePKpfGt/s/jUArzw7IHHoxaP64m79ogbglUtH6MWj+qXxze5fA/DKswMSh148qi/u1i9qAF65dIRePKpfGt/s/jUAr6yAvPaqX9qf+l+drIR4ZQ3Ia6/6pf2p/9XJSohX1oC89qpf2p/6X52shHhlDchrr/ql/an/1clKiFfWgLz2ql/an/pfnayEeGUNyGuv+qX9qf/JsgbglRWA1171t+ZP8U6WlRCvrAC89qq/NX+Kd7KshHhlBeC1V/2t+VO8k2UlxCsrAK+96m/Nn+KdLCshXlkBeO1Vf2v+FO9kWQnxygrAa6/6W/OneCfLSohXVgBee9Xfmj/FO1lWQryyAvDaq/7W/B2yd64B5eStBZyLJ/e8dLyRkMSBjr6kREKchCmZpQnU+ryy4osW4ky4EuhNgOqrv0hIJOTQQ3j2rdE3xj4bc701f9FCooVEC7EtXVtwtJBoIdFCooWYfsGSMebauDp4OcaHtVF/0WVFlxVdVrQQ0y9YMsZcG1fRZa2RwDGYrI0mOMaQGENiDIkWYvoFS8aYa+MqxpA1EjgGk7XRBMcYEmNIjCHRQky/YMkYc21cxRiyRgLHYLI2muAYQ2IMiTEkWojpFywZY66NqxhD1kjgGEzWRhMcY8gaxpD/AatyT/jf1Ks5AAAAAElFTkSuQmCC;fontFamily=Times New Roman;" parent="nyfXz0uPsz8sGl3F8VXS-62" vertex="1">
          <mxGeometry x="79" y="30" width="50" height="50" as="geometry" />
        </mxCell>
        <mxCell id="nyfXz0uPsz8sGl3F8VXS-71" value="" style="shape=image;verticalLabelPosition=bottom;labelBackgroundColor=#ffffff;verticalAlign=top;aspect=fixed;imageAspect=0;image=data:image/png,iVBORw0KGgoAAAANSUhEUgAAAGQAAABkCAYAAABw4pVUAAAEoUlEQVR4Ae2a3arUShCFy6NPIhzFK+GI6CMovqkiiHDQO30WFe/8AREVL5Ta7AWdrsx0qru6O7NnBbaV9HSqVq0vk5mxI8KNDtABOkAH6AAdoAN0gA7QATqwPwf+iEj6tz+FZ6YohaH73CY7QCCTAeTlCSR3ZPJxK5AnIvJBRN6LyOOAXs4tn7GsFYiCQI53Jrt/4NzyGYdgJqKZUBg4NwOj+zX2AgSimVAY0NuUitR3x6PC3C0vn1s+4wlAIJoJHBjrAEAgjq3OasYBgEA0Ezgw1gGAQBxbndWMAwCBaCZwYKwDAIE4tjqrGQcAAtFM4MBYBwACcWx1VjMOAASimcCBsQ4ABOLY6qxmHAAIRDOBA2MdAAjEsdVPu9q1HvIBArFHjauW846IvBCRryLyQ0Rei8jdqCYBAjEq71XN80BEviRrQPDtWxQUJEScaeRtEXkmIh8v/3T/1kxBWW2Foe8KeJXHV9n8qsM8aVWSgJMOXXl6Neprs7cSDPVRb1/NnyutQCLWwEvN6lVZC2WEPnj4PeKqQTJEb87WJc0SDOiqhTJKn+p87jVvbT4aRlybc2yspeGtMKCtBsoofXprvXnMqK2voVnEredhXu0auBcG9HmhjNDn1QTvViMaRVydFDx4T0Q+H/m2Ai2HohrwMFhTms6jLxSGisibToX12Pc0m2tLj3tB8egLhzEaiKfZ1PxD+9FQPPq6wBgJxPOZoc3q3yEQ6XiUMV59Or/Lljan+z22mivvPxH55IDS8plSo6+HTxc5ewNpaXYElBZ9XaD0BBLRbE8oEfrCofQCEtlsDyiR+kKh9ADSo9lIKD30hUGJBtKz2QgoPfWFQIkEMqLZFigj9DVDiQIystkaKCP1NUGJADLjR5W35ugfmtVQWoHMvPI875S8z7XjqF/91TD0xFyYJ9lMGNAZBWUXMFqA7AFGFJTdwKgF4r1/e/4jrnYN3KMpvSt4YdTqw8VTjKk43S9tnsa9zWrtUUuu2utofSVvL173AOkNoxWInr9VYw2MCH0Xph/7ZyuQrY3WXnnQWLsGjvM1lrTWwtDcEfpSrWZ/C5BSg2mOlmaNuIYB1bz2yOdeHrw72Fpqpu7nmz7eudZYfp4e7wUGetDHUNNHU5+KyL94ca8xNzbX+f/Kb5X8nD3CyPs4mePc3FT4dRH5tQHI3t4ZaQ8nt38MyA0R+V0AQhjByI8B0VJvjwAhjGAYmq4E5P7lY/b5vN1/W+ng1ZCUudFrRRXKm8vb108ReXkK31bWGjmFsS1A0Id+yP+DA8Y+DniA9FHArAsHCGRhx/wDApnPYKGAQBZ2zD8gkPkMFgoIZGHH/AMCmc9goaAVSPQa87nlW8DQg1YgLWvgRkzjmvop5jOaCcRYcnQg+gI0xVqBRK8xn1u+cCAmIQfaHGh9h7RV59nGAQIxlswdIJC5/pvqBGIsmTtAIHP9N9UJxFgyd4BA5vpvqhOIsWTuAIHM9d9UJxBjydwBApnrv6meA+GxXZLweGIM9g54inFuGZbXfzOfJpdN9nhkDPYOeIpxbhme13/OpwN0gA7QATpAB+gAHaADdIAOdHXgL98USRZA5St9AAAAAElFTkSuQmCC;fontFamily=Times New Roman;" parent="nyfXz0uPsz8sGl3F8VXS-62" vertex="1">
          <mxGeometry x="154" y="35.25" width="50" height="50" as="geometry" />
        </mxCell>
        <mxCell id="nyfXz0uPsz8sGl3F8VXS-76" value="" style="shape=image;verticalLabelPosition=bottom;labelBackgroundColor=#ffffff;verticalAlign=top;aspect=fixed;imageAspect=0;image=data:image/png,iVBORw0KGgoAAAANSUhEUgAAAGQAAABkCAYAAABw4pVUAAAEoElEQVR4Ae2dT8hVRRiHH8vIRVqQ2qoU0U2lLhRXYkS4KNGdaAq1iaJwJ5obFyKiCG0SoqBFJS0KUfyDCyWStEJpUS0CMWhRIJiltiowixfuwY/D3OHOd9757nu4v4Hh3nvumZl3nt85Z+bMzHkPKIiACIiACIiACIiACIiACIiACIiACIiACIiACIiACIiACIiACEyXwBxgHbB5xPgS8MR0C1O6PIE3gT+B/wrjv8BHwNx89vq3hMDbhSKkRLsEPFRSqPZNE3gS+MdBEBPprXQR2lpCYIeTGCbIhZKCtW+awGFHQX5JF6GtJQTecRTk1yEFPwBsBz4Hzo8xfgZsA8yesCEnyLfAB634aUbAlCDW0J/KpEl1EGpvOwnMjqpITpDXEkbPy8BNCbI7s39t8Ln8dybqFmJTbUF+DCrI9yHoJ4yoLcjvQQW5kWARYlNtQawdyl06xvXf1yHoJ4woFeTRDOBUG2K9q3FBz5X7coJFiE05Qa4D37XiTxnAKUGskgeBe5l0OXDe/5kdB0KQH2JETpBSGMMEsaJXAnuB91vd6Ha3utZvK9fKXzGEQ5jNdvSWgh+2/89hatVjQ15xFMRuABU6ErAbPa+u6caOtij5gIDN/P3d8Ux5TzR9CawGzgF3C4W5CtgQyyxfc5RbQ+Bh4ClgyQjR7kkUREAEREAERODBwWzaJ4PGfZSZvePAHmCB8PkSWAhcLuxdTb1bvwW84GvSZOf2ZQcxGmH+AhZPNkaf2j/nIEYjyhEfkyY7FxsBbYB2/bTpWoWOBGZq+N3MtLbKhuFXjSFaub3ofMyEIAbDpky7noEe6W0N8vKOB3HV5DlBbFVj+2henwGbmqBaBtzOpPGAXJqH9QqXVqXaIfOcIB7rsnIL60pBeu5v91shQ21Bfgt2djSips7mEAJJkBAy3DeitiBHg54hH99HEOtbThCPRt0aT2tEm0tFhE+zx+Z7QoacIKXwhl2XrZt5MYgoXwHPhlRiYNRMCNLUf/6Ybwyt/PDBc+jkh/C17YGBnoOL7/agvr0w8QuH6/sdYFEvatsDI23Q7ZsOovwBPN+DevbKRJvC3TrwymDrs0aZwj0G2CNrj/eqpjJWBERABESgFgFz0TTqUtLHahmhfGENYN3f0sXW14A3tNja9xDa4OARyB4ZU3AgYCvYb3a4B5k6ALnJwZ6Jz+JVJzFMmNMTT9MBgB76dIDomcVMDb8/M1iYfQgYV7SF4U97wquRV04QL8cB+wFzljm1vRnXd7NjXw2QXnnmBEktAyp1rWEOw8YFP1fuFi+A3vmUClLqL6vLKHIOaNf/bAVjyFBbEK9n4LsK0E4/se6ZojowCzvdXPsM8XDS3D66PX7vCnm9AnKCeDnBPBusYT8T2Qt3TpDSI3HYuiybjbQRgRPAlZb/rbY/rlq/rVwr35ztmD1hgxwpB5NGrsaDCWLO+Lt6AmoubfbKCwUHAh7Ojm3trl5X4SBGk8Xr05wXsRnGD4FHmoz06UfAXDOtHfF1R/ZapBf78mSrHyLlJAIiIAIiIAIiIAIiIAIiIAIiIAIiIAIiIAIiIAIiIAIiIAKTR+B/cfZtG1D91y4AAAAASUVORK5CYII=;fontFamily=Times New Roman;" parent="nyfXz0uPsz8sGl3F8VXS-62" vertex="1">
          <mxGeometry x="79" y="95" width="50" height="50" as="geometry" />
        </mxCell>
        <mxCell id="nyfXz0uPsz8sGl3F8VXS-77" value="" style="shape=image;verticalLabelPosition=bottom;labelBackgroundColor=#ffffff;verticalAlign=top;aspect=fixed;imageAspect=0;image=data:image/png,iVBORw0KGgoAAAANSUhEUgAAAGQAAABkCAYAAABw4pVUAAAGdklEQVR4Ae2dWeh2QxzHv9Z6bfG+WbPngtJbUgi5kOXCciFlubFkecMrF4qkbGWLJG6UhCxlV1wJVyJJIbLEDXGFENnp2//3e0xjzjwz5znznDnz/KZO58w8c+bMfD+zz5zzAGZMAVPAFDAFTAFToCkF9gHwOICNTaVqwom5AsA/AG6ecBqaivpVAuSWplI14cQYkMrgGRADUpkClUXHSogBqUyByqKjJeR+AAcC2KGy+K1cdBQIxyI8vgGw1cqpUFGCFcjXAN4B8GhFcVvJqCgQGxhWgt+AVAJCo2FAVIlKzgakEhAaDQOiSlRyXkUgBwG4PKN7fxKA05bFaxWBPCFjrmMTRf4OwE+Jfhf2pkC+APCKczDS6xYOvc4AXhQgxydG7zcAPJZiFIiO1PX8OwAu77ZoJgHkQQCHO0erMJjBJgFklUbqBqSyes+AGJB0BbRRn3KVtQeAh+bsLeM6z7sAPgfws/SyOMNN+2MBuY4D8Jn8/jcAHvTL45KA/8GcWgBCgdg7vC2iyjHiR3uR7vnPwH3cp+b6ca9fCvgfzKkFIJeJeHdEVOEg0BXVvf4rcB9rDNePe/1ywP9gTgqED2FOO3qwkJcXUJNANAdwRLr18rQc5ElNAmGD9wCAiwaRaLmBNAmkpl7WlgCeAXBtIlcDkihUX28HSIP63pwAtgGwC4Crxf+9Yt8ucN/kGvWaSgj3h7FNmwfkjY6e0K+BiVEDEsilqU6pQLhGoZ0R/8xFJdcYEFeNzGsDAmCKVZaVkMyc3td7iRKyK4DXZHcm57BYxX0p9ocDER19pK5bSbmdlAdH7tsHIlrSiUvGXCQ7XQT7VOyHdQxWc0qIG+8bJXz2zrrM6ED8RvEXAHt1xbaQ+92RRvrKwDNrAsLuNzP1XYF4ZjnpXJa+jsDqgsf6hFC2TfCT4+XpCBDC8k1NQI6QuL/qRzLXrkByG/XzZCcGu5NDGQMCoC8QjopZzV04FA0ABsSAdGan3EZ99Cort4Rw3mlDZ/LXfsgtIT9G2pwTIs+6Xu5j7dBlmgfCbvQPc7rSuUA2y5LB8yLwV2K/B8BOXUoD2E96Q1yL7zLNA/lERIt1pXOBqJhHSdjcCjuUSQXCjdtcab1V4vCx2Nm29hrHaaPO7to1APxJua4E5lZZrQJ5VkD44zjaL+0SL+auQDRA7umNLeGeKeB06pu5miDpHjOtAnk9AuS6mCBdvykQCnw7gLO6PALYGQC3zCg890x3jla7jAHpUsZzVyCsM+eZvTtgKJh9IwEYkIg47k8GxFXjv+vURr1YlVWihOwoX6pjVfitlC7OmdEeelmmby+LnydkKeUm6qHMDZHa4AXnIZMCck4kUW87idLLvkB4/xkA9teABjjvJt1Xdmn5dhmBc9qe9kOc8CcFhHu8tH3xzx86idLLRYBoGCXOb0o6Dg0EbkACopR2GgUIF1bYbdUjtNaR28uyEtIjq2gvy69SvgewuxeeAfEEAVCsyiIAfSGFZxZTf4KuNJBHIm3OmN8VHqXKKtHtza2yOD3PaXMeujx7sth7TdT9P0P3cqkWCNfZ/+jIxZw68dc7coG4arHEshqNzau5/ktec3zDOb7QTHWxKiulhDDRB0uOvVME4yCJOZruvmkFCAe43AAeMqMD0UidL0DuU4fAuRUggaTNnHRxzO8U0b5p5ivjQntZqSVEgzYga0qwbePmPl1T57Iy7ZzO4Xsu2caAZEsWvIFtHUsF276FjAFZSL7ZzYMD+QjAUwBumj0iflG6ynpLXtzfIh6Nan4dHIg2Suz/p3Q1SwNhHELTN9UQ8CIyOBB+XoLdV+7rTTFHylbSiyOeTwTAl/IVtnsu+jWESJxK/TQ4kNxeFhOW0ovgC5icsNTdGWeLfSpVUSrAKoCkRpb+npSScmrOTRPzy0W3hT+70beXlavVKgDJ1STo34AEZRnP0YCMp33wyQYkKMt4jgrEf6WNuxSHNNqGnDJkoC2GpUDcMQKv+Rm80Px/Xw3OlVXIPfsGsCr3KRB/CZe74e3/qEbIBQqkz8BwhOi2/0gDUhljA2JAKlOgsuhYCakUiD8O0U9s2HltSaKUDtyxz5nimYntmvDHJmYPr+0sqstzMxoAPuhYQFr0IXZ/OjwymBkDki5cqUxmQCqrFQxIzUDeryxypaqFmsMlg5nhNzncv8uz6+XrccGMhl2YAqaAKWAKmAKmwPQV+Bd4zJZTCttvuwAAAABJRU5ErkJggg==;fontFamily=Times New Roman;" parent="nyfXz0uPsz8sGl3F8VXS-62" vertex="1">
          <mxGeometry x="154" y="94" width="50" height="50" as="geometry" />
        </mxCell>
        <mxCell id="nyfXz0uPsz8sGl3F8VXS-196" value="" style="shape=image;verticalLabelPosition=bottom;labelBackgroundColor=#ffffff;verticalAlign=top;aspect=fixed;imageAspect=0;image=data:image/png,iVBORw0KGgoAAAANSUhEUgAAAGQAAABkCAYAAABw4pVUAAAG6ElEQVR4Ae2cV8j0RBSGH7vYFSs2LKAIKvbeUFAv9OL3ShErimJD7FhBbGDFeiGKggVFxYZdUawoKIooil3BXrFXXtzwz84/J5nsJvvl25wDSzKTyZyZ9820M2cWXBwBR8ARcAQcAUfAEXAEHAFHwBFwBBwBR8ARcAQcAUfAEXAEHAFHwBHIQmBf4PAO//bKqsUUJfoA+LfDv6emCOusqjghWTBNLpETMjmsszQ5IVkwTS6REzI5rLM0WYR8Cbw3wd+3xsTCB/UBMAdl0dlconOckP/BtFqIE9Lcx1YrJyekAq5VgAOA64EXgC+An4F/APWz7wD3A2cD2wMLVORX9dgJSSA0HyATwSPAX0Zfaq2mPwXOB1ZK5JsT5YREKO0AvFqThBQ5vwAXAotH+VcFnZABQosCVw+6ohTAo8YJ4G2qWAieOyGD7uWVBlqFRdofA+ttgLt523tCVgPebZGMkKRTTBrmPug1IcsBb2aS8T5wBXAMMAfYAzgQOA14GPg9M5/D5mKfvOstIZpJPZgB4j3ApknohiOXAo4eTIvDVhHfq/vaevjVoVBvCRF4MVhh+OPBumIIrYzAEsBVFXkL9MWMvHpJyMrA9yWgaQGoNOOIuia1hpDk8F5rlZT0kpDLS4B6C1gmhdQIcQeX6PkVkBUglt4RsuzA9BF+rcX9d8A6MUJjhq8pIeW8RN69I+TIEoBOTAA0bpTGlM8NnTKzxLav3hHyhAGOBnGt1tuQYw2dapnbRgp7RYgAl42p6KLCa6r7iLAaOagpsbVOOTPKtVeEbGaQIWLK1gYRZiMFHzV03xvlZhFyo+E8t3P0voLrGWnrOOBpSyH8YIv7Rrdw9zOUaMYzf6JiTUadbuh+O1JiEVIAEl9FVCEaj04FfjN0xe+OEm6UkOONgsos0rZYU2BtcoUyKiGaHT5j1G8U4K13GiXkDKPAWgi2LbJ9pSr5Z6S4LiE3AyeUjI0pnePENUqIprWpwrwegdJGcB9D90+RsrqEiNBUndqKa5QQmTNSBf06AqWN4HGGbk23Q6lLSKo+bcY1SsjuBihyWFg+RKWFe+1GpoB6NtL1tOEM96PxfirPIk6Tlaad626NyjtWcMWSSrXt92R9+bIM54hmUwXQOdfnB9PfnLxnNI1mVKkK3ddiqbYwdKoc+2fqzSVEC18N8rFJJlPN5JNdZoCjbksLxzbkAUOnzPPatcyRHEJeBNbPyaxLabQiT7UQxT0OaCexSdmlRJ92LHOljBCNFSfPplYRV1r9q0WKVtRNiTa5PinRtVsNRRYhrwEb18ink0nllWgR8jegg5fjytLASyV69KxOa4wJkXlEDhYLjlvQrrxf5uCg8UReh6Pat9at8GYR6VvVBCIkRGPFBjXf73zytQbO0lZLUfyTwOY1aiLHBX21P5S0DOV7SY08i6QiRDOok2bzWFFUxrruneE6qtYiU/QhwAqJjNSKtgMuAj6rIEJkPAcslMinKuqI2bKuqKpI1XM5vpW1kviZzCxvAJoYfFSy8RS/p7Cc8lKkVpWxd89llle/ngKxqTiRmPIy6R3YuRVW96X5fFMEhPk8BCyZWxBPB5oV3dESGSLmG0DW3lljzpipj2Jh4IKWtzzDlqKDQLJruSQQWHUwMIeATeJeCzq1FpcAAR1bs5zXLFI+BDQWXDdYNGrhKEPlLcDLI2yhal2hFtp72bHElTQkQ+sPbRZpl3GNDNQWAeSScyXwVeZ4dNc0mT4yMJonibwEq3beRMRtwIbzvJ0fIYe8oyoMiwX5t/d1sF8bkDN1AUTqqoWbzpo3JfLrvThjjaOur1eivrrM8ipybig5RDMuWLtWnKxSq9Q6qDeirzTVIoo4/QtD26K1jhwOCp3xVWuV1dsuRBfy36iiyzhrgoXUiV/N1mIyivCdEyzLjKnSCdmiwvFV3dSkRZMF/VdKXBaF1XW17fQ96foO6dMWaariitMAbh28HMqkhcChJeWSf+7UitU69CXuNMO1tg4O6WPZcobL1op6mUasf/LROmOmRV2XPoxUC9a5xKkTnZNIVVYgjLPoaxKou40y6ohCW8frmix/rbxkX0oRInNIV6RsjNuzK4VsohwarK1D+1X/NdKE/tw8tB9v7cOfm5vJbEgnA2KqdShuzY5V4CajrI91rJxjFUfOxilCtCjrmlhTYLkSTY1cahCi/YyuiSzQqY9HcTJOToWEXn5hZa/tYO3kiRKWMbzvWvc6Mnw66xFWrLjXLl/XRBOQonzxdZOuFXbU8ugPxzSljH/aE+mixOUswk39K1EX6+xlcgQcAUfAEXAEHAFHwBFwBBwBR8ARcAQcAUfAEXAEHAFHwBFwBBwBR8ARcAQcgalC4D+2A8VyoGR9XQAAAABJRU5ErkJggg==;fontFamily=Times New Roman;" parent="9GA1_ZZ8TkLPx-6e-POV-2" vertex="1">
          <mxGeometry x="19" y="40" width="80" height="80" as="geometry" />
        </mxCell>
        <mxCell id="nyfXz0uPsz8sGl3F8VXS-197" value="" style="edgeStyle=orthogonalEdgeStyle;rounded=0;orthogonalLoop=1;jettySize=auto;html=1;fontFamily=Times New Roman;fontSize=12;endArrow=classic;endFill=1;strokeWidth=3;entryX=0;entryY=0.5;entryDx=0;entryDy=0;exitX=1;exitY=0.5;exitDx=0;exitDy=0;" parent="9GA1_ZZ8TkLPx-6e-POV-2" edge="1">
          <mxGeometry relative="1" as="geometry">
            <mxPoint x="99" y="68" as="sourcePoint" />
            <mxPoint x="160" y="68" as="targetPoint" />
          </mxGeometry>
        </mxCell>
        <mxCell id="nyfXz0uPsz8sGl3F8VXS-198" value="" style="edgeStyle=orthogonalEdgeStyle;rounded=0;orthogonalLoop=1;jettySize=auto;html=1;fontFamily=Times New Roman;fontSize=12;endArrow=classic;endFill=1;strokeWidth=3;entryX=1;entryY=0.75;entryDx=0;entryDy=0;exitX=0;exitY=0.75;exitDx=0;exitDy=0;" parent="9GA1_ZZ8TkLPx-6e-POV-2" edge="1">
          <mxGeometry relative="1" as="geometry">
            <mxPoint x="160" y="88" as="sourcePoint" />
            <mxPoint x="99" y="88" as="targetPoint" />
          </mxGeometry>
        </mxCell>
        <mxCell id="nyfXz0uPsz8sGl3F8VXS-200" value="配置文件" style="swimlane;fontFamily=Times New Roman;fontSize=12;strokeWidth=2;fillColor=#FFFFFF;" parent="9GA1_ZZ8TkLPx-6e-POV-2" vertex="1">
          <mxGeometry x="18" y="164" width="229.51" height="85" as="geometry" />
        </mxCell>
        <mxCell id="nyfXz0uPsz8sGl3F8VXS-193" value="" style="shape=image;verticalLabelPosition=bottom;labelBackgroundColor=#ffffff;verticalAlign=top;aspect=fixed;imageAspect=0;image=data:image/png,iVBORw0KGgoAAAANSUhEUgAAAGQAAABkCAYAAABw4pVUAAAJJ0lEQVR4Ae2dZwg1NRaGX7tr7wUb9opYseAPu6IIlkVUVCwgrr2BBUVFUdEfKliwoGL5o9jFwqKyqyJ27G1dFRs2xN4Lj0x0vnxJJpl2Z+bOgcvMZFJO3pNkkpNzcqWRRgRGBEYERgRGBEYEUhFYQdKZki5NSHiApN0kzZaQZowaQAAgt5V0s6SfJf2e/XYOpDGvVpf0fRb/A0lnSFrMvByvaQisJuk8SR/nhGCEwfUdSfMEspxV0iOOtD9kwt0skHZ8lUNgZUn/kfSbA8y8QLg/K5fOvj00Iv2jkvaSNIedeHz+G4HlI4A0gvlR0pp/J/3rbmlJXyTks/5fKccbJwIfJYBJb5rFyuW2hPTfSJrdSj8+WgjckwAoveV8SYdIOkjSyYlpH7TKHh8dCJyeCKoZwspcmUaPVIDATi0KZIcCXsbXkhZvSSC/SlpwRDwOgXdbEMoLcawMO9YqkvaWxPTWR+skTlvLfDtI84ykuX1M5MJDC9BctH7eXpNr+R9KulvSiZK2yMBhYUh4WZBT0z0g6R85KOfNeDk6W9GjKWAaPUhCj/RdAGz0TikLulTwffGZ+l4m6TlJvzj4+0nSUkOUSOoawQfgJMLpxYMitLZvO1rfJMAtU+ZbDo1ArwX0zx4Lwwhwy15LwGIenZOpWF+vN1l16u3jug0Jg3UEs6G1JTE74sc9YS82UCaTjkV6K4Uc41fVDA6bTP+SxCaUj3h3mCRU9HX2yKN8BfYpfN8ap7MIY6uEym9ds1BuTyi701GXkZSqVne1bHYCU+nwGnoJ66dTJM2ZWnjX42MFUnbxxzcjNEz56s6U+6UKQrlX0kq+zIcQzqqXru/qAaGwKuP3sSXKQ4Wz/xAAj63DlYkgrRWbsSMeCsuQsO13N0hawJHPoIOwk7KBCD3PVwGN+RPL2rVCWb1N2qZAaO0hYdvvpk4gWHrcmAhSm0PWfr1t5iUY31DSk4nCoAWzAi9LxyWWh8r9YklVhsmyvLaWblFJV0daJdpDCM+oQ8oYTVeZ9v5fUowdcWsg1lEQhmwHS/ossZW6hII6JJWOrKFcdg2XSy24i/FZyP23BkCMcNBNoQ6JpW1qVJ18XXHYjOW58Xh31igQBINQUIeEhi/e0TPqVi4yEek97VKzQExvQR3CCpxFHx9fftwTVkVVYvJ3XTfpvTQyY+b3GxKKC7Smwh4fgjBMHc4egED2MZWZ1HUuj1mM3QIxnSFuiFaUhOmmnbYvzygaJ656T1HIsXVaRP/usUCwyJ84pViK7BHB7Z4FAsExcxI95mlJ/wuUzUytE4ZypwaYtIFjN62I6PKfZHliTH1r5mCznaSFs8QXJpRp81Dm+eGcfS/2xux/XJc5lZr8Gp3qoqBbqAi57D17Aoapouv1kXluKonFWojaEgrCwFLFR+wSomGIGY59eQTD18vUF7ROjJuL6KkEgTxRlJmkjSS9LulLSRsH4jdlNmQ3qksCPDT+ygjDMIUTPvsRvtUu+qevEgQCyD4iLzS1+VUz++o+71dMfAyfTV7ROE+EbGHkK/mQJCxCbFq2BCi4I9vEx/B+T158T1xuzSlDZb4uqfc0kKLpul2fys8bSPrcA4ipAMAYFfOSWc8pYxj9bOYJa/wtmHkVlf2eJNYoeQrNeAzPdV1bVYXECMNUjJMT7pP0bYHwTPzQFTU7eYXi5N9hWW56KT0q/y7m/q7MuYbzUMgrJo2JgwKyFQoNU4aZLl3fyOb69KoUvuwpKROC/CE1RXnFzg4rCY2p3KeJFStivI33z0u6PIFvTnxgF9KmixLyeM1O3NTzBQlMtQF2TBl3ZPN+visx8X2WIZj8xGqXsRVuxamT2QOmlzEV60Ic1CbmLCt2GdlDQfflOxXIHqrshl2k9mE9hJvaEnbCJp/5juTn/l0A3sUDWmAOKXMRh5Bh/cEhMSYtQ1WMnwYeviYNV/w7+PBTln1gjavsRsJOs5jKM9iV+3Mjao6hGwfMvCpp94j4ROFIQAT5ctYbXN+byKzqi4ZBGmqNroBv88FqOeUAsVTrd9ditT50S+ZEtw/5h9sgtfVM64W3qaS6LT/qENo5UymJbPZiTuesA8i68nhzWk9zO6niNwSTmmMc3q6Y2/DBrCIg31pikJ2Hc6fYjeNI1TKgMWU+IqCiBzTU93g2YZxcpgw0wfA5KAIUPo7sWTOFxCeu6v40wvCtDVzgIfiyQkGQaIWxe7pWEj2aqS07dRO39HBVtigsv2gq00pdaegZqcQmlCuvKmGYGPWOqlTYlZZvhm8nMQQOa55XGhBKqMxOvnOBWiWsTceYGD47CXqIqZhKpcRp03Ushq9Q3Tv5LqZSKXGquHGlervG8NVJ0ENMxVQqJQ6glqVUb9cYvsryMrF0MZVKiVPFMCzFHjiWp4kBW7bg2IrFxmMFXpZOGGdZ9c/9UYeUnfayXxEr+Nh4ZRvHxNI1sTAsc9ALPSsW5Nh41K13xKYNJ0ZjQsNp/7jwYmzm24+OAQM1COqQWNq+ouoEXrGp4pQg6sCe+Kolj2OK5bn1eMyW+K8l3/84FQkGobBIDP3hCe/oGWX1WJwsvbmkKjO71oGtWmBV836+KRxNYXu7Hl+DqmTHqpXrY3q6vusI7aIe0vR7tgXKTB76KIOZeEYl3zTAqfmH/mVtpgoMKQB71y4aOWBdGGNfNSRZ/PmxxH41tfW2FR8/w6kijsduC9yy5Rw4LRJh168sSG2mY/HHX60Omrr63fAJGl/xFAvGXgmPRVaXvxs+oXAeyiCJHb8i3z4fKJMMx8ko5Dfea2H1zaUNN+mQ73qvhWGYT3H6ZJ2C/S8eRVV7CY6jLERjlZv0ZnidCooRCu4Ka2RoYEWIoVoZa0dsdTkfxVgi4mptzjbxCXmqhGFanG/4wlv1PM/sJvX/aPGCco3/uIz5XKSnYpgyQrCvtlDQ4HKgsY84eMXXql3h+Oz5yBytkVfRT7UwDFAIhSHkigjPUza9UlwYbjGFBK58tNk4G4WRA8k1rORez3Cb4sUbe+IaR0NVMcSbgcFpe6DVu4YnV9hU+XlMqiGwX+EC3xU26L8EmpQA7HL5dzUX+HYY52pNzO/bZnrIz5wAZ4Pven5syCCMdRsRGBEYERgRGBFoCoE/AMnHTNbqBMHdAAAAAElFTkSuQmCC;fontFamily=Times New Roman;" parent="nyfXz0uPsz8sGl3F8VXS-200" vertex="1">
          <mxGeometry x="9.51" y="31" width="50" height="50" as="geometry" />
        </mxCell>
        <mxCell id="nyfXz0uPsz8sGl3F8VXS-202" value="" style="shape=image;verticalLabelPosition=bottom;labelBackgroundColor=#ffffff;verticalAlign=top;aspect=fixed;imageAspect=0;image=data:image/png,iVBORw0KGgoAAAANSUhEUgAAAGQAAABkCAYAAABw4pVUAAAISklEQVR4Ae2ddcg8RRjHv3Z3IhaKjWJhYIuILYjYjd2F/mG32GJhB4iYqCgqdotiYmBhYne38vG3C3v725nZmdm927ubB17ubnb2ie/MzjzzzDP7SokSAgmBhEBCICGQEEgIJAQSAgmBhEBCICGQEEgIJAQSAgmBhEBCICGQEEgI/I/APJIWlbSCpHUlbZr98Z2yRSRRJ1HDCMyYAX28pBskPS/pJ0n/1vz7MbuHe+GxiaQZGtZxpNlNKmlNSadKekbSXzWBr9tA1PtT0tOSTpG0hqRJRhrRQOMWy3rwOy00gKuxPpJ0ejYEBqo/GrfRMzeW9PgAGsHUSI9J2mjcnhqGJSbh5zrUEOUGelnSTpImG42+b7ZiNUkYWwYg9vd3kviL5VO+/0VJq5rNGd4rc0i6StI/gaAxzt8o6URJ22Wu7dwGjwkvimsrZnVPyu79OFA2Ol8hafbhhb9X860kfe0Jxq+SbpG0Z7am6OUY/ou1y16SbpWEjPITYfv9laQtw0UP/s6pJV3iYTQ9kQl+D0kz90F9ZNDgT3joSINdKGmqPujXqAhWyoy/th6XX/tb0s2SlmtUAz9my2dPJLrketk+WaAu7CdicLWZBOsOUaygFx+cqhNJXiKbb2yNkV/7UtLKE3HoWMF6kn6o0cvekrR+x3QvqrOWpFdr2EEYh3VLJ2lHSX84jCBscbSkKTtpQa9S6HhMFmrJn4qqT2zevvfWwf/avEbcCdd19cGr6q3BSpLec3Q0Ym6d8cDWkfSbQ+G7Jc3mDUV3bmANcq/DRtxohrqB0jKSvnUoeq2kyQeqZTPCCaNc5rD1+0F6i7NIet+h4PkjFqgjIMq+StVckpd9OIjRAMXucijGhDiqdKzD9jv63RGPcCh00ai2RMGucx0YHFKo2+pX9qxt7i2LPULso07YSMAzH6rKn2DUevQBJdhaLQvPf78iaZo+tATzF6tk9iz2k3Rk9ndwtiYgzN+PeBjxuhcseDzbdufc1yKchIK2wiB4aayIL5b0hkWHvGPwSbDyzeyeDVv09Ijb4V0VZRe/EyxtheaU9I1F8LYtSJ1L0mmSPrXILRpv+w4Pkifg2TTtYNGPsH0reykXWITe1rCFpP+cI+kXi0wb+LZr8DxTEjKaJDwrk9zzmhQEL3qVCZyfJS3YoMAtJH1iMc5ktG85T8xmDeo9vyVnDIwYYRqjMywA4QI3QUyQuMu+wMbUB6iFmlA+43GURX+Gy0ZoVktInVVpE5FbPCJScGLA9b2X+FvToXN2Ek1790z8eIfRdJgFqP2juU+Y8F6yyPAFuk59GmODBnSvYsGC0KQDbnk0mcD6rIE1x7SSnrQYYDIspvz3hueOMsDY9LnBJrZ+o4horsl4xssYIh5m80xMcmPKWT2zd2MjtgnQLYaI45n0XCqGMe5hFWOSAeaLYSzJNhRWyYwtYxNpG4fOeEKvSYodWvC4TAkT5BEHk2mn7P5gjhNuJJmAoSMW5Lr30xhbO3QmmS/fR2eOQccYeshgHwnlQYQ7aDKY/fNQYjgwKWuSF1NOY7j2vBmmyimuD4QamN23qwW/oHXb7gaGGBjjvnFoJgZgn3sZNnZxAIstpgBhjCfGcsE0bNFY3nS9ATiy1mPoKQNfH6Dr1CW4SKey0UyOLHx0jSFTsuB1IUxZ9FUZzqo9lMjgqOLZdBmNsbdDSWJZnKRyyWb/J5TONvBn69uLyCDHqCplOWQTSuTFVvFssgy9D3AoOL1HTi8h/1DiHEyVbeiIDrWJVP4qRpTNW5tLb0U2t76w8DXJ8y13bZ1OJ+kRDz0IdIauSxawyPHaTeQMRhUQpE6GKresgWeVnNAyV6CT3cwHA/QgGTuE6IQEMKvscbnhPfJOMDDBGwmlgww8q5QNKXNFDogm3xeoA9vEoWQKPR3nw9B0ruMmHyalupcHglGncciVshFRWLIn6/CqqnOljbnjGgePqnh6zU0ml/dSh3Db5bZO2xLesdEUDcTMHrYJcFzjOFxVg3i5vncamODGhVIbZ9CvcShDY7C9XAWIT1lwuEOSKX/rdofuPZfpEVUKu4aGHialH4Trq3iGluE62pIHyFRhiA3lX7yPcHoocVC1yCv/jnNRmx41MDmwNoeJK9pSZXIlfT45wWQiEqNNw66PjLwuuoeSyZkB49pkesxWqc1h4opNpPLkAOWfVWsiXE0y7vM6TXyieyhxxK9KB6/hn1D0uyVGeEkx9HaJX5WSvmXMdcUTsXy/ugU5JNzFUHliZ06yDbeVsgif7JMlqhGhjSXTvOTbCOX6r0s6WRIvCKib1Vjm4frtNd4bgAJDkv7A1CtsYuAXXYzL7DK8q9e91gzRSPWJgS0vuKsNkevlihz3CcJmxSw5xE8I7/MaOSIoaUoiy3tiFz8/GLmWKBh01hA+JVFZIgXbO/l16SFskKg8qk62QkkpUoi6ODRV6XRPSfeR/Ln2EDXIML55IqjTEOms6pFdKmMfY2yIvWafFyL3u6E4LxmbKjt0jblbh5+SnYcOzYYUbiMQGPs0EQgcW2JHz/WWnViAfe4niFiMHo9lwxBV7vdxtqpGYsOoE1HYLvQC8qUG6Xmx706aUKICAsS6eEUG2fVVPbiNMmSRJ8AuYyIDAvy7irY2moqNykmpsVn4GbCuXcxRa9JCSWQogtjEd/KLD5eEQ5HIEwEm2UMlsU0b2xg8ESRik2ydqAEEyMhnvMcjc710k8ajDnW5JzRZugG1x4MFeVe86pvXLvGyf97hzh/fOYbGtZH/3x/j0dTJyoRAQiAhkBBICCQEEgIJgYRAQiAhkBBICCQEEgIJgYRAQiAhkBBICEQj8B/pCaok/TdgXgAAAABJRU5ErkJggg==;fontFamily=Times New Roman;" parent="nyfXz0uPsz8sGl3F8VXS-200" vertex="1">
          <mxGeometry x="83.51" y="31" width="50" height="50" as="geometry" />
        </mxCell>
        <mxCell id="nyfXz0uPsz8sGl3F8VXS-203" value="" style="shape=image;verticalLabelPosition=bottom;labelBackgroundColor=#ffffff;verticalAlign=top;aspect=fixed;imageAspect=0;image=data:image/png,iVBORw0KGgoAAAANSUhEUgAAAGQAAABkCAYAAABw4pVUAAAC9klEQVR4Ae2bS47VMBREawpsgDGwGXaD+O2Rz5zPgBFzxGeIGnQFllDkxnEc25XkPKllJXF87z0V572OUxIfCEAAAhCAwHEI3JP0UtJbST8k/Vr8xb43kl5Iunucso6Z6SNJHxcCLAX5d/u9pIfHLNU/65gZHyrESMKEKMyUDvrGbSpBrm2fd8jn8kPGd0atEKn/68vT6wAg9wWegJfa7x3yufyQJeil45cHuDeAEvDS8b3zufx4JeCl45cHuDeAEvDS8b3zOcx4zyR9bfhFVAK79XgCuPV8t/M+SXqcirqtvS/pp6EYATN93MC25PM5FXVbG4LcIMjm/5dqxSkKEkI9kfTFUJR0EdUW7dp/1S0rFd2jbQXTI6dLj4kgZvIjCIKYETBLJx4Qbp0l38xqOUU6PH43kzHWyLfOkKdmtZwinVjCjeXYWlHeSbpzCgKGRcQLCzWihBgPDOs4VUrxwkI8wHz1n9eA4ljcppgZp5KeYiAAAQhAAAIQgAAEIAABCEAAAhA4HgEcXUaa4egyEgNHl5EYkQqOLjNBWFI2EwRHl5kgtUvJy/5m5Rw/nSXg2u3jEzCroFaAZX+zco6fzhJw7fYwAq4OqlpgvfsnQbbGWWVHcHZQbS2813mtgkReRcOOs4OqF9it4w4RJIK4Oqi2gut1Xqsgq25ZKcgV2lahrsBoaI0IMhR3ORiClBkN7YEgQ3GXg+HoKjMa2oPH70Nxl4Ph6CozGtoDR9dQ3OuC4ehax2loLxxdQ3ETDAIQgAAEIAABCEAAAhCAAAQgAIE/BHAmGV0JOJOMxMCZZCRGpIIzyUwQlkbNBMGZZCYIr9cgiBkBs3SYIQhiRmDndGY7qFI5rTPN/fxVdgQHB9VVBIkL5hAOKgRJBP62sx1UKR33W05rfqtuWQlGS9uaaEtszs0QQJAMlJm7EGQm/UxsBMlAmbkLZ9JM+pnYPH7PQJm5C2fSTPqZ2DiTMlBm78KZNFuBTHycSRko7IIABCAAAQj0IvAb3FmL1/3gBXIAAAAASUVORK5CYII=;fontFamily=Times New Roman;" parent="nyfXz0uPsz8sGl3F8VXS-200" vertex="1">
          <mxGeometry x="162.75" y="31" width="50" height="50" as="geometry" />
        </mxCell>
        <mxCell id="nyfXz0uPsz8sGl3F8VXS-205" value="" style="edgeStyle=orthogonalEdgeStyle;rounded=0;orthogonalLoop=1;jettySize=auto;html=1;fontFamily=Times New Roman;fontSize=12;endArrow=classic;endFill=1;exitX=0.5;exitY=1;exitDx=0;exitDy=0;entryX=0.5;entryY=0;entryDx=0;entryDy=0;strokeWidth=3;" parent="9GA1_ZZ8TkLPx-6e-POV-2" source="nyfXz0uPsz8sGl3F8VXS-78" target="nyfXz0uPsz8sGl3F8VXS-200" edge="1">
          <mxGeometry relative="1" as="geometry">
            <mxPoint x="-7.5" y="559.0000000000002" as="sourcePoint" />
            <mxPoint x="71" y="558.9350000000002" as="targetPoint" />
          </mxGeometry>
        </mxCell>
        <mxCell id="nyfXz0uPsz8sGl3F8VXS-206" value="" style="edgeStyle=orthogonalEdgeStyle;rounded=0;orthogonalLoop=1;jettySize=auto;html=1;fontFamily=Times New Roman;fontSize=12;endArrow=classic;endFill=1;exitX=0.5;exitY=0;exitDx=0;exitDy=0;entryX=1;entryY=0.5;entryDx=0;entryDy=0;strokeWidth=3;" parent="9GA1_ZZ8TkLPx-6e-POV-2" source="nyfXz0uPsz8sGl3F8VXS-62" target="nyfXz0uPsz8sGl3F8VXS-78" edge="1">
          <mxGeometry relative="1" as="geometry">
            <mxPoint x="210" y="129.99999999999977" as="sourcePoint" />
            <mxPoint x="142.7550000000001" y="174" as="targetPoint" />
          </mxGeometry>
        </mxCell>
        <mxCell id="9GA1_ZZ8TkLPx-6e-POV-7" value="基准" style="swimlane;fillColor=#dae8fc;strokeColor=#6c8ebf;fontFamily=Times New Roman;" parent="1" vertex="1">
          <mxGeometry x="-35.51" y="570" width="535.51" height="250" as="geometry">
            <mxRectangle x="160" y="620" width="100" height="23" as="alternateBounds" />
          </mxGeometry>
        </mxCell>
        <mxCell id="nyfXz0uPsz8sGl3F8VXS-212" value="" style="swimlane;startSize=0;fontFamily=Times New Roman;fontSize=12;strokeWidth=2;fillColor=#FFFFFF;" parent="9GA1_ZZ8TkLPx-6e-POV-7" vertex="1">
          <mxGeometry x="15.51" y="68" width="104.49" height="140" as="geometry" />
        </mxCell>
        <mxCell id="nyfXz0uPsz8sGl3F8VXS-211" value="" style="shape=image;verticalLabelPosition=bottom;labelBackgroundColor=#ffffff;verticalAlign=top;aspect=fixed;imageAspect=0;image=data:image/png,iVBORw0KGgoAAAANSUhEUgAAAGQAAABkCAYAAABw4pVUAAAIJ0lEQVR4Ae1dSc82QxQ9CBuChcS4shP/AUvEzo6wI2Z+hl8g+BnGvXmOITFsWViJOQhCjry3U05X9a2hq6uf7+tK3lTdvvfce+rW09XVw9sNHOXIwJGB08jARQDuB/AegF/P/t4920bdUTbMwJUA3gLwT+LvTQBXbMjnvA51IQAmPDUYtv11ABec15lq6PzFAJjonHJvxmDYoNyT4/BctbkEwGMA3gHwS0HSLHm19YsArj/7e3nDuOzj2wAeBcC+76pcB+CjDZMRDh4Hw8qNgzh8COBaIzG65q9j1GBwYK4JEjBqQMjjAwCceocXTlPhL3br9guDpqxYPx8ePhpnx4yQHBPEKSy3hFi2vbL2Qb00vvHjVMnjV4jnUnx4+VlIhXN6DrmwQzkDwtXYGxJTfVB+LXPZq9gczmZzg/D4yRQj65YOkXcN3jsx5IDlnhjWxA/z3YoPfa3SbiVUi7dLJ1xm26UTLkPvA1By6aQ2viWvFW9+VqtbCbXiWzvSGr8V38p/hm8l1IqfESrc0Bq/FV9I1zdvJcQDYeijdFHgM0xbrHFQDrmzPby0EuIxIPRhl0J6d4yD8ZLErlm2htzPiQHhtSDt1Cj5oYpfgXKtcLEupJUQL73wWpD62Vrmja6aSx/Kc93sVnhbgxAvzPFakPraSn6/4eKgcqxI4bqQtQjx18lrQbz5pGf/GmMNmTEYi9NUzZ5hWVQutn1YvTtCG2did/3fHaFjQP4/92+cj+HhdveD3B2hjYdod/3fHaFjQI4pK/xRbvx7mIcLybB9vpXd9X93hDb+Reyu/70I9fK79njtjmcvQr38HgNSmYFjQHaWuGNATmxA9jJge+ExDV8vQp5fTz8R7NzYC4+pm7WEPFyrfiIojVFP6Wt/UnLzU/XqWPqfFD1cqz4WeORT+tqfHLnqqXp1HEtEbJuHa9VrzNFP6Wt/cuXip+rVsSYiJXu4Vr3GHf2UvvanRC56ql4dayJSsodr1Wtcfdyo9Cl99ddLbn6q3ktciriHa9VrXL1Pv+UDecrFk5se4PMSZ8HVrrdsca3WeLZ9r3U131yg2vWWNdEaT/V7k6v55gLVrresCdZ4qr8bwHcDng37BsAdSibCI2IS3+R11FBq11u2uFZrPNtu9beRJCiml/y1kQhqjRWolpvVwGW3q2s9nqrfWtYOa3zVJ+VqYNJjH4XHU/Vby9prja/6pFwNTHrso/B4evq1WXnxPH2STzUw6bGPwuPp6ddm5cXz9Ek+1cCkxz4Kj6enX5uVF8/TJ/lUA5Me+yg8np5+bVZePE+f5FMNTHrso/B4qn5rWXut8VWflKuBSY99FB5P1W8ta681vuqTcjUw8MiLafxfw1cBfHH2vi3eOWP7FQCPAKBNS/F48oxZbbaSd3NiyDt4zwP4MyMZtHmu47+e8fIFE7PVIFgcxrw98kszvdURk/gmA1gdt5pvvQvAjxUJIObOuTt3i/Gz2gUMNjCeVmfTMYDVOUBOQX9VDIbFILboLlokVg7PkTbWV6uzuRjAag/IPePvSII+BvA4gJsAXBrRm3+rOSgle4rhrPZ4jtYbT6uz+RjA6iUgjxk6Tf0G4IHIW0nN31L9g7zibym2+lmy3YOumm8JkAfw0J6DcUui96HdUvvZBF43qw/Vc2+LrbRS9yt623t8lf8k5wK5bNXVFPeMVFG/KZk+c+6PK17jxgbDMLFlaW97i2218k3KBrA6ZajvNOExY+nlyeYvp845wKsf5al6lUfba/yk7BE3IE/wQlsewJdKaOu1+VYfr6gPtVe9yqPtNX5S9ogb8CsZEK6mlor6XZJ5Ru8Vxat97ymo1L/HV/lPci5QX1R22eQh3lC/S3LO20AVr1FTZ+qpM+ne9h5f5T/JucDSAZkCRBqXy97GpbRXcnl6frbSV/PNBX4pSfSmrKWO3yy+1piyluKN0OXmdcYtF6hfLnhi5il/w1MyIHwtoFdyeXp+ttJX880F6rL3E2fZm+o438n7mQzIGsveVLxR23PzOuOXC4ydGD448+Zv4IXJMCZPDHPeNR9i2NbS+8y71L/HV/lPcgmQ9zNC+98B3Dp58hu3ASAm9PGMD/vPIsSwraV0Wdrb3uOr/Ce5BMh3K/KCYIhhgjnlLJ21U8c9QwfjewBXT0yWG2FMtrWoXuXR9ho/KXvEFchdN3Yv5FMATwLgCoqX33mewjYP4HrMYEz6iD2krPFM9niqXmXzY7XqVTY7q1WvstlZ7enNblbXALlHxAZFfaVkYkvfsau+tCO9p6BS/x5f5T/JtUDuKTp9qa+YzGkqdg96IpRoqC81633mXerf46v8J7kaCOAqAE8D+EOOK+qTsj3kEH5zaiKR0VCfGZChJtV8q4FBd3k/g9MYTx4/P3tvL/8nkG1eyeX0lLO0DVzOmmvwnDntuKGabzWwY2dirk+Fp3Gv5lsNtMgb1afC09JRzbcaaJE3qj2epWfSve09vsm0VQOTHvsoPJ6ly9Le9h7fZJb0PkfOAwdJZx0VXgdVr7JSU73Ka9urv6Ssr6zY6gs5SUIJRe+E9faf6NZ8s15WV2J7lbUnvaegUv+aN+WblPfyhRztgCdrh0rPpHvbK3/luyiP/kKOks+RFzu0A6X2oZjS1l/IUcKlcnEHNwZofzYO3z/cqawGmQneXQ0HJOcxp/4ZXDnCqawGORhrfF9x5fSt7+5UV4PcU0rv/ayfvQ4eT3U1WPt9xQ4pXN/lqa0GW76vuH72Onnc+2pwre8rdkrf4fbIwJGBIwNHBo4MHBk4MnA+ZOBfA8y++If3kDAAAAAASUVORK5CYII=;fontFamily=Times New Roman;" parent="nyfXz0uPsz8sGl3F8VXS-212" vertex="1">
          <mxGeometry x="12.250000000000002" y="61" width="80" height="80" as="geometry" />
        </mxCell>
        <mxCell id="nyfXz0uPsz8sGl3F8VXS-213" value="性能评估" style="text;html=1;align=center;verticalAlign=middle;resizable=0;points=[];autosize=1;strokeColor=none;fillColor=none;fontSize=12;fontFamily=Times New Roman;fontStyle=1" parent="nyfXz0uPsz8sGl3F8VXS-212" vertex="1">
          <mxGeometry x="16.489999999999995" y="17" width="70" height="30" as="geometry" />
        </mxCell>
        <mxCell id="0AaZA0Przd9OFLfUyhfr-1" value="" style="group" vertex="1" connectable="0" parent="9GA1_ZZ8TkLPx-6e-POV-7">
          <mxGeometry x="155.51" y="68" width="328.88" height="126" as="geometry" />
        </mxCell>
        <mxCell id="nyfXz0uPsz8sGl3F8VXS-2" value="" style="rounded=1;whiteSpace=wrap;html=1;dashed=1;strokeWidth=1;fillColor=none;fontFamily=Times New Roman;" parent="0AaZA0Przd9OFLfUyhfr-1" vertex="1">
          <mxGeometry y="34.125" width="328.88" height="91.875" as="geometry" />
        </mxCell>
        <mxCell id="nyfXz0uPsz8sGl3F8VXS-4" value="Task 1" style="rounded=1;whiteSpace=wrap;html=1;fillColor=#dae8fc;strokeColor=#6c8ebf;dashed=1;strokeWidth=0;fontFamily=Times New Roman;fontStyle=1" parent="0AaZA0Przd9OFLfUyhfr-1" vertex="1">
          <mxGeometry x="8.22934763181412" y="59.1875" width="88.171581769437" height="38.0625" as="geometry" />
        </mxCell>
        <mxCell id="nyfXz0uPsz8sGl3F8VXS-7" value="Task 2" style="rounded=1;whiteSpace=wrap;html=1;fillColor=#dae8fc;strokeColor=#6c8ebf;dashed=1;strokeWidth=0;fontFamily=Times New Roman;fontStyle=1" parent="0AaZA0Przd9OFLfUyhfr-1" vertex="1">
          <mxGeometry x="119.32554066130473" y="59.1875" width="88.171581769437" height="38.0625" as="geometry" />
        </mxCell>
        <mxCell id="nyfXz0uPsz8sGl3F8VXS-3" value="" style="edgeStyle=orthogonalEdgeStyle;rounded=0;orthogonalLoop=1;jettySize=auto;html=1;fontFamily=Times New Roman;" parent="0AaZA0Przd9OFLfUyhfr-1" source="nyfXz0uPsz8sGl3F8VXS-4" target="nyfXz0uPsz8sGl3F8VXS-7" edge="1">
          <mxGeometry relative="1" as="geometry" />
        </mxCell>
        <mxCell id="nyfXz0uPsz8sGl3F8VXS-8" value="Task 3" style="rounded=1;whiteSpace=wrap;html=1;fillColor=#dae8fc;strokeColor=#6c8ebf;dashed=1;strokeWidth=0;fontFamily=Times New Roman;fontStyle=1" parent="0AaZA0Przd9OFLfUyhfr-1" vertex="1">
          <mxGeometry x="226.60096514745308" y="59.1875" width="88.171581769437" height="38.0625" as="geometry" />
        </mxCell>
        <mxCell id="nyfXz0uPsz8sGl3F8VXS-33" value="任务列表" style="text;html=1;align=center;verticalAlign=middle;resizable=0;points=[];autosize=1;strokeColor=none;fillColor=none;fontSize=12;fontStyle=1;fontFamily=Times New Roman;" parent="0AaZA0Przd9OFLfUyhfr-1" vertex="1">
          <mxGeometry x="126.81311885612153" width="70" height="30" as="geometry" />
        </mxCell>
        <mxCell id="nyfXz0uPsz8sGl3F8VXS-36" value="" style="edgeStyle=orthogonalEdgeStyle;rounded=0;orthogonalLoop=1;jettySize=auto;html=1;entryX=0;entryY=0.5;entryDx=0;entryDy=0;exitX=1;exitY=0.5;exitDx=0;exitDy=0;fontFamily=Times New Roman;" parent="0AaZA0Przd9OFLfUyhfr-1" source="nyfXz0uPsz8sGl3F8VXS-7" target="nyfXz0uPsz8sGl3F8VXS-8" edge="1">
          <mxGeometry relative="1" as="geometry">
            <mxPoint x="108.15714030384271" y="83.34375" as="sourcePoint" />
            <mxPoint x="131.08175156389635" y="83.34375" as="targetPoint" />
          </mxGeometry>
        </mxCell>
        <mxCell id="9GA1_ZZ8TkLPx-6e-POV-12" value="数据管理" style="swimlane;fillColor=#d5e8d4;strokeColor=#82b366;fontFamily=Times New Roman;" parent="1" vertex="1">
          <mxGeometry x="-790" y="940" width="190" height="180" as="geometry" />
        </mxCell>
        <mxCell id="nyfXz0uPsz8sGl3F8VXS-229" value="" style="shape=image;verticalLabelPosition=bottom;labelBackgroundColor=#ffffff;verticalAlign=top;aspect=fixed;imageAspect=0;image=data:image/png,iVBORw0KGgoAAAANSUhEUgAAAGQAAABkCAYAAABw4pVUAAAJr0lEQVR4Ae2dZ8h1Nx3Af+69cO9SQcVq3Vvwiwu0UnEgaq1WLWpRP1TFgQsnoqI4UEQcrQPFPXDWPT7Uga27busqde/ND5Ny3vOc5OSs+557bwIP596c5D+T3OQ/8sD6yiWAGwJ3Bx4FPB94PfBe4LPAN4CfA78Jf38F/hv+/BzrbWNb+9hXGMISprCPAsRVS0MC1wTuFwT1PuAHwH8aAo6CXuopru8D4lZZ0iJNe1OOAB4JvAP42QYFP1Sh0vb2QKs071S5OfBC4FsrVkCfwqRdHm62rZq5GvB04DtbrISUkr4NPA246jYo5zbAW4F/7KAi2gqSR3mV59WVWwPv3wMltJUSv38MuNUatOK0dZREwvb9+RbgKodLMY8AfleVcWAwKpOHb1Ipl6qz4oASulaGNwPKatFyJeCrdVYUKUQlfRlQZosUAbvl6xoNtS4tF88wV5xbIxcCPlWVMXowfg648JxKeU5VxmhlxNXjWXMp5NpA06IaEdRnepnqks1fgGvNoRQ124Wg1g2XyzPmUEjdVQ0XfGqwuuuaXH5fZ8hsK4SynFzqaXy+GfLbydoAvlJnyGwz5PQ5FPLMqpDZFKIfZXJxq+aWLfVDVevLZPPnOf31detbJvTc4NSDOlvRdHJanSWjV4nPzG06UbNXCHFOuVFQ3x2cScaGKbtFyuWAL9aZUjxT3FXNbulta/ZiwGurUnqV8qalIiPv3dZI+P7QELZZl6lDlylDWY9PyOw+ifpB1f8CTkz0uDLgSNhk+OdaB4AyeGPGQ2jEprKcXKIAXpXZKRid+IE9XsbkPRXVqGPq1Q3ZzKYQFaPl90YZiMYm6dz/e4OAqNBde8qjvObisY4GvtaSRUZ8Za/agvwb8Gzg4pnuLmVP2dFtstvYJwPymCqmOTw3MTBTfYrr2wqJ338MnJBZxiICR4mh/l9vjZQIZxue0v48QF5yxeXpYcBPMrzm+he96xOYinkM4Ha4r1wjBJEZ4fejDNF9OJd+L20uRwr36n1MhdXisT2KiDQXgMs3iYD6nr8My5RCLy1Gybutdnq/G/ge8O8NKkpc4hS3NEiLNJUWeX0q8KsBNJfCTrbrU0T7vUx+POzFx0TuOdNuANwtbLeNeHldENqngTMAZ2VMXdOKGmnwc6y3jW3to8CFISy38MIWx0WTXKdfyNNDgE+MHDxpyIVvIrNjngrIYOzjtiWfIiETZ408yEtzAIyRSQJFefUYpKk+ZwIvA44BLl1OwsZbXga4Z6DVXVWKnzH1k5lxmzsGcV+fmHD5TsDwmHsBRwLnm0xxOQBxiVPcekbfFZJAl7I8GN82uXx3IYWkFPYn4Jvhd0hThOv+SWHE3h7QKnC9IEjN2lqgFax/frZOIdvGtvZxtAvDH25h+hsnDnGl6Fii3hS/yaV57F+CyH2C+crJ2gBuWY2Hs8wil8FbzKEQYZy64am9i7PGpXK24rrsLQu7KKhN8ORtEZefTRsBkHeDnFuVMnhQKjMPoYsUAf+0KqVYKV6A02eQnKwoA+e+UJXSqxSzpha5yOaCHSq0zj39PtzYMPQ3Rpl4dkrJrUOcw6q8oSFlWvfw9dE6W86bLRoyveurq1wE0CoxuThCPp8xS3tC9iS8z1HyJuIoA2XRVTROxmW+6/2gujhlfwHcOdMzKsZ7P5ayBUVa1vCUR3nNKUJx3QXQVxRpzoiw7FUE5FMiNKVctqerS9mLgbMbhDThbPNnLzd7EXDdHhloVzOgsD04e7r1v+4S3q/DbWtdP1xNiOcH7ggYQrRml20Xj806aZcHeZGnXFEm3ut4TmIw5voWvWsS1v78Q0BfcullktcHHhcupRzi9mzjXfq7tHlxprRKc0m5ZGjfN/BKYGXblDDvadTQoFxoTBeS6wAPCtfnfQhQwSX45mrjciJOcXuFn7RI05Aizx4BdB2X0DUEdmfbEiSxjXvwDwIPBvS6jSmONLeO9wAeHUKIvOL1PYB5Fnodh/jU7WPf5jWxwhaHuMYUeTN+V0UOPYuNwXdInyjsoU89jQriAZl410MQrfyLl+/IizxN8aJOZnOoIlLttXi+JsyeWa6YmMxZHoBL0X2DX908j/ZuKcVnX30ea8HbpeJ0zwqjzYjABwI3HRmWU8BCtomhQOKWBmlxBjh4+gQ75r2ynFyWIq6LIcP1VZTr/tuAlwJPCrPqrsFHrvVUn7mX4rjXb56J/Gyd72xz49DHvv6uCUuYwhaHuMTZRcsSdeKbXN6wQYKXEMKaYBqsN7l4GFoTU9tMyx0mayMA8JC0zYJYA+2zWHqjQg0q1ri4Bsa2kQZtekOCuKPcs09vr950YNk2Cr9NszIzlGqRIuCU0axNSP3+/6CQ2y2iiQZQjW3bnA21qYFibmGfib4h1vKPXV4wXbqGRc51et2UkDaBx/yYlycOuV2yLNdEaHlKwmHva4OZv1R/7M/b7OjGvm1CwhcIDqvE6/JqR5WBDs0TcbO3iDRb7/Ot195ereEx5bxSdlrBleXkEqe5uXjOiFRRMRIVnfmx3y4/Df64PyDvqWKAtSaTKIdUu+L6CMjnP4Mjqi837ybB5bmLOzLd168oiEhURhorlVlThsWCTzVsAoufDbwuuUhF/7KGPW0423yw9GBnwIIRJLnZEGWo2T7l/YxtRj+jErqeXrXh74c3zvUVdxhaX58YPG2lLs8uvEvX6ZJ2zX98wUyIfCsDE0PbV2m0aY3tRz/bALu+e3PByQMTOVWQZxpTjF8CfKQw8b4L/5Q63cEfDmFLmugNYRqyPdWd+4QBQeijFRE7DmH2jyF1+NjEPjzCzD3NztXnYaaueYEvAHQBaOAc6lPX/26f+K9XhSVMYYtjbCawvw8miupXGWpOyvFe9G6IQpptvVbbM4yRfWMuECgiboON5EFe5OkPrR/qJt99nyeT3Ieg5L1eOfO99an7gzd7NtFkLg8CUAF3CjPU1IK5XNkHMQ2smRJhkVKW5gUV5P+bNT9cJRmWM+t/oSnkU5zi9h8TS4s0mTItjSn6x9ZvXZ66MU6e+D8ZEk39sfcH092Lgd4eTL1ATX+5kSspn7rvbGNb+7hdFYawhGkSqzjE1T4njBV2Sb+ap77AKC8RfKpNzVNfkUK0jNc89RUppOapr0gZNU99RcqoeeorUkbNU1+RMhbLU+86X2lWr3nq3QfHXJ56lyxnrat56ocqJZenPqvgc8A0VWt0q3nqw8z2OZnO8i4qpuapzyLOeYHUPPV55TkbtH3MU59NeJsAtMt56puQ3+I4diFPfXEhHW4E25CnfrhlVPFXCVQJVAlUCVQJHJDA/wA8tXCs4FjvoQAAAABJRU5ErkJggg==;fontFamily=Times New Roman;" parent="9GA1_ZZ8TkLPx-6e-POV-12" vertex="1">
          <mxGeometry x="45" y="63" width="80" height="80" as="geometry" />
        </mxCell>
        <mxCell id="nyfXz0uPsz8sGl3F8VXS-45" value="数据库" style="text;html=1;align=center;verticalAlign=middle;resizable=0;points=[];autosize=1;strokeColor=none;fillColor=none;fontSize=12;fontStyle=1;fontFamily=Times New Roman;" parent="9GA1_ZZ8TkLPx-6e-POV-12" vertex="1">
          <mxGeometry x="55" y="23.999999999999886" width="60" height="30" as="geometry" />
        </mxCell>
        <mxCell id="nyfXz0uPsz8sGl3F8VXS-19" value="CPU" style="rounded=0;whiteSpace=wrap;html=1;dashed=1;strokeWidth=0;fillColor=#e1d5e7;strokeColor=#9673a6;fontFamily=Times New Roman;fontStyle=1" parent="1" vertex="1">
          <mxGeometry x="540" y="690" width="61.75" height="58.75" as="geometry" />
        </mxCell>
        <mxCell id="nyfXz0uPsz8sGl3F8VXS-32" value="" style="endArrow=classic;html=1;rounded=0;fontSize=12;entryX=0;entryY=0.5;entryDx=0;entryDy=0;strokeWidth=3;fontFamily=Times New Roman;" parent="1" target="nyfXz0uPsz8sGl3F8VXS-19" edge="1">
          <mxGeometry width="50" height="50" relative="1" as="geometry">
            <mxPoint x="460" y="719" as="sourcePoint" />
            <mxPoint x="-137.25" y="651.375" as="targetPoint" />
            <Array as="points">
              <mxPoint x="499.51" y="719" />
            </Array>
          </mxGeometry>
        </mxCell>
        <mxCell id="nyfXz0uPsz8sGl3F8VXS-160" value="" style="ellipse;whiteSpace=wrap;html=1;aspect=fixed;fontFamily=Times New Roman;fontSize=12;strokeWidth=2;fillColor=#000000;" parent="1" vertex="1">
          <mxGeometry x="-217.51" y="1017.1199999999999" width="5" height="5" as="geometry" />
        </mxCell>
        <mxCell id="nyfXz0uPsz8sGl3F8VXS-161" value="" style="ellipse;whiteSpace=wrap;html=1;aspect=fixed;fontFamily=Times New Roman;fontSize=12;strokeWidth=2;fillColor=#000000;" parent="1" vertex="1">
          <mxGeometry x="-245.51" y="1045.12" width="5" height="5" as="geometry" />
        </mxCell>
        <mxCell id="nyfXz0uPsz8sGl3F8VXS-162" value="" style="ellipse;whiteSpace=wrap;html=1;aspect=fixed;fontFamily=Times New Roman;fontSize=12;strokeWidth=2;fillColor=#000000;" parent="1" vertex="1">
          <mxGeometry x="-207.51" y="1044.12" width="5" height="5" as="geometry" />
        </mxCell>
        <mxCell id="nyfXz0uPsz8sGl3F8VXS-163" value="" style="ellipse;whiteSpace=wrap;html=1;aspect=fixed;fontFamily=Times New Roman;fontSize=12;strokeWidth=2;fillColor=#000000;" parent="1" vertex="1">
          <mxGeometry x="-221.51" y="1055.12" width="5" height="5" as="geometry" />
        </mxCell>
        <mxCell id="nyfXz0uPsz8sGl3F8VXS-216" value="" style="shape=image;verticalLabelPosition=bottom;labelBackgroundColor=#ffffff;verticalAlign=top;aspect=fixed;imageAspect=0;image=data:image/png,iVBORw0KGgoAAAANSUhEUgAAAGQAAABkCAYAAABw4pVUAAALp0lEQVR4Ae2dB6w/RRHHvygWQEREEBSkC0iVKsRApBoiHaQlIhARQlCK0lGahkjvkgARQle6QFCaoFKlCAGEAAIKCNKkF5F8wi1Z5793t7t3997v/e4mefnd3dv6ndvZ2dnZOWmgAYEBgQGBAYEBgQEBH4HpJC0naR9Jv5Z0v6RnJb0n6R1J/5b0V0kXSdpL0tckkWeglhGYU9JPJT0h6X+Jf+T5uaQvtNymXhY3i6QjJL2WyIQQ096SdLykz/YSyRY6va6kf7TACMuc5yRt3EL7elPERyQdUswLFkzuGS0XStpR0gqSPi/po5LIx/XyknaQdI6k/1Qw9LgiX2+AzekowJ5RAuLzknaThBiLpU9K2l7SgyVlXiqJNAMFEEAbCjED7ekESbMF8sQ++ljBzNcDjLlY0vSxBfUp3UEBsBA567QIwlckPRSo59gW6xiLotaU9F8D1JOSlu6gd5+T9BdTF3PTph3UNSWLnCmwvmBk8DZ3RbNL+pthyjOSZu2qwqlU7s8MMKy6N5yADiwRWN+gefWamKhfMQyZSHm+h6n7jb6v6Pc1gLwsCRk/UYR2ZSf5Qyeq8lGsx8rxAyahkduZl+LxYpE5CU2Z3CqXMUC8OUl2phklMTJ9qwCr/d7R7gYEVs2TReeZtmC67x2db0DYJRKBzSRhIPxniTa2gaTHClV6/cgysX35I+SCyHxjlexuA8IqEb3DvMImlAMPs8rmXj6ueeb+D9NiaCUvD3nZ5Ood8ZY74PjFUhtD/zL5HFMsMyiTCTqG5jBlsgvZO2IS9xnyiUgE2MvwRwFlcB96hviKIer220Lbeke5DAGo0GjwAXWjJhZUTPB+fhaIvSMretg3T6EypqQygzq/aBjydEpDxiXtnQaEb2R0DKb4bzbXPEultUw5t6UWMA7pf2VAwIySQ5YhOWXg0eKXc2pOIVM9z/cMCLdmdsgHkuscsqN1m5xCpnoe/KQwtfuALpnRKT9/DkO+atrARhlqcC/pWgMGniKp1JQheED6ZVyZ2oBxSr+JAYO3c9nEDvpgpo6QFQOjNNbcktjMqZEcXyorv69JbHouQzDD/MG8EMxjvfcFRt21oH43gSk2b2xWa1CknNVjM497ut8Zprwoae7ITucw5EuBPZArIuvrRbKFJL1qmHJ1pPhIZQhiErHo52Nff/5eIJ3QSfZDfJC4xnW0jmyeuvR7B+r5fl2mPv6fN/c6AxYGSNYJVZTCELSqt00diMveT+RlADNv4FTtg4xXyKfKMpi05CsjyrBOFS9JYj4ZqAKBLQIgn1SR3mdeFUOs7Yy0vTSRVGBZ+q9zDVNYMJaJrhiGsD1szTSXlNY+/GMaBPC9tVu810+T6oMHMQzBnO6no+zYLeOSavv3mMWhDyLXiwdgsGlsEnysbJqtbKLhvh4BTlNx7NkH87BANv//XFs6xpRxb189Ey0wOfehUWIZkHqP0jBQJgLWPScV/FD64QxIJjNcthCoTZ65coffTASagB/Km9mMIZtDwILqnsf+Ns0fW09v0jUFtGn+3gAd29GmgDbNH9vO3qRrCmjT/L0BOrajNl4Jbp+xhPXYZwhlDdQQgVsMqJcXvrh1xcKM35q8f67LNPy/HoGdDaj+G596TQShgRoi8PGSUBipzMDiSxCagVpAYC5JdzQYKbdLoowmBDO3lXRVsavJVjAntIgmROQJjKG9IgDZSdKfAtEfQqMFTxLSIqaajoxvSnq45oW4UdJ8E8kRnBBwhsY75DRJNOApSS8UkXw4dcQhHEzmvDUEnsQt89MdNRK3Hf8AqGMKm09tufTgEG5PC7t6Qr8cMk3RArOgYYOH+CNEywk1ou4ZJ5pw2WS4Vzkr5DRuAUkcYcYxgj/A41lTQvz8IOBMV9dX/n9z08pD+QmZxPmNuzKZUNZwxAgOC4uFKh2RZ8RxDMXTok/vSvplsXMJRkSjQBrY/q7cVl8WkcQOG66ctpI273E4wB9qvRHavSOWI6EEbSA1128UA4I4W2I0XWbwOtEmSrmnwI0k/T7gmeEa436ZL/DWwKOQc3lMYm7Dh6PFbChxnGBrSUdLYrvU5S37fUQSYTY+k9LoltNuKYmDnqE24rvFWqhKi8IBz8+LRphMnHrdLxDNzS+Ya4YpTEC1Y02QSgtKOlgSIfts2f49vr0ndxxJzrZ94WKk+u3wrzlAFKMuM7r8fIT2iKavS8LviUjPfiH2mkmc2FHzRJdcnZDYVN+WdFNNvYgzRisaGppdF8S5dA56ohnafnOPtyQSIJZsZCMkQy3haBYzSf9REkM4ZzTUNqJIQFtOrwDEgYQ4I+pbm+KMgJs2aJmrDwYdmBjLF79geyzu7DogyFTWCBqD9oP20EUU0Kq2ET2OLx3EiDOn3VSVV/U/RDQiyIFvf1EyEGEpxLzJi2XLiooZyeRkMz5Q6Nsp0aJTGhybFnFG2CUWm7aN/j3ijLMdxDCpmmT9ehF7TMplmiOTORIhlVjvhMw5aGNRopZG4d7PQo3Y6WuMqBs+4gxLQJl8dwx6VNKPaiwBaHzWjdTlR1lBzc15GRkBIQZjOeDwUTQhi6dKrHMnzuq+GQIwKB/4AzvCXIN1AdAdA/xf3uycMH7YxI4sWR4wJbCOG3tCnBF12p6Y9QHmGrX5F5K+U0Sbs//nntiK2OJixZ0PLtomG1yhcn+TOdL88qfkNerlKYEAyCGQ7DN2GnNVeMR7yJaH+Cc+Y+9PYCHO9i++P2WBt/eYzdfOfP0YnUTetmdLqOPvklihD+QhQIhXRFDZl3gw3+TOmazQbygRUYy2Kf/pJOJYsV/CnsGZxao9R8Px+PHhJaD/OGB9yA33WiWi9hwHEYWMte48DHu2QVlXYKxMUhc/ZMX/X9hY7qwJUoj1w09KtDNGIWansSA6ak/XWlnPPQvVwyWtlvnVG4L7++VinY4l1GYbUcKVxfOxC9mEsRBx5TpZ9wuYGEEx5cd+7ogtV79c1NwY4s0PzUOsYxgxUSvvmIpGLQ36P53naNp9BjwfSHsNMFiJmRP47kcZMY/4edn5qyJEKXMC6qufj2vUXOaSXhHOCGhJiAQbNtYC5N/jfsN6hI01NsgYGTDDloHltozQktCW/HLdNdoVZfaaZpZEQDOspzaErAMq5ReTSpmoY/3AOsKWx3oDbxnWHwN5CCCzicfOByZtgDMLYuieffGyqNZ4k4Q25zAM8nXRkSXMDFiICUkBKOxZMNHy9qINsa3LhDcRX2TGcZqIPTgT2DBOliGMjBAzWPNgc7LpucdGNZIxT3gzMS2zaxgyF4Q6wzP2kJmol5qA14tFINurRxU7oOzzsMbBgsucERJTmPRDnof0kXKaejZ20m32DnLEg2US+8nEpJq3k1amF8rICu2tMJJQCkaOmMDYTwipfhbslHvePnYA8a0NvbVdA4GX5FklIorR1IaHY+t94C3GITkENBMj6h9mjVULn1U2uAjaghkc11A+FVQn0ymbSRT5jz1rhtZ7MW2BxESxYTlcH/GcjP00xrQld/iE73AwSbuG+r94TSwaWTculQRz4bSSjdbml+mukfd8hJhv3OZsFNU1ixhYfOLb1ed+qXckw2owKfKWuIb6v5gPUvyRLDjsU6CZMepilAJWw2y1ouI2JUYee/F+f9w1nzAaye1V3nr77SfXaFbLbcaQQm3+YYKiwEINTS0HuC9X9AtTP6N45AjjXmgoY27YtWMbP2rnESUGPPdC+L94itCmuo+8IPJQGkKmffqaEpB5whnG4Rq/01zjKRHy6O6qcaxziGTN9zlQO2177D1GRUYuqitrHDRCbFeMdEbfPSVlsHCtMkJ21b+kcq15GZUQ+9FkEZoOigU+YqF1gmVO7D3eiW0fDOoEo28VIgMHs1GLxok6zTdp+XxF2fmMOoagfg8BkTt4dTijx1ZsrNUABnKUra1zhR10aXyK5Ogb36Zi5DiTPAxAXebIAv/j/MlAAwIDAgMCAwIDAmOLwPtWiJQWEaYa0AAAAABJRU5ErkJggg==;fontFamily=Times New Roman;" parent="1" vertex="1">
          <mxGeometry x="395" y="822" width="50" height="50" as="geometry" />
        </mxCell>
        <mxCell id="nyfXz0uPsz8sGl3F8VXS-218" value="" style="shape=image;verticalLabelPosition=bottom;labelBackgroundColor=#ffffff;verticalAlign=top;aspect=fixed;imageAspect=0;image=data:image/png,iVBORw0KGgoAAAANSUhEUgAAAGQAAABkCAYAAABw4pVUAAAHo0lEQVR4Ae2dV4g0RRDHf+Ysihnzg2COmBBFUTHnnB4EEcHw6oMBA4oJVDAnVAygLyaMKCqCiGLOAcwJc87KT2aO5b4NM73Vu3v3dcEyczM93dX/6lBdVd0HhQoCBYGCQEGgIFAQKAgUBAoCBYGCQEGgIFAQKAgUBAoCBYGCQEGgIFAQKAgUBCYRgRWADYAdgZ2Bg6qf9z7z3fKTyPhM52lJYCfgVOBO4BXgN+Dfhj/TvgzcUeWhsMyzUAsE1gCOBe4F/mgIfFMBme4v4CngZGDtFnzNVUlXBc6qekAbcCPS2oPOBFaZqxDvUdnNgJuBPzP0hLbC+rvqlQ6R8/Tgd1Y+nhc4qhrb24I2qvQvAUcA8jqrydb3/AT0hqaCfa3S3madULYCnpxBgpgusMeBLWaDVBYFzgMcn6dXcqb9/Q9wNbDETBXMrsD7s0AQ0xvOJ8A+M0koiwM3jkAQPwJOvo8Ad1U/733mu+lARv99A7DYpAtmQ+DNTGB8ClwFHAK4bhlEpjm0GmY+y8TT68D6gxgZ1/tjgF+CK+64fQ+wGzDfEBWbH9gduA8wz8je8jNw9BC8hX+6IHB9cCUFTNOJPS6aNgbuz8DvNcAC0cy2zW9p4NHgyn0M7N2WkYT0+wEOg5G9xTlsqQReQj5ZE3AMjayQwl0xhLtmmSwHPBBch7eBtZoVH5dqI+CL4IpcPiZThXPTlcF1+bzyycQh3ienLYFvgitwTp/yRvXq3OA6fQ1snpv57YDvgxm3dU4KXRpct58qD2aW+m0LqOJFzhkPjmmY6gWQw5cTc2QdFco2vQpMfW7Xi+4ZalNOqpNG+uujta/vAH0/IWTAgONhZKsxr1GotqkA7J+hvl8B66UyVH+3EvBhBuZc9E06RavDNkKNrfbAJFoEeDqDMDRd2OsmnVTto80sCuVZQLdEK9KnbOhM9DBlftqmhiXNNRoZb6uMmU6c/jRs+uxgwDTDkravHBjc3tZvf3YmRqycfpJh6ADgvQb8vQs4FwxDezQoJ1VgZzRl7MhMXVXG1V5SrbZ+d1ECQBcOoVprJY62SNQCdDg8bJBQ1AKi1xo1A171Z6RSijDqsi9ILRS4LqER1OUOujrMrtOLNyeaVzMWLnOO+ynkMDWocoPe75tScNWKB+U9zHsD9VSg5iDt+cNk3OTblOhAJ+cmc8ag8t9JnOhXGwEuc5iPDhxBoT+01SyqJmOvGgR20/dGybclNU6HlqZlpKabUkCWzThxdTJngFwKqcZ25jPM/S0pDAAvBvLQi3+VB2UR7gvoVaDOpxR6KxAM1ykp9FggD73w8fkVMvfliAozVCeFIkN6zCuF7h4RRvYSNHr1k1rUOyuVQs49UTyYVwqNSiDKglFoVwJahqzBDUtZ/B90Fh1P1a1Fv5DSNCvbVLf8Up6lTupGQ6aU1+YbF+RTy4LTRlCg43fKRhgNhW0q1i+t6n1bGpXae0onYy6+3FDZrzIR76ZaQGfhA+7lTUPhsOW7MEwJZFs9oOxBvLtan4M393Dk3jZgrG0KRXjwUiPWD88sEDehGsnTlaKjLqa3DPdXpJJW2+n5Nf37/NRCM4XJdvJ9cT/eNDC6javzg8h7o9A1aaeQ+/202rblR2Gk7hV0GMm5ThPrgd5DXZe/JlS8KVBGoQ9DWm2dDwaVZ5rUYarmb88G5Qzio9d7MW7syj4uIyO6RYclW66GQtXYN6oNOmpx3vtMbWqOSTKh0BxR8rWAPByhFeV0zGzaipPxJN4ko+f0ppQqLVxFSNQSjbza8iadHs40SjwDLJRaeeOycm3cdH/GpJLDYWQDrPP6qHM1nlp5/ezfZmDQgIfkoLHUyjT4zkbodoIaxKirOwbWbVB+oyTbZ9K8HBZSo1AaMd4ykbzk8H2oUblzIJR2ySSUYRaLoRUELsvQM34H9opmtM7PAGkLiOrGdT5ulhk3eeJEzU/UNaswasCcjHMIxZitcQxflpnDJyRGI1NcdgDc8xDVkup8HL+dVEdFnsv4UIZ6uEgdNmS2NQbu947e2KJgzHMqJKY1V80/ULXNoU15Formp7GQW6NzRTu6P0OhR5M7mXIt+vQp6T8ZK3kAS2TsVD18eTUgWduXUeipVmLB0a6loTCnberWSTuM5sRMk30tIENktK/pMDK8sx/pdrWlmtZjP3Ka0J28j+/HzDjf6XWMDGyrhdHtaninrk+jWQzT8ee9z3JG8Hfy4qkNPb194xREZ9kaJdXpdU12Mj+b7j1FVe/qxJ+X1SkYJ+SZdOBl0wbjxD1jz180YuSETOplUwCj0qkiW5cIx1dnwx3LvV3bo71zLCajAO+Vj4s8h+BZeWa84fbarXJqPb2AbftcHuV1mbE04REX6lDmSjn6XJG2oHdL/1z1zwC6bjMbMU5jKc7J/5JMJ0Z0A7zbsw8A46NyHCk4FlAjCnUxp/ZyenUKdo5/VVELw7yfAIxp9mCdlJjjiDrPqDwcMrYGTqpW6AKYYgw0OM+jwq+ttCQXr3PtcJSjBRixYdC2RkIP95/+L498ZpjRyom7bnPwXPIsCBQECgIFgYJAQaAgUBAoCBQECgIFgYJAQaAgUBAoCBQECgIFgYJAQaAgUBCoEPgPuTnBmBI8BRwAAAAASUVORK5CYII=;fontFamily=Times New Roman;" parent="1" vertex="1">
          <mxGeometry x="626.37" y="889" width="50" height="50" as="geometry" />
        </mxCell>
        <mxCell id="nyfXz0uPsz8sGl3F8VXS-219" value="" style="ellipse;whiteSpace=wrap;html=1;aspect=fixed;fontFamily=Times New Roman;fontSize=12;strokeWidth=2;fillColor=#000000;" parent="1" vertex="1">
          <mxGeometry x="114.98000000000002" y="1035.12" width="5" height="4" as="geometry" />
        </mxCell>
        <mxCell id="nyfXz0uPsz8sGl3F8VXS-220" value="" style="ellipse;whiteSpace=wrap;html=1;aspect=fixed;fontFamily=Times New Roman;fontSize=12;strokeWidth=2;fillColor=#000000;" parent="1" vertex="1">
          <mxGeometry x="139.98000000000002" y="1020.1199999999999" width="5" height="4" as="geometry" />
        </mxCell>
        <mxCell id="nyfXz0uPsz8sGl3F8VXS-221" value="" style="ellipse;whiteSpace=wrap;html=1;aspect=fixed;fontFamily=Times New Roman;fontSize=12;strokeWidth=2;fillColor=#000000;" parent="1" vertex="1">
          <mxGeometry x="146.98000000000002" y="1031.12" width="5" height="4" as="geometry" />
        </mxCell>
        <mxCell id="nyfXz0uPsz8sGl3F8VXS-222" value="" style="ellipse;whiteSpace=wrap;html=1;aspect=fixed;fontFamily=Times New Roman;fontSize=12;strokeWidth=2;fillColor=#000000;" parent="1" vertex="1">
          <mxGeometry x="135.98000000000002" y="1058.12" width="5" height="4" as="geometry" />
        </mxCell>
        <mxCell id="nyfXz0uPsz8sGl3F8VXS-225" value="函数评估" style="text;html=1;align=center;verticalAlign=middle;resizable=0;points=[];autosize=1;strokeColor=none;fillColor=none;fontSize=12;fontFamily=Times New Roman;fontStyle=1" parent="1" vertex="1">
          <mxGeometry x="614" y="932" width="70" height="30" as="geometry" />
        </mxCell>
        <mxCell id="nyfXz0uPsz8sGl3F8VXS-228" value="推荐采样点" style="text;html=1;align=center;verticalAlign=middle;resizable=0;points=[];autosize=1;strokeColor=none;fillColor=none;fontSize=12;fontFamily=Times New Roman;fontStyle=1" parent="1" vertex="1">
          <mxGeometry x="313" y="835" width="80" height="30" as="geometry" />
        </mxCell>
        <mxCell id="nyfXz0uPsz8sGl3F8VXS-244" value="" style="shape=flexArrow;endArrow=classic;html=1;rounded=0;fontFamily=Times New Roman;fontSize=12;strokeWidth=3;fillColor=#b0e3e6;strokeColor=#0e8088;" parent="1" edge="1">
          <mxGeometry width="50" height="50" relative="1" as="geometry">
            <mxPoint x="-413" y="822" as="sourcePoint" />
            <mxPoint x="-413" y="910" as="targetPoint" />
          </mxGeometry>
        </mxCell>
        <mxCell id="nyfXz0uPsz8sGl3F8VXS-245" value="" style="shape=flexArrow;endArrow=classic;html=1;rounded=0;fontFamily=Times New Roman;fontSize=12;strokeWidth=3;fillColor=#b0e3e6;strokeColor=#0e8088;startArrow=none;" parent="1" edge="1">
          <mxGeometry width="50" height="50" relative="1" as="geometry">
            <mxPoint x="33" y="880" as="sourcePoint" />
            <mxPoint x="33" y="780" as="targetPoint" />
          </mxGeometry>
        </mxCell>
        <mxCell id="nyfXz0uPsz8sGl3F8VXS-246" value="" style="shape=flexArrow;endArrow=classic;html=1;rounded=0;fontFamily=Times New Roman;fontSize=12;strokeWidth=3;fillColor=#b0e3e6;strokeColor=#0e8088;exitX=-0.063;exitY=0.624;exitDx=0;exitDy=0;exitPerimeter=0;" parent="1" source="nyfXz0uPsz8sGl3F8VXS-212" edge="1">
          <mxGeometry width="50" height="50" relative="1" as="geometry">
            <mxPoint x="43" y="919.9999999999998" as="sourcePoint" />
            <mxPoint x="-120" y="725" as="targetPoint" />
          </mxGeometry>
        </mxCell>
        <mxCell id="nyfXz0uPsz8sGl3F8VXS-247" value="" style="shape=flexArrow;endArrow=classic;html=1;rounded=0;fontFamily=Times New Roman;fontSize=12;strokeWidth=3;fillColor=#b0e3e6;strokeColor=#0e8088;" parent="1" edge="1">
          <mxGeometry width="50" height="50" relative="1" as="geometry">
            <mxPoint x="-460" y="1040" as="sourcePoint" />
            <mxPoint x="-590" y="1040" as="targetPoint" />
          </mxGeometry>
        </mxCell>
        <mxCell id="nyfXz0uPsz8sGl3F8VXS-251" value="" style="shape=flexArrow;endArrow=classic;html=1;rounded=0;fontFamily=Times New Roman;fontSize=12;strokeWidth=3;fillColor=#b0e3e6;strokeColor=#0e8088;exitX=1;exitY=0.5;exitDx=0;exitDy=0;" parent="1" source="nyfXz0uPsz8sGl3F8VXS-19" edge="1">
          <mxGeometry width="50" height="50" relative="1" as="geometry">
            <mxPoint x="640" y="700" as="sourcePoint" />
            <mxPoint x="650" y="890" as="targetPoint" />
            <Array as="points">
              <mxPoint x="650" y="719" />
            </Array>
          </mxGeometry>
        </mxCell>
        <mxCell id="nyfXz0uPsz8sGl3F8VXS-263" value="" style="edgeStyle=orthogonalEdgeStyle;rounded=0;orthogonalLoop=1;jettySize=auto;html=1;fontFamily=Times New Roman;fontSize=12;endArrow=classic;endFill=1;strokeWidth=3;exitX=0.443;exitY=1.057;exitDx=0;exitDy=0;exitPerimeter=0;" parent="1" source="nyfXz0uPsz8sGl3F8VXS-253" target="nyfXz0uPsz8sGl3F8VXS-262" edge="1">
          <mxGeometry relative="1" as="geometry" />
        </mxCell>
        <mxCell id="nyfXz0uPsz8sGl3F8VXS-252" value="" style="shape=image;verticalLabelPosition=bottom;labelBackgroundColor=#ffffff;verticalAlign=top;aspect=fixed;imageAspect=0;image=data:image/png,iVBORw0KGgoAAAANSUhEUgAAAGQAAABkCAYAAABw4pVUAAAEcElEQVR4Ae1dO84UPRAsgUAiAomAgJgDcAFuwEs8/owrcAUyHiIhJOUpcQO4ABwAwc8biYSABEFAgAA17EjrUc+M7XZ7PDtl6dOuPXZPdZXbs9M73xpgIQNkgAyQATJABsgAGSADZIAMLIOB/QD+A/AAwP8AvgP4vfI/4UC4EE4uAhCOqpRzAN6tnPyYyfcWwFlPRfYCuEkhkleCGwD2eAhDMfKX5eulBZFlKiZM2WeYpzOlRJGLk6yHJNvGwftSF3r5NEUxynBwoUSUPKQgxSbkvRKCvKYgxQSR+xRz+UZBigkiXJoLrx9lrh8djxSksQinIBSkbIh3ob4rr4wQRggjZCyaGSGMEEYII6SxKKAgFMRvWToJ4MOCCB6LBu3Y4i7qAvgAgCsAfuygMIsUpAN9DMDjHROl8y37VQs7zzYNqCxjn3ZEGM2/pDZP8jXbQ+AOArgF4OfChRnyL7pdI82zbQrYcQBPFyzKlH+Txz3J12xPAto853QJwJcFChPj32gfjTTPtlEwvYOHAdwG8GtBwvRcSK96kq/ZTkcInADwfCGi5PgXjNFI82wLTp5Q2QfgMoDWnwFIcEnv6km+ZltHEd96FMCdhqMl3pOBnhppnm0DMJKbW03BJDvSH+BJvma7f35LvcUUjMWfv2M10jzbzIAVAy2lYBR4aU2e5Gu209Cl9W4hBZOGWOmtkebZpkAo2jR3CsbsjCf5mm0z4EgDc6VgIuENd9NI82wbRlL+iPyrWe0UjNkLT/I122bAGQZqpmAy4IVDNNI828Kz163VSMGYPfIkX7NtBmw04J2CMcLze5hBE0PaWileKRizf0PEebWbARcyIII8csiJmeF5ET9k1wzYaIBLVm8WGvk0DedFvSeGRM0c5cgmZV/jm0ezf0NLi1e7GXCCAd4YKhHRFzaBT1NXSZ08i8DTx2etm0DLYCuA1PFmwBMGDs38fNcEvOnDqYRa+08jyu8hP23xeYZJts1JPvrNyG1jNd6bASsG5AuqJzML0XGnwEtr6gzVek1DN96bX+EWmIXjFMcf5UMOBcSQKLQWr5RHqRXC6t9iPmV5pzwoSMJUqpHyoCARgtRMeVCQEUHmSHlQkAFB5kp5UJCeIHOnPCjIliAtpDwoCICWUh6rFqTFlMdqBTkF4GOhu/5SJJa0s7US570tCYa28jQIRpHEsl/SBeTmVCgIBame0Kw56XKCIhhTE+wazhWQm1NZA0k1fczRIBhTE+wazhWQm1NZA0k1fczRIBhTE+wazhWQm1NZA0k1fczRIBjT+o+51CTTeq6vAbOZlVc7nFeyEpw6/mWmBsGw+xSk2I2q/EqRuchGu6kzgf11zs6b1QAgzzu9oSjmSSkbOhfbQVp2Peasz+dA/jNLvucpWmTXY4qSx8HVokpsjMmzULLrMUWJ50Ai45rX9t2dyLLrMa8p06LIDqmnO9K8X+VCL4/myN6u8tmaN4//OHgB4C4A+TQlHLGQATJABsgAGSADZIAMkAEyQAaaZ+APL0UH675WVIwAAAAASUVORK5CYII=;fontFamily=Times New Roman;" parent="1" vertex="1">
          <mxGeometry x="-800" y="570" width="100" height="100" as="geometry" />
        </mxCell>
        <mxCell id="nyfXz0uPsz8sGl3F8VXS-253" value="开始" style="text;html=1;align=center;verticalAlign=middle;resizable=0;points=[];autosize=1;strokeColor=none;fillColor=none;fontSize=12;fontFamily=Times New Roman;fontStyle=1" parent="1" vertex="1">
          <mxGeometry x="-775" y="665" width="50" height="30" as="geometry" />
        </mxCell>
        <mxCell id="nyfXz0uPsz8sGl3F8VXS-254" value="" style="shape=flexArrow;endArrow=classic;html=1;rounded=0;fontFamily=Times New Roman;fontSize=12;strokeWidth=3;fillColor=#b0e3e6;strokeColor=#0e8088;" parent="1" edge="1">
          <mxGeometry width="50" height="50" relative="1" as="geometry">
            <mxPoint x="652" y="960" as="sourcePoint" />
            <mxPoint x="580" y="1030" as="targetPoint" />
            <Array as="points">
              <mxPoint x="652" y="1030" />
            </Array>
          </mxGeometry>
        </mxCell>
        <mxCell id="nyfXz0uPsz8sGl3F8VXS-258" value="" style="edgeStyle=orthogonalEdgeStyle;rounded=0;orthogonalLoop=1;jettySize=auto;html=1;fontFamily=Times New Roman;fontSize=12;endArrow=classic;endFill=1;strokeWidth=3;exitX=1;exitY=0.5;exitDx=0;exitDy=0;" parent="1" source="nyfXz0uPsz8sGl3F8VXS-252" edge="1">
          <mxGeometry relative="1" as="geometry">
            <mxPoint x="-670" y="700" as="sourcePoint" />
            <mxPoint x="-630" y="620" as="targetPoint" />
          </mxGeometry>
        </mxCell>
        <mxCell id="nyfXz0uPsz8sGl3F8VXS-262" value="" style="shape=image;verticalLabelPosition=bottom;labelBackgroundColor=#ffffff;verticalAlign=top;aspect=fixed;imageAspect=0;image=data:image/png,iVBORw0KGgoAAAANSUhEUgAAAGQAAABkCAYAAABw4pVUAAAEvklEQVR4Ae1bi4rUQBCcPxH8JkEFv13wOxSUEXJka5KtqfQ8upNZkNvOdHXXI3t752pK67EcWA4sB5YDy4H7OvA3peThz++U0vf72lyvzEMYG4c/KaUf9dTv2bmZ4eXr40PxEsSex6ND2RuRn49+4P6tfmwomwHbVy+BZD6PDGULYvs6O5D809bGZQvl22hSM/ftxefnox+4/0tK6SiUx/z0hYbMDiTvf3QoHgN5dCheA3lsKL/gTdTDt6w9h68n7ym3faP/lFL6uQtlb8aI5zWv0Me9p+xDGRHCfkdNILn/saHszRrxvDaQR4byeUQCsEMJJEOP3lPy7y2X31OQwKzay+cPqB/yOiybhoIEZtYe/q4I9R8mcHCx2XsKEphdzw4F9R94f3qpSShIwEM9MxTUf+r+yYE5FCuBE17Vl3H/VudQZnymve1v/bX6jR4XVzvZqBH37+sZoez3t36eQ6EPXEoBjRtwfya9v5ZDufwj5AWu+909nlNKuJQCGjfgfvP3YCM/5NO6pvRwIQU0bjjaPzuUlhKP9L2dLwPeTtMPz/bfJZQzfadOyYDTSdcO3u2/Qyjv9B06JgMOp1y/yPZHD4XpK5yTAcUE24Wa/ZFDqdH34qAMeEHbi9r9UUOp1ffhpAz4QLZ5ouyPGIqi77+jMqBNDh9T1P3RQlH1vfxWnMGjHzJh8ePT/cfBuKtFzfzCHaw/ZCBZlPJK6RkKM/gxgXgJZQUCDsx+pQCdogz/CkEBV+vqzx8KC9teQP50ugygE7UG3N+yrvr8QaMrd6MeOkAG0IlaA+5vXWts2nejHrpBBtCJWgPub11rbNp3ox66QQbQiXMbvOmR+ciAuX7T7d70yHxkALVkboM3PTIfGTDXb7rdmx6ZjwyglsxtYHrwnNVWNTifzpMBdOLcBqYHz1ltVYPz6TwZQCfObWB68JzVVjU4n86TAXTi3AamB89ZbVWD8+k8FYD9o2smCPmw/t7nMh8VgP2ja2Yg8mH9vc9lPioA+0fXzEDkw/p7n8t8VAD2j66ZgciH9fc+l/nIgN4KjPO96ZH5yACjYb3h3vTIfGRAb0eN873pkfnIAKNhveHe9Mh8ZEBvR43zmR48t9aMLs5n/dP/XRYlKDYwA/DcWjN6OJ/1r0Dg/zSigaxmBiOe9a9AogeCibeu6R1EGpAPae9+LPNRAdjfurY6hHys86x4mY8KwP7W9XADrAsJHv0h7a//ST+D2QMXtK7ZfnaOfFh/73OZjwzorcA435semY8MMBrWG+5Nj8xHBvR21Djfmx6ZjwwwGtYb7k2PzEcG9HbUON+bHpmPDDAa1hvuTY/MRwb0dtQ435semY8MMBrWG+5Nj8xHBWD/6JoFinywH89H18inqJFQ0QAXsH90DXSKEvlgA56PrpFPUSOhogEuYP/oGugUJfLBBjwfXSOfokZCRQNcwP7RNdApSuSDDXg+ukY+RY2EioZgF8LrCS8AbpjwesILWIGAA87K8DdYeAFwQ4TXE17ACgQccFaGv8HCC4AbIrye8AJWIOCAszL8DRZeANwQ4fWEF3D3QDCg6DXk5b+Mbjjj7z8BYMgERT8Huf7L6IYz/v4TWAyXA8uB5cByYDlwwYF/dYVVu+X5tsoAAAAASUVORK5CYII=;fontFamily=Times New Roman;" parent="1" vertex="1">
          <mxGeometry x="-792" y="757" width="80" height="80" as="geometry" />
        </mxCell>
        <mxCell id="nyfXz0uPsz8sGl3F8VXS-264" value="本地数据" style="text;html=1;align=center;verticalAlign=middle;resizable=0;points=[];autosize=1;strokeColor=none;fillColor=none;fontSize=12;fontFamily=Times New Roman;fontStyle=1" parent="1" vertex="1">
          <mxGeometry x="-788" y="835" width="70" height="30" as="geometry" />
        </mxCell>
        <mxCell id="nyfXz0uPsz8sGl3F8VXS-265" value="" style="edgeStyle=orthogonalEdgeStyle;rounded=0;orthogonalLoop=1;jettySize=auto;html=1;fontFamily=Times New Roman;fontSize=12;endArrow=classic;endFill=1;strokeWidth=3;exitX=0.531;exitY=1.129;exitDx=0;exitDy=0;exitPerimeter=0;" parent="1" source="nyfXz0uPsz8sGl3F8VXS-264" edge="1">
          <mxGeometry relative="1" as="geometry">
            <mxPoint x="-742.28" y="701.1399999999999" as="sourcePoint" />
            <mxPoint x="-751" y="963" as="targetPoint" />
            <Array as="points">
              <mxPoint x="-751" y="963" />
            </Array>
          </mxGeometry>
        </mxCell>
        <mxCell id="nyfXz0uPsz8sGl3F8VXS-266" value="加载" style="text;html=1;align=center;verticalAlign=middle;resizable=0;points=[];autosize=1;strokeColor=none;fillColor=none;fontSize=12;fontFamily=Times New Roman;fontStyle=1" parent="1" vertex="1">
          <mxGeometry x="-758" y="895" width="50" height="30" as="geometry" />
        </mxCell>
        <mxCell id="nyfXz0uPsz8sGl3F8VXS-268" value="优化结果" style="text;html=1;align=center;verticalAlign=middle;resizable=0;points=[];autosize=1;strokeColor=none;fillColor=none;fontSize=12;fontFamily=Times New Roman;fontStyle=1" parent="1" vertex="1">
          <mxGeometry x="82.47999999999999" y="832" width="70" height="30" as="geometry" />
        </mxCell>
        <mxCell id="nyfXz0uPsz8sGl3F8VXS-271" value="" style="shape=image;verticalLabelPosition=bottom;labelBackgroundColor=#ffffff;verticalAlign=top;aspect=fixed;imageAspect=0;image=data:image/png,iVBORw0KGgoAAAANSUhEUgAAAGQAAABkCAYAAABw4pVUAAAFrUlEQVR4Ae2dy6sdRRDGPxPMY6FiFpGr4iKibv0z4sbgIiABBYVIniiKuMwioGRn/grJNsnS4MInmrhLsnNhXKqBPDcRpfA03Sm6752Zrvr6dNINl+6Z6a6v61czfc65p2YO0G95DcBZAFcB3F39SftLAK/261Z/M98O4AsADwD8W/iTY58DkL6jOBLYBuBcIQi54HwFQMaM4kTgsxnBCAH61Gkuj73Z5wDcUQGR14w3ATy1+jsA4JrqcxvA3seengOATxRoCcbTGZ1nAFxXfT/O9Hvkdu0AcALAT5kzNywXnrVcDaXylgqI5zyCbbl6fwRwHICwoZbnAfzawOngvNSyTJWKXDlpX3b7CoCN0uSs90v0Wwfj9wlO3WgclMsAnpwwz+ouskyxz7hUT4Kxf4IXbwCQvulYdvvohHlWd5HXjNSx8wBkCastqU1pexdrvRcAXFBsfvB2QuzL28jUGZmIRUlt9hgQYfCiYnPLAsxWNrzAedkt+eOl52W35MdDV4eIWxW2I156XnaLnL0EtV32dtHhmQf0vGcOn9/dS1DbZW/PJ5Efoeed72W410uw5eeGKZ9rpiL04lPU9xJs9blh6ueaIhB1wIuPkombdMEo3UWLzocu2EUY4iTpfOiC0dcuWnQ+dMEuwhAnSedDF4y+dtGi86ELdhGGOEk6H7pg9LWLFp0PXbCLMMRJ0vnQBaOvXbTofOiCXYQhTpLOhy4Yfe2iRedDF+wiDHGSdD50wehrFy06H7pgF2GIk6TzoQtGX7to0fnQBRuGYReAPTP16XzogjOBWHU/COBvAP8AOD3DKJ0PXXAGDKuur6xukQu+SlCenWg8jAn1xGHLuwWhUC+3tJ4j5Y6rbzMJb7snTjdwCfXEYcu7BaFQL7e0niM/UsEQPz+cMdXAJdQzhi7rGoRCvczKeo7al0mV/W7mfYqBS6jdPQ1CoXYXNBCYcltAbqmSm3BenqkfuIR65vD53YNQqKdaOAPgfmY5CHaW1r8BkBSiUjm8OutvAjhU6gQgt1Sd3KR/6ZD2o9TPbP8SwdcdApHO44+CdzsB3Eu05d3S+5m++l2V2P5m5lIVzKbzkrZ7WSLYKiCyVMktAemcdVByS5XcciGvJ0tKqrW2ARHH5OkL8ggMPeHa7a2WrHdWH+5SnTQouaXq2JJIrMakOtJ2L3RBA49kmZIgpHOX7VOZk+QSgCcqNFONEZBNQL6XCYqGt+RdlZbUNvVx8226oKEHWwXlAwMtOh+6oAGk1EQpKF9XLlVBg86HLhg8Naz1a4q8E3vJyD6dD13QCJQ28y6APwH8BeBtfbBim86HLlgBp8VQOh+6YAuqFZp0PnTBCjgthtL50AVbUK3QpPOhC1bAaTGUzocu2IJqhSadD12wAk6LoXQ+dMEWVCs06XzoghVwWgyl86ELtqC60hyZiw3ha+mRuaiJNNzW37HLl1kjc7FRQHLfsct/g0fmYqOA5L5jH5mLjYIxMhdJ4EfmYgb0yFzMQLHYteRzSKtEuZG5WIh4q4CMzMVCQGT3yFzcBE7NoSVLVo2exVidZSI+jMxFC7IVNkr5WOkJNjIXKwAvGbpVUEbm4hKqlWNKQRmZi5Vga4br15SRuVhD02jsyFw0ArnuZtI3CdJ2L3RBd49sBeh86IK2vNyt0fnQBd0R2grQ+dAFbXm5W6PzoQu6I7QVoPOhC9rycrdG50MXdEdoK0DnQxe05eVujc6HLuiO0FaAzocuaMvL3RqdD13QHaGtAJ0PXdCWl7s1Oh+6oDtCWwE6H/38Kauf77bF0sZak5/v1j9wLz/qPoLy/2+pX1SPgKL8wP1xJaov0bEdn8t1hHGh7gBwZQTloYeh5U7CnwFMySk2idkGgMsjKMWg/AJAGFGLRP8ogO8zDx/OnTGP+j55cKawkGWKdmVQIz7EBoFBYBAYBNaawH80zBBYfmue4QAAAABJRU5ErkJggg==;fontFamily=Times New Roman;" parent="1" vertex="1">
          <mxGeometry x="39.999999999999986" y="825" width="50" height="50" as="geometry" />
        </mxCell>
        <mxCell id="nyfXz0uPsz8sGl3F8VXS-249" value="" style="shape=flexArrow;endArrow=classic;html=1;rounded=0;fontFamily=Times New Roman;fontSize=12;strokeWidth=3;fillColor=#b0e3e6;strokeColor=#0e8088;" parent="1" edge="1">
          <mxGeometry width="50" height="50" relative="1" as="geometry">
            <mxPoint x="470" y="920" as="sourcePoint" />
            <mxPoint x="470" y="770" as="targetPoint" />
          </mxGeometry>
        </mxCell>
      </root>
    </mxGraphModel>
  </diagram>
</mxfile>
